<svg width="96" height="36" viewBox="0 0 96 36" fill="none" xmlns="http://www.w3.org/2000/svg">
<g filter="url(#filter0_d_4247_26076)">
<path d="M2 9C2 4.58172 5.58172 1 10 1H86C90.4183 1 94 4.58172 94 9V25C94 29.4183 90.4183 33 86 33H10C5.58172 33 2 29.4183 2 25V9Z" fill="white"/>
<path d="M10 1.5H86C90.1421 1.5 93.5 4.85786 93.5 9V25C93.5 29.1421 90.1421 32.5 86 32.5H10C5.85786 32.5 2.5 29.1421 2.5 25V9C2.5 4.85786 5.85786 1.5 10 1.5Z" stroke="#D5D7DA"/>
<path d="M21.5 10.5C17.916 10.5 15 13.416 15 17C15 20.584 17.916 23.5 21.5 23.5C25.084 23.5 28 20.584 28 17C28 13.416 25.084 10.5 21.5 10.5ZM21.5 11.5C24.5435 11.5 27 13.9565 27 17C27 20.0435 24.5435 22.5 21.5 22.5C18.4565 22.5 16 20.0435 16 17C16 13.9565 18.4565 11.5 21.5 11.5ZM21 14V16.5H18.5V17.5H21V20H22V17.5H24.5V16.5H22V14H21Z" fill="#717680"/>
<path d="M39.164 18.808L37.814 15.31C37.774 15.206 37.732 15.086 37.688 14.95C37.644 14.81 37.602 14.662 37.562 14.506C37.478 14.83 37.392 15.1 37.304 15.316L35.954 18.808H39.164ZM41.588 22H40.688C40.584 22 40.5 21.974 40.436 21.922C40.372 21.87 40.324 21.804 40.292 21.724L39.488 19.648H35.63L34.826 21.724C34.802 21.796 34.756 21.86 34.688 21.916C34.62 21.972 34.536 22 34.436 22H33.536L36.974 13.402H38.15L41.588 22ZM46.2982 17.368C46.0982 17.1 45.8822 16.914 45.6502 16.81C45.4182 16.702 45.1582 16.648 44.8702 16.648C44.3062 16.648 43.8722 16.85 43.5682 17.254C43.2642 17.658 43.1122 18.234 43.1122 18.982C43.1122 19.378 43.1462 19.718 43.2142 20.002C43.2822 20.282 43.3822 20.514 43.5142 20.698C43.6462 20.878 43.8082 21.01 44.0002 21.094C44.1922 21.178 44.4102 21.22 44.6542 21.22C45.0062 21.22 45.3122 21.14 45.5722 20.98C45.8362 20.82 46.0782 20.594 46.2982 20.302V17.368ZM47.3662 13.162V22H46.7302C46.5782 22 46.4822 21.926 46.4422 21.778L46.3462 21.04C46.0862 21.352 45.7902 21.604 45.4582 21.796C45.1262 21.988 44.7422 22.084 44.3062 22.084C43.9582 22.084 43.6422 22.018 43.3582 21.886C43.0742 21.75 42.8322 21.552 42.6322 21.292C42.4322 21.032 42.2782 20.708 42.1702 20.32C42.0622 19.932 42.0082 19.486 42.0082 18.982C42.0082 18.534 42.0682 18.118 42.1882 17.734C42.3082 17.346 42.4802 17.01 42.7042 16.726C42.9282 16.442 43.2022 16.22 43.5262 16.06C43.8542 15.896 44.2222 15.814 44.6302 15.814C45.0022 15.814 45.3202 15.878 45.5842 16.006C45.8522 16.13 46.0902 16.304 46.2982 16.528V13.162H47.3662ZM53.013 17.368C52.813 17.1 52.597 16.914 52.365 16.81C52.133 16.702 51.873 16.648 51.585 16.648C51.021 16.648 50.587 16.85 50.283 17.254C49.979 17.658 49.827 18.234 49.827 18.982C49.827 19.378 49.861 19.718 49.929 20.002C49.997 20.282 50.097 20.514 50.229 20.698C50.361 20.878 50.523 21.01 50.715 21.094C50.907 21.178 51.125 21.22 51.369 21.22C51.721 21.22 52.027 21.14 52.287 20.98C52.551 20.82 52.793 20.594 53.013 20.302V17.368ZM54.081 13.162V22H53.445C53.293 22 53.197 21.926 53.157 21.778L53.061 21.04C52.801 21.352 52.505 21.604 52.173 21.796C51.841 21.988 51.457 22.084 51.021 22.084C50.673 22.084 50.357 22.018 50.073 21.886C49.789 21.75 49.547 21.552 49.347 21.292C49.147 21.032 48.993 20.708 48.885 20.32C48.777 19.932 48.723 19.486 48.723 18.982C48.723 18.534 48.783 18.118 48.903 17.734C49.023 17.346 49.195 17.01 49.419 16.726C49.643 16.442 49.917 16.22 50.241 16.06C50.569 15.896 50.937 15.814 51.345 15.814C51.717 15.814 52.035 15.878 52.299 16.006C52.567 16.13 52.805 16.304 53.013 16.528V13.162H54.081ZM60.2542 22H59.0902V13.402H60.2542V22ZM63.8917 22.096C63.4117 22.096 63.0417 21.962 62.7817 21.694C62.5257 21.426 62.3977 21.04 62.3977 20.536V16.816H61.6657C61.6017 16.816 61.5477 16.798 61.5037 16.762C61.4597 16.722 61.4377 16.662 61.4377 16.582V16.156L62.4337 16.03L62.6797 14.152C62.6917 14.092 62.7177 14.044 62.7577 14.008C62.8017 13.968 62.8577 13.948 62.9257 13.948H63.4657V16.042H65.2237V16.816H63.4657V20.464C63.4657 20.72 63.5277 20.91 63.6517 21.034C63.7757 21.158 63.9357 21.22 64.1317 21.22C64.2437 21.22 64.3397 21.206 64.4197 21.178C64.5037 21.146 64.5757 21.112 64.6357 21.076C64.6957 21.04 64.7457 21.008 64.7857 20.98C64.8297 20.948 64.8677 20.932 64.8997 20.932C64.9557 20.932 65.0057 20.966 65.0497 21.034L65.3617 21.544C65.1777 21.716 64.9557 21.852 64.6957 21.952C64.4357 22.048 64.1677 22.096 63.8917 22.096ZM70.3593 18.298C70.3593 18.05 70.3233 17.824 70.2513 17.62C70.1833 17.412 70.0813 17.234 69.9453 17.086C69.8133 16.934 69.6513 16.818 69.4593 16.738C69.2673 16.654 69.0493 16.612 68.8053 16.612C68.2933 16.612 67.8873 16.762 67.5873 17.062C67.2913 17.358 67.1073 17.77 67.0353 18.298H70.3593ZM71.2233 21.148C71.0913 21.308 70.9333 21.448 70.7493 21.568C70.5653 21.684 70.3673 21.78 70.1553 21.856C69.9473 21.932 69.7313 21.988 69.5073 22.024C69.2833 22.064 69.0613 22.084 68.8413 22.084C68.4213 22.084 68.0333 22.014 67.6773 21.874C67.3253 21.73 67.0193 21.522 66.7593 21.25C66.5033 20.974 66.3033 20.634 66.1593 20.23C66.0153 19.826 65.9433 19.362 65.9433 18.838C65.9433 18.414 66.0073 18.018 66.1353 17.65C66.2673 17.282 66.4553 16.964 66.6993 16.696C66.9433 16.424 67.2413 16.212 67.5933 16.06C67.9453 15.904 68.3413 15.826 68.7813 15.826C69.1453 15.826 69.4813 15.888 69.7893 16.012C70.1013 16.132 70.3693 16.308 70.5933 16.54C70.8213 16.768 70.9993 17.052 71.1273 17.392C71.2553 17.728 71.3193 18.112 71.3193 18.544C71.3193 18.712 71.3013 18.824 71.2653 18.88C71.2293 18.936 71.1613 18.964 71.0613 18.964H66.9993C67.0113 19.348 67.0633 19.682 67.1553 19.966C67.2513 20.25 67.3833 20.488 67.5513 20.68C67.7193 20.868 67.9193 21.01 68.1513 21.106C68.3833 21.198 68.6433 21.244 68.9313 21.244C69.1993 21.244 69.4293 21.214 69.6213 21.154C69.8173 21.09 69.9853 21.022 70.1253 20.95C70.2653 20.878 70.3813 20.812 70.4733 20.752C70.5693 20.688 70.6513 20.656 70.7193 20.656C70.8073 20.656 70.8753 20.69 70.9233 20.758L71.2233 21.148ZM72.6312 22V15.922H73.2732C73.4252 15.922 73.5192 15.996 73.5552 16.144L73.6332 16.768C73.8572 16.492 74.1092 16.266 74.3892 16.09C74.6692 15.914 74.9932 15.826 75.3612 15.826C75.7692 15.826 76.0992 15.94 76.3512 16.168C76.6072 16.396 76.7912 16.704 76.9032 17.092C76.9912 16.872 77.1032 16.682 77.2392 16.522C77.3792 16.362 77.5352 16.23 77.7072 16.126C77.8792 16.022 78.0612 15.946 78.2532 15.898C78.4492 15.85 78.6472 15.826 78.8472 15.826C79.1672 15.826 79.4512 15.878 79.6992 15.982C79.9512 16.082 80.1632 16.23 80.3352 16.426C80.5112 16.622 80.6452 16.864 80.7372 17.152C80.8292 17.436 80.8752 17.762 80.8752 18.13V22H79.8012V18.13C79.8012 17.654 79.6972 17.294 79.4892 17.05C79.2812 16.802 78.9812 16.678 78.5892 16.678C78.4132 16.678 78.2452 16.71 78.0852 16.774C77.9292 16.834 77.7912 16.924 77.6712 17.044C77.5512 17.164 77.4552 17.316 77.3832 17.5C77.3152 17.68 77.2812 17.89 77.2812 18.13V22H76.2072V18.13C76.2072 17.642 76.1092 17.278 75.9132 17.038C75.7172 16.798 75.4312 16.678 75.0552 16.678C74.7912 16.678 74.5472 16.75 74.3232 16.894C74.0992 17.034 73.8932 17.226 73.7052 17.47V22H72.6312Z" fill="#717680"/>
</g>
<defs>
<filter id="filter0_d_4247_26076" x="0" y="0" width="96" height="36" filterUnits="userSpaceOnUse" color-interpolation-filters="sRGB">
<feFlood flood-opacity="0" result="BackgroundImageFix"/>
<feColorMatrix in="SourceAlpha" type="matrix" values="0 0 0 0 0 0 0 0 0 0 0 0 0 0 0 0 0 0 127 0" result="hardAlpha"/>
<feOffset dy="1"/>
<feGaussianBlur stdDeviation="1"/>
<feColorMatrix type="matrix" values="0 0 0 0 0.0392157 0 0 0 0 0.0496732 0 0 0 0 0.0705882 0 0 0 0.05 0"/>
<feBlend mode="normal" in2="BackgroundImageFix" result="effect1_dropShadow_4247_26076"/>
<feBlend mode="normal" in="SourceGraphic" in2="effect1_dropShadow_4247_26076" result="shape"/>
</filter>
</defs>
</svg>
