<svg width="16" height="16" viewBox="0 0 16 16" fill="none" xmlns="http://www.w3.org/2000/svg">
<g clip-path="url(#clip0_3591_8161)">
<path d="M13.3212 6.66061C13.3212 9.98631 9.63185 13.4499 8.39295 14.5196C8.27754 14.6064 8.13705 14.6533 7.99264 14.6533C7.84824 14.6533 7.70775 14.6064 7.59233 14.5196C6.35344 13.4499 2.66406 9.98631 2.66406 6.66061C2.66406 5.24738 3.22547 3.89204 4.22477 2.89274C5.22407 1.89343 6.57942 1.33203 7.99264 1.33203C9.40587 1.33203 10.7612 1.89343 11.7605 2.89274C12.7598 3.89204 13.3212 5.24738 13.3212 6.66061Z" stroke="#99A1AF" stroke-width="1.33215" stroke-linecap="round" stroke-linejoin="round"/>
<path d="M7.99334 8.65855C9.09692 8.65855 9.99155 7.76391 9.99155 6.66033C9.99155 5.55674 9.09692 4.66211 7.99334 4.66211C6.88975 4.66211 5.99512 5.55674 5.99512 6.66033C5.99512 7.76391 6.88975 8.65855 7.99334 8.65855Z" stroke="#99A1AF" stroke-width="1.33215" stroke-linecap="round" stroke-linejoin="round"/>
</g>
<defs>
<clipPath id="clip0_3591_8161">
<rect width="15.9857" height="15.9857" fill="white"/>
</clipPath>
</defs>
</svg>
