<svg width="26" height="26" viewBox="0 0 26 26" fill="none" xmlns="http://www.w3.org/2000/svg">
<path d="M19.0602 13.6771C19.0696 12.8479 19.2895 12.0347 19.6992 11.3137C20.1088 10.5927 20.6949 9.98755 21.4024 9.555C20.953 8.91477 20.3612 8.38747 19.6736 8.01453C18.986 7.64159 18.2213 7.43318 17.4396 7.40566C15.7517 7.2345 14.1462 8.39908 13.2904 8.39908C12.4356 8.39908 11.1151 7.43058 9.71539 7.45658C8.79682 7.48287 7.9008 7.74716 7.11501 8.22361C6.32923 8.70006 5.68058 9.37234 5.23255 10.1747C3.32264 13.4897 4.74505 18.4004 6.60514 21.0903C7.51514 22.4055 8.60172 23.8864 10.0263 23.8333C11.4 23.7792 11.9178 22.945 13.5764 22.945C15.2339 22.945 15.7008 23.8333 17.1514 23.8062C18.6291 23.7792 19.5661 22.464 20.4686 21.1445C21.1142 20.1947 21.6192 19.1567 21.9679 18.0624C21.1082 17.6953 20.3747 17.0845 19.858 16.3054C19.3413 15.5263 19.064 14.613 19.0602 13.6782V13.6771Z" fill="#12173A"/>
<path d="M16.4844 5.45998C17.5218 4.24803 18.0361 2.67401 17.9144 1.08331C16.351 1.23453 14.905 1.97886 13.8735 3.16331L13.8519 3.21423C12.8144 4.42617 12.3001 6.0002 12.4219 7.5909C13.9852 7.43968 15.4312 6.69535 16.4627 5.5109L16.4844 5.45998Z" fill="#12173A"/>
</svg>
