<svg width="18" height="18" viewBox="0 0 18 18" fill="none" xmlns="http://www.w3.org/2000/svg">
<path fill-rule="evenodd" clip-rule="evenodd" d="M6.17091 15.8694C4.94617 15.8694 3.79417 15.3924 2.92792 14.5261C1.13991 12.7381 1.13991 9.82811 2.92792 8.04014L9.04416 1.92383L9.99893 2.87934L3.88266 8.99484C2.62118 10.2571 2.62118 12.3098 3.88266 13.5713C4.49392 14.1826 5.30691 14.5193 6.17091 14.5193C7.03491 14.5193 7.84793 14.1826 8.45916 13.5713L14.5102 7.52032C15.2624 6.76808 15.2624 5.54482 14.5102 4.79258C13.7812 4.06284 12.5099 4.06509 11.7824 4.79184L5.85668 10.7131C5.73216 10.8376 5.66392 11.0033 5.66392 11.1796C5.66392 11.3559 5.73216 11.5216 5.85742 11.6461C6.10643 11.8973 6.54216 11.8958 6.79117 11.6461L11.7659 6.67207L12.7207 7.62758L7.74669 12.6016C6.96143 13.3853 5.68642 13.3838 4.90268 12.6016C4.11891 11.8178 4.11891 10.5413 4.90268 9.75833L10.8284 3.83788C11.4464 3.21913 12.2706 2.87786 13.1467 2.87786C14.0219 2.87786 14.8454 3.21835 15.4656 3.83788C16.7436 5.11661 16.7436 7.19712 15.4656 8.47586L9.41393 14.5261C8.54768 15.3924 7.39642 15.8694 6.17091 15.8694Z" fill="black"/>
</svg>
