<svg width="24" height="24" viewBox="0 0 24 24" fill="none" xmlns="http://www.w3.org/2000/svg">
<path fill-rule="evenodd" clip-rule="evenodd" d="M14.0617 5.6201C11.6963 5.37305 9.31262 5.35463 6.9437 5.5651L5.3617 5.7061C4.72689 5.76303 4.12978 6.03222 3.66675 6.4702C3.20373 6.90819 2.9018 7.48943 2.8097 8.1201C2.43323 10.6931 2.43323 13.3071 2.8097 15.8801C2.90201 16.5109 3.20414 17.0921 3.66733 17.5301C4.13052 17.9681 4.72777 18.2372 5.3627 18.2941L6.9447 18.4341C9.31359 18.6449 11.6973 18.6268 14.0627 18.3801L14.6707 18.3161C15.2742 18.2528 15.8417 17.9981 16.2902 17.5894C16.7387 17.1806 17.0448 16.6392 17.1637 16.0441L20.2107 17.6621C20.3201 17.7202 20.4422 17.7503 20.566 17.7497C20.6899 17.7492 20.8117 17.7179 20.9206 17.6588C21.0294 17.5997 21.1219 17.5145 21.1898 17.4109C21.2577 17.3073 21.2989 17.1885 21.3097 17.0651L21.3347 16.7811C21.6123 13.5995 21.6123 10.3997 21.3347 7.2181L21.3097 6.9341C21.2988 6.81064 21.2575 6.69181 21.1895 6.58822C21.1215 6.48462 21.0288 6.3995 20.9199 6.34046C20.8109 6.28142 20.689 6.25031 20.5651 6.24989C20.4412 6.24948 20.3191 6.27979 20.2097 6.3381L17.1637 7.9561C17.0448 7.36103 16.7387 6.81956 16.2902 6.41081C15.8417 6.00205 15.2742 5.74742 14.6707 5.6841L14.0617 5.6201ZM7.0777 7.0591C9.34973 6.85614 11.6361 6.87389 13.9047 7.1121L14.5127 7.1761C14.8098 7.20755 15.0879 7.33694 15.3034 7.54387C15.5188 7.75081 15.6593 8.02354 15.7027 8.3191C16.0607 10.7601 16.0607 13.2391 15.7027 15.6811C15.6593 15.9767 15.5188 16.2494 15.3034 16.4563C15.0879 16.6633 14.8098 16.7926 14.5127 16.8241L13.9047 16.8881C11.6361 17.1263 9.34973 17.1441 7.0777 16.9411L5.4957 16.7991C5.19671 16.7724 4.91542 16.6458 4.69717 16.4397C4.47893 16.2337 4.33645 15.9601 4.2927 15.6631C3.93727 13.234 3.93727 10.7662 4.2927 8.3371C4.33607 8.03988 4.47841 7.76597 4.69671 7.55964C4.91501 7.35332 5.1965 7.22665 5.4957 7.2001L7.0777 7.0591ZM17.3597 9.5501C17.5087 11.1801 17.5087 12.8201 17.3597 14.4501L19.9067 15.8031C20.0889 13.271 20.0889 10.7292 19.9067 8.1971L17.3597 9.5501Z" fill="#4B5563"/>
</svg>
