<svg width="18" height="15" viewBox="0 0 18 15" fill="none" xmlns="http://www.w3.org/2000/svg">
<path d="M8.18187 7.49945C8.18187 7.6264 8.13015 7.74816 8.03809 7.83793C7.94602 7.9277 7.82116 7.97814 7.69096 7.97814H3.76366C3.63346 7.97814 3.5086 7.9277 3.41653 7.83793C3.32447 7.74816 3.27275 7.6264 3.27275 7.49945C3.27275 7.37249 3.32447 7.25073 3.41653 7.16096C3.5086 7.07119 3.63346 7.02076 3.76366 7.02076H7.69096C7.82116 7.02076 7.94602 7.07119 8.03809 7.16096C8.13015 7.25073 8.18187 7.37249 8.18187 7.49945ZM7.69096 4.46776H3.76366C3.63346 4.46776 3.5086 4.51819 3.41653 4.60796C3.32447 4.69773 3.27275 4.81949 3.27275 4.94644C3.27275 5.0734 3.32447 5.19516 3.41653 5.28493C3.5086 5.3747 3.63346 5.42513 3.76366 5.42513H7.69096C7.82116 5.42513 7.94602 5.3747 8.03809 5.28493C8.13015 5.19516 8.18187 5.0734 8.18187 4.94644C8.18187 4.81949 8.13015 4.69773 8.03809 4.60796C7.94602 4.51819 7.82116 4.46776 7.69096 4.46776ZM16.691 9.46366V14.5202C16.6912 14.6043 16.6687 14.687 16.6257 14.7599C16.5827 14.8329 16.5207 14.8934 16.4461 14.9356C16.3714 14.9777 16.2867 15 16.2004 15C16.1141 15 16.0294 14.9779 15.9546 14.9359L13.9092 13.795L11.8637 14.9359C11.789 14.9779 11.7042 15 11.618 15C11.5317 15 11.447 14.9777 11.3723 14.9356C11.2976 14.8934 11.2357 14.8329 11.1927 14.7599C11.1497 14.687 11.1271 14.6043 11.1273 14.5202V12.4459H1.14546C0.841667 12.4459 0.550314 12.3282 0.335498 12.1187C0.120682 11.9093 0 11.6252 0 11.329V1.11694C0 0.820708 0.120682 0.536611 0.335498 0.327144C0.550314 0.117677 0.841667 0 1.14546 0H15.5456C15.8493 0 16.1407 0.117677 16.3555 0.327144C16.5703 0.536611 16.691 0.820708 16.691 1.11694V3.62048C17.1038 3.99325 17.4332 4.44519 17.6585 4.94795C17.8837 5.45071 18 5.99343 18 6.54207C18 7.09071 17.8837 7.63343 17.6585 8.13619C17.4332 8.63895 17.1038 9.09089 16.691 9.46366ZM13.9092 3.51038C13.2943 3.51038 12.6931 3.68818 12.1819 4.02131C11.6706 4.35444 11.2721 4.82792 11.0367 5.38189C10.8014 5.93586 10.7398 6.54543 10.8598 7.13352C10.9798 7.72162 11.2759 8.26181 11.7107 8.6858C12.1455 9.10979 12.6995 9.39853 13.3026 9.51551C13.9057 9.63249 14.5309 9.57245 15.099 9.34299C15.6671 9.11353 16.1527 8.72495 16.4943 8.22639C16.8359 7.72783 17.0183 7.14168 17.0183 6.54207C17.0183 5.73802 16.6907 4.96689 16.1077 4.39834C15.5246 3.82979 14.7338 3.51038 13.9092 3.51038ZM11.1273 11.4885V9.46366C10.411 8.8118 9.95842 7.93089 9.85186 6.98115C9.7453 6.0314 9.99186 5.07591 10.5467 4.28843C11.1015 3.50096 11.9278 2.93382 12.8752 2.69016C13.8226 2.44649 14.8282 2.54249 15.7092 2.96069V1.11694C15.7092 1.07462 15.692 1.03403 15.6613 1.00411C15.6306 0.974187 15.589 0.957376 15.5456 0.957376H1.14546C1.10206 0.957376 1.06044 0.974187 1.02975 1.00411C0.999065 1.03403 0.981825 1.07462 0.981825 1.11694V11.329C0.981825 11.3713 0.999065 11.4119 1.02975 11.4418C1.06044 11.4717 1.10206 11.4885 1.14546 11.4885H11.1273ZM15.7092 10.1235C15.149 10.3917 14.5333 10.5312 13.9092 10.5312C13.2851 10.5312 12.6693 10.3917 12.1092 10.1235V13.6953L13.6637 12.828C13.7384 12.786 13.823 12.7639 13.9092 12.7639C13.9954 12.7639 14.08 12.786 14.1546 12.828L15.7092 13.6953V10.1235Z" fill="#FF5F1F"/>
</svg>
