<svg width="16" height="16" viewBox="0 0 16 16" fill="none" xmlns="http://www.w3.org/2000/svg">
<g clip-path="url(#clip0_3591_8153)">
<path d="M14.6532 11.2699V13.2681C14.6539 13.4536 14.6159 13.6372 14.5416 13.8072C14.4673 13.9772 14.3583 14.1297 14.2216 14.2551C14.0849 14.3806 13.9235 14.476 13.7478 14.5355C13.5721 14.5949 13.3859 14.617 13.2011 14.6003C11.1515 14.3776 9.18273 13.6772 7.45294 12.5554C5.84359 11.5328 4.47914 10.1683 3.4565 8.55898C2.33082 6.82134 1.63029 4.84296 1.41166 2.78413C1.39501 2.59994 1.4169 2.4143 1.47593 2.23904C1.53496 2.06377 1.62984 1.90271 1.75453 1.76612C1.87921 1.62953 2.03097 1.5204 2.20015 1.44568C2.36932 1.37095 2.5522 1.33227 2.73714 1.3321H4.73536C5.05861 1.32891 5.37199 1.44338 5.61708 1.65416C5.86218 1.86495 6.02226 2.15766 6.0675 2.47774C6.15184 3.11721 6.30826 3.7451 6.53376 4.34941C6.62337 4.58781 6.64277 4.8469 6.58964 5.09599C6.53652 5.34508 6.4131 5.57372 6.23402 5.75482L5.38811 6.60073C6.3363 8.26827 7.717 9.64898 9.38455 10.5972L10.2305 9.75125C10.4116 9.57217 10.6402 9.44876 10.8893 9.39563C11.1384 9.34251 11.3975 9.36191 11.6359 9.45152C12.2402 9.67702 12.8681 9.83343 13.5075 9.91777C13.8311 9.96342 14.1266 10.1264 14.3378 10.3757C14.5491 10.625 14.6613 10.9432 14.6532 11.2699Z" stroke="#99A1AF" stroke-width="1.33215" stroke-linecap="round" stroke-linejoin="round"/>
</g>
<defs>
<clipPath id="clip0_3591_8153">
<rect width="15.9857" height="15.9857" fill="white"/>
</clipPath>
</defs>
</svg>
