<svg width="18" height="18" viewBox="0 0 18 18" fill="none" xmlns="http://www.w3.org/2000/svg">
<rect x="0.5" y="0.5" width="17" height="17" rx="8.5" fill="white"/>
<rect x="0.5" y="0.5" width="17" height="17" rx="8.5" stroke="#E9E9E9"/>
<path d="M12.1504 5.85535C11.9554 5.66035 11.6404 5.66035 11.4454 5.85535L9.00035 8.29535L6.55535 5.85035C6.36035 5.65535 6.04535 5.65535 5.85035 5.85035C5.65535 6.04535 5.65535 6.36035 5.85035 6.55535L8.29535 9.00035L5.85035 11.4454C5.65535 11.6404 5.65535 11.9554 5.85035 12.1504C6.04535 12.3454 6.36035 12.3454 6.55535 12.1504L9.00035 9.70535L11.4454 12.1504C11.6404 12.3454 11.9554 12.3454 12.1504 12.1504C12.3454 11.9554 12.3454 11.6404 12.1504 11.4454L9.70535 9.00035L12.1504 6.55535C12.3404 6.36535 12.3404 6.04535 12.1504 5.85535Z" fill="#1F1F1F"/>
</svg>
