<svg width="12" height="12" viewBox="0 0 12 12" fill="none" xmlns="http://www.w3.org/2000/svg">
<path d="M9.15035 2.85535C8.95535 2.66035 8.64035 2.66035 8.44535 2.85535L6.00035 5.29535L3.55535 2.85035C3.36035 2.65535 3.04535 2.65535 2.85035 2.85035C2.65535 3.04535 2.65535 3.36035 2.85035 3.55535L5.29535 6.00035L2.85035 8.44535C2.65535 8.64035 2.65535 8.95535 2.85035 9.15035C3.04535 9.34535 3.36035 9.34535 3.55535 9.15035L6.00035 6.70535L8.44535 9.15035C8.64035 9.34535 8.95535 9.34535 9.15035 9.15035C9.34535 8.95535 9.34535 8.64035 9.15035 8.44535L6.70535 6.00035L9.15035 3.55535C9.34035 3.36535 9.34035 3.04535 9.15035 2.85535Z" fill="#1F1F1F"/>
</svg>
