<svg width="50" height="50" viewBox="0 0 50 50" fill="none" xmlns="http://www.w3.org/2000/svg">
<rect width="50" height="50" rx="25" fill="white"/>
<rect x="0.5" y="0.5" width="49" height="49" rx="24.5" stroke="black" stroke-opacity="0.05"/>
<path d="M30.98 24.29V28.29C30.98 28.55 30.97 28.8 30.94 29.04C30.71 31.74 29.12 33.08 26.19 33.08H25.79C25.54 33.08 25.3 33.2 25.15 33.4L23.95 35C23.42 35.71 22.56 35.71 22.03 35L20.83 33.4C20.7 33.23 20.41 33.08 20.19 33.08H19.79C16.6 33.08 15 32.29 15 28.29V24.29C15 21.36 16.35 19.77 19.04 19.54C19.28 19.51 19.53 19.5 19.79 19.5H26.19C29.38 19.5 30.98 21.1 30.98 24.29Z" stroke="#111827" stroke-width="1.3" stroke-miterlimit="10" stroke-linecap="round" stroke-linejoin="round"/>
<path d="M34.98 20.29V24.29C34.98 27.23 33.63 28.81 30.94 29.04C30.97 28.8 30.98 28.55 30.98 28.29V24.29C30.98 21.1 29.38 19.5 26.19 19.5H19.79C19.53 19.5 19.28 19.51 19.04 19.54C19.27 16.85 20.86 15.5 23.79 15.5H30.19C33.38 15.5 34.98 17.1 34.98 20.29Z" stroke="#111827" stroke-width="1.3" stroke-miterlimit="10" stroke-linecap="round" stroke-linejoin="round"/>
<path d="M26.4955 26.75H26.5045" stroke="#111827" stroke-width="1.3" stroke-linecap="round" stroke-linejoin="round"/>
<path d="M22.9955 26.75H23.0045" stroke="#111827" stroke-width="1.3" stroke-linecap="round" stroke-linejoin="round"/>
<path d="M19.4955 26.75H19.5045" stroke="#111827" stroke-width="1.3" stroke-linecap="round" stroke-linejoin="round"/>
</svg>
