<svg width="55" height="55" viewBox="0 0 55 55" fill="none" xmlns="http://www.w3.org/2000/svg">
<rect width="55" height="55" rx="27.5" fill="#EDF0F1"/>
<path d="M27.0993 28.415C28.8924 28.415 30.3461 26.974 30.3461 25.1965C30.3461 23.419 28.8924 21.978 27.0993 21.978C25.3062 21.978 23.8525 23.419 23.8525 25.1965C23.8525 26.974 25.3062 28.415 27.0993 28.415Z" fill="#FF5F1F"/>
<path d="M26.7773 26.4243C26.7043 26.4245 26.6332 26.4011 26.5747 26.3576L26.5711 26.355L25.8081 25.7759C25.7367 25.7217 25.69 25.6416 25.6782 25.5532C25.6664 25.4649 25.6905 25.3755 25.7452 25.3047C25.7999 25.234 25.8807 25.1877 25.9698 25.176C26.0589 25.1643 26.1491 25.1882 26.2205 25.2424L26.7147 25.618L27.8826 24.1081C27.9373 24.0374 28.0181 23.9911 28.1072 23.9795C28.1964 23.9678 28.2865 23.9917 28.3579 24.0459L28.3506 24.0557L28.358 24.0461C28.4293 24.1004 28.4759 24.1805 28.4877 24.2688C28.4995 24.3571 28.4754 24.4464 28.4208 24.5172L27.0471 26.2932C27.0153 26.3341 26.9744 26.3672 26.9276 26.3899C26.8809 26.4127 26.8294 26.4245 26.7773 26.4243Z" fill="white"/>
<path d="M5.43519 30.3274L3.35093 37.39C3.28604 37.6099 3.27117 37.8413 3.3074 38.0676C3.34364 38.2939 3.43007 38.5094 3.56047 38.6985C3.69088 38.8877 3.862 39.0458 4.0615 39.1615C4.261 39.2772 4.48391 39.3476 4.71416 39.3675L6.9885 39.5649L5.43519 30.3274Z" fill="#F2F2F2"/>
<path opacity="0.1" d="M5.43519 30.3274L3.35093 37.39C3.28604 37.6099 3.27117 37.8413 3.3074 38.0676C3.34364 38.2939 3.43007 38.5094 3.56047 38.6985C3.69088 38.8877 3.862 39.0458 4.0615 39.1615C4.261 39.2772 4.48391 39.3476 4.71416 39.3675L6.9885 39.5649L5.43519 30.3274Z" fill="#4B5563"/>
<path d="M24.353 29.0245L21.5651 33.595L20.2524 31.9466L22.8179 27.965C22.7267 27.5017 22.8371 26.9641 23.1633 26.4998C23.7339 25.6873 24.7464 25.4083 25.4247 25.8765C26.103 26.3448 26.1902 27.3828 25.6195 28.1952C25.2934 28.6595 24.823 28.9487 24.3531 29.0247L24.353 29.0245Z" fill="#FFB6B6"/>
<path d="M6.98456 40L6.63359 41.3873L6.64547 42.7939C6.64547 42.7939 4.33797 46.0207 5.18806 53L16 52.8425L14.7122 41.6118L6.98456 40Z" fill="#090814"/>
<path d="M8.13281 24.4632C8.13286 23.927 8.28283 23.4013 8.56606 22.9445C8.84929 22.4878 9.2547 22.1177 9.73727 21.8755C10.2198 21.6333 10.7607 21.5285 11.2997 21.5726C11.8388 21.6167 12.355 21.808 12.791 22.1254C13.227 22.4427 13.5657 22.8737 13.7695 23.3703C13.9734 23.8669 14.0343 24.4099 13.9457 24.9388C13.8571 25.4677 13.6223 25.962 13.2674 26.3666C12.9125 26.7713 12.4514 27.0705 11.9354 27.2311L11.4991 27.5795L12.2823 30.2967L11.3697 30.9366L8.48613 28.5547C8.48613 28.5547 9.10898 27.7683 9.44315 26.8813C9.04011 26.617 8.70947 26.2578 8.48079 25.8358C8.25212 25.4139 8.13256 24.9423 8.13281 24.4633V24.4632Z" fill="#FFB6B6"/>
<path d="M22.2377 28.8796C21.2048 28.8639 19.2951 32.1501 19.2951 32.1501L17.7263 31.6002L14.5004 30.468L12.0278 29.4592L12.0387 29.5333C12.0289 29.51 12.0184 29.4867 12.0067 29.463C11.7468 28.932 10.9917 28.3073 8.84805 28.4312L7.83844 29.2211L7.70118 29.3293C7.26816 29.3062 6.83505 29.3731 6.42962 29.5256C5.97047 29.7086 5.51139 30.0499 5.29421 30.688C5.18169 31.0171 5.18169 31.6975 5.2492 32.562C5.49341 35.692 6.63146 42.3461 6.63146 42.3461L13.8161 41.4033L14.3461 41.4156C14.3461 41.4156 14.4091 40.6983 14.4653 39.7591C14.5002 39.208 14.5317 38.5825 14.5497 37.9798C14.5621 37.5381 14.5655 37.1097 14.5576 36.7328C14.5565 36.7095 14.5565 36.6862 14.5554 36.6625C14.534 35.9742 14.4642 35.4756 14.3144 35.421C14.3144 35.421 14.7792 35.4087 15.4499 35.3842C17.0703 35.3239 19.8948 35.1889 20.2975 34.9714C20.8669 34.6646 23.8525 30.5474 23.8525 30.5474C23.8525 30.5474 23.2718 28.8965 22.2377 28.8797V28.8796Z" fill="#E6E6E6"/>
<path d="M14.0714 24.6772C13.8504 23.6055 13.7444 23.0563 12.941 22.298C12.7503 22.3247 12.9914 23.3049 11.9403 24.6702C10.4125 26.6549 10.5647 24.8351 10.1128 25.4465C10.0148 25.5793 9.99356 26.0581 10.0258 26.2228C10.1532 26.8738 10.9072 26.2381 10.1128 28.4654C9.99468 28.6386 9.85542 28.5965 9.67802 28.5947C9.66427 28.5947 9.75441 28.5773 9.41695 28.5085C9.25589 28.4755 9.03049 28.4366 8.76026 28.3914C5.62103 27.8672 4.51253 23.9406 6.93871 21.8978C7.49105 21.433 8.03258 21.0807 8.50295 20.9175C9.91976 20.4259 13.1478 20.7455 13.7678 22.3408C14.0597 23.0833 14.164 23.8853 14.0715 24.6769L14.0714 24.6772Z" fill="#010102"/>
<path d="M7.60567 30.9804C8.84222 30.9804 9.84465 29.9867 9.84465 28.761C9.84465 27.5352 8.84222 26.5415 7.60567 26.5415C6.36912 26.5415 5.3667 27.5352 5.3667 28.761C5.3667 29.9867 6.36912 30.9804 7.60567 30.9804Z" fill="#010102"/>
<path d="M42.349 16.1438C42.7376 16.1438 43.0526 15.8316 43.0526 15.4464C43.0526 15.0613 42.7376 14.749 42.349 14.749C41.9605 14.749 41.6455 15.0613 41.6455 15.4464C41.6455 15.8316 41.9605 16.1438 42.349 16.1438Z" fill="#FF5F1F"/>
<path d="M42.2793 15.7124C42.2635 15.7124 42.2481 15.7073 42.2354 15.6979L42.2347 15.6974L42.0693 15.5719C42.0617 15.5661 42.0552 15.5588 42.0504 15.5505C42.0456 15.5423 42.0424 15.5331 42.0412 15.5236C42.0399 15.5141 42.0405 15.5045 42.043 15.4953C42.0455 15.486 42.0498 15.4774 42.0557 15.4698C42.0615 15.4622 42.0689 15.4558 42.0772 15.451C42.0856 15.4462 42.0948 15.4431 42.1044 15.4419C42.1139 15.4406 42.1236 15.4412 42.133 15.4437C42.1423 15.4462 42.151 15.4504 42.1587 15.4563L42.2657 15.5378L42.5188 15.2106C42.5247 15.203 42.532 15.1967 42.5404 15.1919C42.5487 15.1871 42.5579 15.184 42.5675 15.1828C42.5771 15.1815 42.5868 15.1821 42.5961 15.1846C42.6054 15.1871 42.6142 15.1914 42.6218 15.1972C42.6373 15.2089 42.6474 15.2263 42.65 15.2454C42.6525 15.2646 42.6473 15.284 42.6355 15.2993L42.3378 15.6841C42.3309 15.693 42.322 15.7002 42.3119 15.7051C42.3018 15.71 42.2906 15.7126 42.2793 15.7126V15.7124Z" fill="white"/>
<path d="M42.349 18.1824C42.7376 18.1824 43.0526 17.8702 43.0526 17.485C43.0526 17.0998 42.7376 16.7876 42.349 16.7876C41.9605 16.7876 41.6455 17.0998 41.6455 17.485C41.6455 17.8702 41.9605 18.1824 42.349 18.1824Z" fill="#FF5F1F"/>
<path d="M42.2793 17.751C42.2635 17.751 42.2481 17.7459 42.2354 17.7365L42.2347 17.7359L42.0693 17.6105C42.0617 17.6046 42.0552 17.5974 42.0504 17.5891C42.0456 17.5808 42.0424 17.5717 42.0412 17.5622C42.0399 17.5527 42.0405 17.5431 42.043 17.5338C42.0455 17.5246 42.0498 17.5159 42.0557 17.5084C42.0615 17.5008 42.0689 17.4944 42.0772 17.4896C42.0856 17.4848 42.0948 17.4817 42.1044 17.4804C42.1139 17.4792 42.1236 17.4798 42.133 17.4823C42.1423 17.4848 42.151 17.489 42.1587 17.4948L42.2657 17.5764L42.5188 17.2492C42.5247 17.2416 42.532 17.2353 42.5404 17.2305C42.5487 17.2257 42.5579 17.2226 42.5675 17.2213C42.5771 17.2201 42.5868 17.2207 42.5961 17.2232C42.6054 17.2257 42.6142 17.2299 42.6218 17.2358C42.6373 17.2475 42.6474 17.2649 42.65 17.284C42.6525 17.3032 42.6473 17.3225 42.6355 17.3379L42.3378 17.7227C42.3309 17.7316 42.322 17.7388 42.3119 17.7437C42.3018 17.7486 42.2906 17.7512 42.2793 17.7511V17.751Z" fill="white"/>
<path d="M42.7275 20.5427C43.116 20.5427 43.431 20.2305 43.431 19.8453C43.431 19.4602 43.116 19.1479 42.7275 19.1479C42.3389 19.1479 42.0239 19.4602 42.0239 19.8453C42.0239 20.2305 42.3389 20.5427 42.7275 20.5427Z" fill="#FF5F1F"/>
<path d="M42.6577 20.1113C42.6419 20.1113 42.6265 20.1063 42.6138 20.0969L42.6131 20.0963L42.4477 19.9708C42.4401 19.965 42.4336 19.9577 42.4288 19.9495C42.424 19.9412 42.4208 19.932 42.4196 19.9226C42.4183 19.9131 42.4189 19.9034 42.4214 19.8942C42.4239 19.885 42.4282 19.8763 42.4341 19.8687C42.44 19.8611 42.4473 19.8547 42.4556 19.85C42.464 19.8452 42.4732 19.8421 42.4828 19.8408C42.4923 19.8395 42.5021 19.8402 42.5114 19.8426C42.5207 19.8451 42.5294 19.8494 42.5371 19.8552L42.6442 19.9367L42.8972 19.6096C42.9031 19.602 42.9104 19.5956 42.9188 19.5908C42.9271 19.586 42.9364 19.5829 42.9459 19.5817C42.9555 19.5804 42.9652 19.5811 42.9745 19.5835C42.9839 19.586 42.9926 19.5903 43.0002 19.5961C43.0157 19.6079 43.0258 19.6252 43.0283 19.6444C43.0309 19.6635 43.0257 19.6829 43.0138 19.6982L42.7161 20.0831C42.7093 20.0919 42.7004 20.0991 42.6903 20.104C42.6801 20.109 42.669 20.1115 42.6577 20.1115L42.6577 20.1113Z" fill="white"/>
<path d="M47.7229 22.8967C47.717 22.8967 47.713 22.8967 47.7117 22.8967H47.7229V22.7918H47.7143C47.731 22.7924 48.072 22.802 48.3861 22.4241C48.8543 21.861 49.2387 20.467 48.4116 17.0237C47.2996 12.3938 48.2271 8.30348 48.6775 6.7598C48.6996 6.68343 48.7036 6.60299 48.689 6.52484C48.6745 6.44669 48.6418 6.37297 48.5935 6.3095C48.5453 6.24603 48.4828 6.19455 48.411 6.15912C48.3393 6.1237 48.2602 6.10531 48.18 6.10539H37.4399C37.3583 6.1055 37.2778 6.12469 37.205 6.16141C37.1323 6.19812 37.0692 6.25133 37.0211 6.31671C36.8303 6.57685 36.5686 7.07667 36.4046 7.98038L36.3003 7.9618C36.4677 7.03846 36.7381 6.52396 36.9354 6.25515C36.9933 6.17637 37.0693 6.11225 37.1569 6.068C37.2446 6.02376 37.3416 6.00063 37.4399 6.00049H48.18C48.2766 6.00034 48.372 6.02249 48.4585 6.06517C48.545 6.10786 48.6203 6.16991 48.6785 6.24643C48.7366 6.32294 48.776 6.41182 48.7935 6.50602C48.811 6.60023 48.8062 6.69719 48.7794 6.78922C48.3313 8.32485 47.4086 12.394 48.5149 16.9996C49.3536 20.4912 48.9504 21.9157 48.4645 22.4954C48.1439 22.8773 47.7908 22.8967 47.7229 22.8967Z" fill="#E6E6E6"/>
<path d="M46.5769 24.8483C46.571 24.8483 46.567 24.8483 46.5658 24.8483H46.0495V24.7435H46.5684C46.5852 24.744 46.9261 24.7536 47.2402 24.3758C47.7083 23.8126 48.0927 22.4187 47.2657 18.9754C46.1537 14.3454 47.0811 10.2551 47.5315 8.71146C47.5537 8.63509 47.5577 8.55466 47.5431 8.4765C47.5285 8.39835 47.4958 8.32463 47.4476 8.26116C47.3993 8.19769 47.3369 8.14621 47.2651 8.11078C47.1933 8.07536 47.1142 8.05697 47.0341 8.05705H36.2939C36.2123 8.05716 36.1318 8.07635 36.059 8.11307C35.9863 8.14978 35.9232 8.20299 35.8751 8.26838C35.6843 8.52857 35.4227 9.02833 35.2587 9.93204L35.1543 9.91346C35.3217 8.99012 35.5921 8.47562 35.7894 8.20681C35.8474 8.12803 35.9233 8.06391 36.0109 8.01966C36.0986 7.97542 36.1956 7.95229 36.2939 7.95215H47.034C47.1306 7.952 47.226 7.97415 47.3125 8.01683C47.399 8.05952 47.4743 8.12157 47.5325 8.19809C47.5906 8.2746 47.63 8.36348 47.6475 8.45769C47.665 8.55189 47.6602 8.64885 47.6334 8.74088C47.1853 10.2765 46.2626 14.3456 47.3689 18.9512C48.2076 22.4429 47.8044 23.8673 47.3185 24.4471C46.9978 24.829 46.6448 24.8483 46.5769 24.8483Z" fill="#CCCCCC"/>
<path d="M45.7728 23.1649C44.4291 17.5713 45.5498 12.629 46.0943 10.7643C46.1267 10.6525 46.1325 10.5348 46.1111 10.4204C46.0898 10.3061 46.042 10.1982 45.9714 10.1053C45.9008 10.0124 45.8094 9.93697 45.7044 9.88507C45.5995 9.83316 45.4837 9.80615 45.3664 9.80615H32.3223C32.2029 9.80623 32.0852 9.83423 31.9788 9.88787C31.8723 9.94151 31.7801 10.0193 31.7097 10.1149C31.1831 10.8326 30.0905 13.2129 31.3109 19.7989C31.9635 23.3222 31.9538 25.7245 31.7406 27.3069C31.621 28.1981 31.4365 28.8288 31.2692 29.2543L31.2516 29.2994C31.2164 29.3854 31.198 29.4774 31.1975 29.5703C31.1963 29.6752 31.2175 29.7791 31.2597 29.8753C31.302 29.9714 31.3643 30.0576 31.4426 30.1282C31.4937 30.1756 31.5515 30.2153 31.6142 30.2462C31.6663 30.2725 31.7213 30.2925 31.7782 30.3057C31.8361 30.3197 31.8956 30.3267 31.9552 30.3266H44.7976C44.7993 30.3266 44.8035 30.3271 44.8111 30.3271C44.8934 30.3271 45.3223 30.3035 45.7116 29.839C46.3015 29.135 46.7913 27.4055 45.7728 23.1649ZM45.6164 29.753C45.2348 30.2122 44.8209 30.2004 44.8008 30.1999H31.9547C31.8518 30.1998 31.7505 30.1748 31.6597 30.127C31.5689 30.0793 31.4912 30.0102 31.4335 29.9258C31.3828 29.8528 31.3487 29.7697 31.3337 29.6823C31.3186 29.595 31.3229 29.5054 31.3464 29.4199C31.3525 29.395 31.3605 29.3706 31.3702 29.3469C31.5612 28.8603 31.7028 28.356 31.7928 27.8416C32.0981 26.192 32.1549 23.6466 31.4373 19.7761C30.2262 13.2389 31.2971 10.8946 31.8133 10.1902C31.8719 10.111 31.9485 10.0465 32.0369 10.0019C32.1253 9.95742 32.223 9.93413 32.3221 9.93395H45.3664C45.4637 9.93388 45.5597 9.95624 45.6468 9.99926C45.7339 10.0423 45.8097 10.1048 45.8683 10.1818C45.9269 10.2589 45.9666 10.3484 45.9843 10.4432C46.002 10.5381 45.9972 10.6357 45.9703 10.7284C45.4232 12.6033 44.297 17.5714 45.6478 23.1944C46.6522 27.376 46.1852 29.069 45.6164 29.753Z" fill="#3F3D56"/>
<path d="M39.5761 15.897H32.8556C32.7875 15.8977 32.7199 15.8851 32.6568 15.8597C32.5937 15.8344 32.5362 15.7969 32.4878 15.7494C32.4394 15.7019 32.4009 15.6454 32.3747 15.5831C32.3485 15.5208 32.335 15.4539 32.335 15.3864C32.335 15.3189 32.3485 15.252 32.3747 15.1897C32.4009 15.1274 32.4394 15.0709 32.4878 15.0234C32.5362 14.9759 32.5937 14.9384 32.6568 14.9131C32.7199 14.8877 32.7875 14.875 32.8556 14.8758H39.5761C39.7118 14.8772 39.8414 14.9316 39.9368 15.0272C40.0322 15.1228 40.0858 15.2519 40.0858 15.3864C40.0858 15.5209 40.0322 15.6499 39.9368 15.7455C39.8414 15.8411 39.7118 15.8956 39.5761 15.897Z" fill="#E6E6E6"/>
<path d="M39.5758 18.0965H32.8553C32.7197 18.095 32.5901 18.0406 32.4946 17.945C32.3992 17.8494 32.3457 17.7203 32.3457 17.5859C32.3457 17.4514 32.3992 17.3223 32.4946 17.2267C32.5901 17.1311 32.7197 17.0767 32.8553 17.0752H39.5758C39.644 17.0745 39.7115 17.0872 39.7747 17.1125C39.8378 17.1379 39.8952 17.1754 39.9437 17.2228C39.9921 17.2703 40.0305 17.3269 40.0568 17.3892C40.083 17.4515 40.0965 17.5183 40.0965 17.5859C40.0965 17.6534 40.083 17.7202 40.0568 17.7825C40.0305 17.8448 39.9921 17.9014 39.9437 17.9489C39.8952 17.9963 39.8378 18.0338 39.7747 18.0592C39.7115 18.0845 39.644 18.0972 39.5758 18.0965Z" fill="#E6E6E6"/>
<path d="M40.1171 20.3494H33.3966C33.3285 20.3501 33.2609 20.3375 33.1978 20.3121C33.1347 20.2868 33.0772 20.2493 33.0288 20.2018C32.9804 20.1543 32.942 20.0978 32.9157 20.0355C32.8895 19.9731 32.876 19.9063 32.876 19.8388C32.876 19.7713 32.8895 19.7044 32.9157 19.6421C32.942 19.5798 32.9804 19.5233 33.0288 19.4758C33.0772 19.4283 33.1347 19.3908 33.1978 19.3654C33.2609 19.3401 33.3285 19.3274 33.3966 19.3282H40.1171C40.1852 19.3274 40.2528 19.3401 40.316 19.3654C40.3791 19.3908 40.4365 19.4283 40.4849 19.4758C40.5334 19.5233 40.5718 19.5798 40.598 19.6421C40.6243 19.7044 40.6378 19.7713 40.6378 19.8388C40.6378 19.9063 40.6243 19.9731 40.598 20.0355C40.5718 20.0978 40.5334 20.1543 40.4849 20.2018C40.4365 20.2493 40.3791 20.2868 40.316 20.3121C40.2528 20.3375 40.1852 20.3501 40.1171 20.3494Z" fill="#E6E6E6"/>
<path d="M40.496 22.71H33.7755C33.7074 22.7107 33.6398 22.698 33.5767 22.6727C33.5136 22.6474 33.4561 22.6099 33.4077 22.5624C33.3593 22.5149 33.3209 22.4584 33.2946 22.3961C33.2684 22.3337 33.2549 22.2669 33.2549 22.1994C33.2549 22.1319 33.2684 22.065 33.2946 22.0027C33.3209 21.9404 33.3593 21.8839 33.4077 21.8364C33.4561 21.7889 33.5136 21.7514 33.5767 21.726C33.6398 21.7007 33.7074 21.688 33.7755 21.6887H40.496C40.5641 21.688 40.6317 21.7007 40.6949 21.726C40.758 21.7514 40.8154 21.7889 40.8639 21.8364C40.9123 21.8839 40.9507 21.9404 40.9769 22.0027C41.0032 22.065 41.0167 22.1319 41.0167 22.1994C41.0167 22.2669 41.0032 22.3337 40.9769 22.3961C40.9507 22.4584 40.9123 22.5149 40.8639 22.5624C40.8154 22.6099 40.758 22.6474 40.6949 22.6727C40.6317 22.698 40.5641 22.7107 40.496 22.71Z" fill="#E6E6E6"/>
<path d="M40.4986 11.9321H35.6693C35.5336 11.9307 35.404 11.8763 35.3086 11.7807C35.2132 11.6851 35.1597 11.556 35.1597 11.4215C35.1597 11.287 35.2132 11.158 35.3086 11.0624C35.404 10.9668 35.5336 10.9123 35.6693 10.9109H40.4986C40.6342 10.9123 40.7639 10.9668 40.8593 11.0624C40.9547 11.158 41.0082 11.287 41.0082 11.4215C41.0082 11.556 40.9547 11.6851 40.8593 11.7807C40.7639 11.8763 40.6342 11.9307 40.4986 11.9321Z" fill="#FF5F1F"/>
<path d="M43.1606 22.8967C43.5491 22.8967 43.8641 22.5845 43.8641 22.1993C43.8641 21.8142 43.5491 21.502 43.1606 21.502C42.772 21.502 42.457 21.8142 42.457 22.1993C42.457 22.5845 42.772 22.8967 43.1606 22.8967Z" fill="#E6E6E6"/>
<path d="M40.8207 25.0166H34.1002C34.0321 25.0174 33.9646 25.0047 33.9014 24.9794C33.8383 24.954 33.7808 24.9165 33.7324 24.869C33.684 24.8215 33.6456 24.765 33.6193 24.7027C33.5931 24.6404 33.5796 24.5735 33.5796 24.506C33.5796 24.4385 33.5931 24.3716 33.6193 24.3093C33.6456 24.247 33.684 24.1905 33.7324 24.143C33.7808 24.0955 33.8383 24.058 33.9014 24.0327C33.9646 24.0073 34.0321 23.9947 34.1002 23.9954H40.8207C40.9564 23.9968 41.086 24.0513 41.1814 24.1469C41.2769 24.2425 41.3304 24.3715 41.3304 24.506C41.3304 24.6405 41.2769 24.7696 41.1814 24.8652C41.086 24.9608 40.9564 25.0152 40.8207 25.0166Z" fill="#E6E6E6"/>
<path d="M43.4853 25.2034C43.8738 25.2034 44.1888 24.8912 44.1888 24.506C44.1888 24.1208 43.8738 23.8086 43.4853 23.8086C43.0967 23.8086 42.7817 24.1208 42.7817 24.506C42.7817 24.8912 43.0967 25.2034 43.4853 25.2034Z" fill="#E6E6E6"/>
</svg>
