<svg width="44" height="44" viewBox="0 0 44 44" fill="none" xmlns="http://www.w3.org/2000/svg">
<path d="M0 22C0 9.84974 9.84974 0 22 0C34.1503 0 44 9.84974 44 22C44 34.1503 34.1503 44 22 44C9.84974 44 0 34.1503 0 22Z" fill="white" fill-opacity="0.2"/>
<path d="M30.6673 23.0832C30.6673 28.4998 26.8757 31.2082 22.369 32.779C22.133 32.859 21.8767 32.8551 21.6432 32.7682C17.1257 31.2082 13.334 28.4998 13.334 23.0832V15.4998C13.334 15.2125 13.4481 14.937 13.6513 14.7338C13.8544 14.5306 14.13 14.4165 14.4173 14.4165C16.584 14.4165 19.2923 13.1165 21.1773 11.4698C21.4068 11.2738 21.6988 11.166 22.0007 11.166C22.3025 11.166 22.5945 11.2738 22.824 11.4698C24.7198 13.1273 27.4173 14.4165 29.584 14.4165C29.8713 14.4165 30.1469 14.5306 30.35 14.7338C30.5532 14.937 30.6673 15.2125 30.6673 15.4998V23.0832Z" stroke="white" stroke-width="2" stroke-linecap="round" stroke-linejoin="round"/>
<path d="M18.75 22.0002L20.9167 24.1668L25.25 19.8335" stroke="white" stroke-width="2" stroke-linecap="round" stroke-linejoin="round"/>
</svg>
