<svg width="36" height="36" viewBox="0 0 36 36" fill="none" xmlns="http://www.w3.org/2000/svg">
<path d="M0 10C0 4.47716 4.47715 0 10 0H25.9843C31.5071 0 35.9843 4.47715 35.9843 10V25.9843C35.9843 31.5071 31.5072 35.9843 25.9843 35.9843H10C4.47716 35.9843 0 31.5072 0 25.9843V10Z" fill="white"/>
<g clip-path="url(#clip0_3591_8235)">
<path d="M24.6585 14.6592H16.3257C15.4053 14.6592 14.6592 15.4053 14.6592 16.3257V24.6585C14.6592 25.5789 15.4053 26.325 16.3257 26.325H24.6585C25.5789 26.325 26.325 25.5789 26.325 24.6585V16.3257C26.325 15.4053 25.5789 14.6592 24.6585 14.6592Z" stroke="#4A5565" stroke-width="1.66655" stroke-linecap="round" stroke-linejoin="round"/>
<path d="M11.3267 21.326C10.4101 21.326 9.66016 20.576 9.66016 19.6594V11.3267C9.66016 10.4101 10.4101 9.66016 11.3267 9.66016H19.6594C20.576 9.66016 21.326 10.4101 21.326 11.3267" stroke="#4A5565" stroke-width="1.66655" stroke-linecap="round" stroke-linejoin="round"/>
</g>
<defs>
<clipPath id="clip0_3591_8235">
<rect width="19.9986" height="19.9986" fill="white" transform="translate(7.99316 7.99316)"/>
</clipPath>
</defs>
</svg>
