<svg width="48" height="48" viewBox="0 0 48 48" fill="none" xmlns="http://www.w3.org/2000/svg">
<path d="M0 14C0 6.26801 6.26801 0 14 0H33.99C41.722 0 47.99 6.26801 47.99 14V33.99C47.99 41.722 41.722 47.99 33.99 47.99H14C6.26801 47.99 0 41.722 0 33.99V14Z" fill="#DBEAFE"/>
<path d="M31.9855 16.9961H15.9888C14.8845 16.9961 13.9893 17.8913 13.9893 18.9957V28.9936C13.9893 30.0979 14.8845 30.9932 15.9888 30.9932H31.9855C33.0898 30.9932 33.9851 30.0979 33.9851 28.9936V18.9957C33.9851 17.8913 33.0898 16.9961 31.9855 16.9961Z" stroke="#155DFC" stroke-width="1.99958" stroke-linecap="round" stroke-linejoin="round"/>
<path d="M13.9893 21.9951H33.9851" stroke="#155DFC" stroke-width="1.99958" stroke-linecap="round" stroke-linejoin="round"/>
</svg>
