<svg width="24" height="24" viewBox="0 0 24 24" fill="none" xmlns="http://www.w3.org/2000/svg">
<path fill-rule="evenodd" clip-rule="evenodd" d="M9.74525 18.2858C9.33659 18.1958 8.93659 18.0758 8.54525 17.9258C8.16365 17.7826 7.79882 17.5982 7.45725 17.3758C6.86309 16.9988 6.37025 16.4821 6.02179 15.8708C5.67334 15.2595 5.47986 14.5721 5.45825 13.8688C5.41266 12.4521 5.85382 11.0627 6.70825 9.93178C7.25276 9.17308 7.95914 8.54493 8.77625 8.09278C9.60315 7.65533 10.5114 7.3932 11.4443 7.32278C12.6844 7.25106 13.9177 7.55142 14.9861 8.18535C16.0544 8.81928 16.909 9.75788 17.4403 10.8808C17.7571 11.4115 17.9631 12.0009 18.046 12.6134C18.1288 13.226 18.0867 13.8489 17.9223 14.4447C17.7578 15.0406 17.4744 15.5969 17.089 16.0802C16.7037 16.5635 16.2245 16.9637 15.6803 17.2568C15.6352 17.2826 15.5957 17.3172 15.5641 17.3585C15.5326 17.3998 15.5096 17.447 15.4966 17.4973C15.4835 17.5476 15.4807 17.6 15.4882 17.6515C15.4957 17.7029 15.5134 17.7523 15.5403 17.7968C15.5651 17.8415 15.5988 17.8808 15.6392 17.9123C15.6796 17.9437 15.7259 17.9666 15.7754 17.9797C15.8249 17.9928 15.8766 17.9957 15.9272 17.9883C15.9779 17.981 16.0265 17.9634 16.0703 17.9368C19.2783 16.1768 19.6483 13.0298 18.4393 10.4008C17.8318 9.06364 16.8451 7.93428 15.6016 7.15281C14.3581 6.37134 12.9126 5.97215 11.4443 6.00478C10.3191 6.0791 9.22393 6.39966 8.23625 6.94378C7.01477 7.63246 6.01749 8.65838 5.36365 9.89885C4.70981 11.1393 4.42707 12.5419 4.54925 13.9388C4.59694 14.7736 4.84526 15.5847 5.27316 16.3031C5.70105 17.0216 6.2959 17.6262 7.00725 18.0658C7.40725 18.2964 7.82725 18.4831 8.26725 18.6258C8.69059 18.7724 9.12325 18.8858 9.56525 18.9658C9.65799 18.9835 9.75399 18.9641 9.83255 18.9117C9.91111 18.8594 9.96595 18.7782 9.98525 18.6858C10.0014 18.6013 9.98588 18.5138 9.9416 18.44C9.89733 18.3662 9.82743 18.3113 9.74525 18.2858Z" fill="#4B5563"/>
<path fill-rule="evenodd" clip-rule="evenodd" d="M11.9049 16.8069C12.3567 16.7177 12.7779 16.5136 13.1279 16.2142C13.4779 15.9149 13.7448 15.5304 13.9029 15.0979C13.9288 15.053 13.9453 15.0032 13.9512 14.9517C13.9571 14.9001 13.9525 14.848 13.9375 14.7983C13.9225 14.7487 13.8975 14.7026 13.864 14.663C13.8306 14.6233 13.7894 14.591 13.7429 14.5679C13.698 14.542 13.6482 14.5256 13.5967 14.5196C13.5452 14.5137 13.493 14.5183 13.4434 14.5333C13.3937 14.5483 13.3476 14.5733 13.308 14.6068C13.2684 14.6402 13.236 14.6815 13.2129 14.7279C13.0183 15.0249 12.7393 15.257 12.4118 15.3942C12.0842 15.5314 11.7232 15.5675 11.3749 15.4979C11.1693 15.474 10.9676 15.4236 10.7749 15.3479C10.2573 15.1827 9.81028 14.848 9.50593 14.3979C9.48948 14.3496 9.46236 14.3056 9.42658 14.2692C9.39079 14.2328 9.34728 14.2049 9.29925 14.1876C9.25122 14.1703 9.19991 14.164 9.14913 14.1693C9.09836 14.1745 9.04941 14.1911 9.00593 14.2179C8.92119 14.2552 8.85468 14.3245 8.82094 14.4107C8.7872 14.4969 8.789 14.593 8.82593 14.6779C9.03493 15.4279 9.51593 16.0739 10.1759 16.4879C10.4819 16.6659 10.8219 16.7779 11.1749 16.8169C11.4183 16.8502 11.6616 16.8469 11.9049 16.8069Z" fill="#4B5563"/>
<path fill-rule="evenodd" clip-rule="evenodd" d="M23.8856 12.4499C23.8239 12.1846 23.7264 11.9289 23.5956 11.6899C23.3595 11.2703 23.0385 10.9043 22.6532 10.6154C22.2679 10.3266 21.8267 10.121 21.3576 10.0119C21.2808 9.42418 21.1604 8.84293 20.9976 8.27295C20.6275 6.9944 19.9823 5.81225 19.1072 4.80932C18.2321 3.80639 17.1482 3.00693 15.9316 2.46695C14.6448 1.98043 13.2726 1.76058 11.8982 1.82075C10.5238 1.88091 9.176 2.21984 7.93664 2.81695C6.66189 3.33842 5.53492 4.16535 4.65499 5.2249C3.77505 6.28445 3.16915 7.54411 2.89064 8.89295C2.89064 9.13295 2.89064 9.37295 2.83064 9.61295C2.32239 9.7078 1.84166 9.9147 1.4234 10.2186C1.00514 10.5226 0.659852 10.9159 0.41264 11.3699C0.281974 11.6099 0.185307 11.8633 0.12264 12.1299C-0.0408801 12.6841 -0.0408801 13.2738 0.12264 13.8279C0.271594 14.2458 0.522299 14.6199 0.852105 14.9165C1.18191 15.2132 1.58042 15.423 2.01164 15.5269C2.20964 15.5896 2.41297 15.6329 2.62164 15.6569C2.82431 15.6769 3.02731 15.6769 3.23064 15.6569C3.32219 15.6538 3.40988 15.6193 3.47905 15.5592C3.54821 15.4991 3.59466 15.4171 3.61064 15.3269C3.6512 15.3464 3.69563 15.3566 3.74064 15.3566C3.78565 15.3566 3.83008 15.3464 3.87064 15.3269C3.93185 15.2993 3.98352 15.2542 4.01911 15.1972C4.0547 15.1403 4.07263 15.0741 4.07064 15.0069C3.83657 14.0224 3.68934 13.0192 3.63064 12.0089C3.57464 11.0219 3.64464 10.0309 3.84064 9.06095C4.15469 7.91097 4.7394 6.85285 5.54592 5.97501C6.35244 5.09717 7.35733 4.42509 8.47664 4.01495C9.56139 3.49532 10.7393 3.19839 11.9407 3.14171C13.1422 3.08503 14.3428 3.26975 15.4716 3.68495C16.5344 4.13248 17.4885 4.8031 18.2696 5.65142C19.0506 6.49974 19.6403 7.50595 19.9986 8.60195C20.7536 10.8843 20.6863 13.3589 19.8086 15.5969C19.7892 15.6448 19.7795 15.6961 19.7801 15.7478C19.7807 15.7995 19.7915 15.8505 19.812 15.898C19.8324 15.9454 19.8621 15.9883 19.8993 16.0242C19.9365 16.0601 19.9805 16.0882 20.0286 16.1069C20.0903 16.1275 20.157 16.1275 20.2186 16.1069C19.9409 16.6881 19.6059 17.2402 19.2186 17.7549C18.8486 18.2559 18.4166 18.7059 17.9296 19.0949C17.1821 19.7686 16.2176 20.1515 15.2116 20.1739C15.1672 20.0933 15.0956 20.0309 15.0096 19.998C14.9235 19.965 14.8286 19.9636 14.7416 19.9939C14.6436 20.0339 14.5655 20.111 14.5242 20.2085C14.483 20.306 14.4821 20.4158 14.5216 20.5139C14.5216 20.6439 14.5216 20.7339 14.3916 20.8239C14.2316 20.9439 14.0416 21.0209 13.8426 21.0429C13.5634 21.0961 13.2756 21.0824 13.0026 21.0029C12.7262 20.935 12.4674 20.8089 12.2436 20.6329C12.0736 20.5129 11.9436 20.4329 12.0036 20.3129C12.0794 20.1674 12.1981 20.0487 12.3436 19.9729L13.0236 19.7529C13.2155 19.7222 13.4094 19.7055 13.6036 19.7029H14.2226C14.3113 19.7174 14.4021 19.6962 14.4752 19.6439C14.5483 19.5916 14.5977 19.5125 14.6126 19.4239C14.6213 19.3786 14.621 19.332 14.6116 19.2869C14.6022 19.2417 14.5839 19.1988 14.5579 19.1607C14.5319 19.1226 14.4986 19.09 14.4599 19.0648C14.4213 19.0396 14.378 19.0224 14.3326 19.0139L13.0026 18.7939C12.8333 18.7795 12.663 18.7795 12.4936 18.7939C12.3139 18.8081 12.1362 18.8416 11.9636 18.8939C11.6804 18.9649 11.4199 19.1067 11.2066 19.3062C10.9933 19.5056 10.8344 19.7561 10.7446 20.0339C10.6792 20.3503 10.7155 20.6792 10.8484 20.9736C10.9814 21.2681 11.2041 21.5129 11.4846 21.6729C11.8846 21.9369 12.3386 22.1069 12.8136 22.1729C13.2666 22.2179 13.7246 22.1599 14.1526 22.0029C14.5626 21.8479 14.9116 21.5679 15.1526 21.2029C15.1953 21.1096 15.2286 21.0129 15.2526 20.9129C16.2881 21.0509 17.3404 20.8473 18.2496 20.3329C19.0786 19.8524 19.7677 19.1637 20.2486 18.3349C20.685 17.6179 20.9927 16.83 21.1576 16.0069H21.4376C21.6443 15.9736 21.8476 15.9269 22.0476 15.8669C22.4641 15.7511 22.8462 15.5359 23.1612 15.2398C23.4761 14.9437 23.7144 14.5755 23.8556 14.1669C24.0365 13.61 24.0469 13.0128 23.8856 12.4499ZM2.74064 14.8079C2.59754 14.7593 2.45732 14.7025 2.32064 14.6379C2.087 14.5239 1.88206 14.3587 1.72105 14.1546C1.56004 13.9505 1.44711 13.7127 1.39064 13.4589C1.32376 13.1293 1.3241 12.7895 1.39164 12.4599C1.4613 12.0501 1.61768 11.6598 1.85032 11.3152C2.08297 10.9707 2.38651 10.6797 2.74064 10.4619C2.73064 11.0093 2.75064 11.5553 2.80064 12.0999C2.90064 13.0839 3.08764 14.0579 3.36064 15.0079C3.30064 15.0079 3.26064 14.9379 3.19064 14.9379L2.74064 14.8079ZM21.7276 14.9479C20.2176 15.6779 21.6276 14.0089 21.4576 10.8309C22.0887 11.2914 22.5153 11.9799 22.6466 12.7499C22.7126 13.0799 22.7126 13.4199 22.6466 13.7499C22.5903 14.0103 22.4743 14.2541 22.3077 14.462C22.1411 14.6699 21.9285 14.8362 21.6866 14.9479H21.7276Z" fill="#4B5563"/>
<path fill-rule="evenodd" clip-rule="evenodd" d="M8.83707 10.5209C8.65625 10.5163 8.47627 10.5469 8.30707 10.6109C7.92707 10.7609 7.58707 10.9929 7.30707 11.2909C7.22921 11.3402 7.17397 11.4184 7.15338 11.5082C7.13278 11.5981 7.14848 11.6925 7.19707 11.7709C7.33707 12.0209 9.19707 11.7709 9.55707 11.7709C9.7164 11.7775 9.87274 11.8042 10.0261 11.8509C10.1169 11.9039 10.2247 11.92 10.327 11.8958C10.4294 11.8716 10.5186 11.8089 10.5761 11.7209C10.6285 11.6315 10.6443 11.5253 10.6201 11.4246C10.5958 11.3239 10.5335 11.2365 10.4461 11.1809C10.1469 10.8828 9.77435 10.6689 9.36607 10.5609C9.19287 10.5181 9.01473 10.5046 8.83707 10.5209ZM16.0821 11.7699C16.1298 11.6903 16.1439 11.595 16.1214 11.505C16.0989 11.415 16.0416 11.3376 15.9621 11.2899C15.6867 10.9881 15.3441 10.7555 14.9621 10.6109C14.7929 10.5469 14.6129 10.5163 14.4321 10.5209C14.2511 10.5109 14.0681 10.5309 13.8931 10.5809C13.4861 10.6909 13.1141 10.9049 12.8131 11.2009C12.7275 11.2582 12.6674 11.3464 12.6452 11.447C12.6231 11.5476 12.6406 11.6528 12.6941 11.7409C12.7498 11.831 12.8391 11.8952 12.9422 11.9196C13.0453 11.944 13.1539 11.9265 13.2441 11.8709C13.3967 11.8242 13.5534 11.7975 13.7141 11.7909C14.8421 11.7009 15.8721 12.1299 16.0821 11.7699Z" fill="#4B5563"/>
</svg>
