<svg width="327" height="327" viewBox="0 0 327 327" fill="none" xmlns="http://www.w3.org/2000/svg">
<path d="M217.628 232.458H177.414C185.853 245.097 183.638 281.749 183.638 281.749H223.852C223.852 281.749 226.341 241.171 217.628 232.458Z" fill="white"/>
<path d="M209.755 231.133H169.541C177.98 243.773 175.765 280.424 175.765 280.424H215.979C215.979 280.424 218.469 239.847 209.755 231.133Z" fill="#E3E9E7"/>
<path d="M206.903 232.905H166.689C175.129 245.544 172.913 282.196 172.913 282.196H213.127C213.127 282.196 215.617 241.618 206.903 232.905Z" fill="#F2F5F4"/>
<path d="M201.216 229.944H161.002C169.441 242.584 167.226 279.235 167.226 279.235H207.44C207.44 279.235 209.929 238.658 201.216 229.944Z" fill="white"/>
<path d="M196.837 228.989H156.623C165.062 241.629 162.847 278.28 162.847 278.28H203.061C203.061 278.28 205.55 237.703 196.837 228.989Z" fill="#E3E9E7"/>
<path d="M184.565 231.525H144.352C152.791 244.164 150.576 280.816 150.576 280.816H190.789C190.789 280.816 193.279 240.238 184.565 231.525Z" fill="white"/>
<path d="M176.69 230.2H136.477C144.916 242.84 142.701 279.491 142.701 279.491H182.914C182.914 279.491 185.404 238.914 176.69 230.2Z" fill="#E3E9E7"/>
<path d="M173.837 231.972H133.623C142.062 244.611 139.847 281.263 139.847 281.263H180.061C180.061 281.263 182.551 240.685 173.837 231.972Z" fill="#F2F5F4"/>
<path d="M168.153 229.011H127.939C136.379 241.651 134.163 278.302 134.163 278.302H174.377C174.377 278.302 176.867 237.725 168.153 229.011Z" fill="white"/>
<path d="M163.772 228.057H123.559C131.998 240.696 129.783 277.348 129.783 277.348H169.996C169.996 277.348 172.486 236.77 163.772 228.057Z" fill="#E3E9E7"/>
<path d="M166.923 281.209H126.704C126.704 281.209 128.133 257.525 124.314 241.671L135.863 231.918H160.695C169.413 240.63 166.923 281.209 166.923 281.209Z" fill="white"/>
<path d="M199.392 239.978V325.331H153.807V265.778C167.005 265.778 177.704 255.079 177.704 241.88V239.978H199.392Z" fill="#B22900"/>
<path d="M223.881 239.979H199.391V325.331H223.881V239.979Z" fill="#C43F00"/>
<path d="M222.43 241.303H200.844V324.007H222.43V241.303Z" stroke="#B22900" stroke-miterlimit="10"/>
<path d="M220.077 258.607C221.172 253.943 218.279 249.275 213.616 248.18C208.952 247.084 204.283 249.977 203.188 254.641C202.093 259.305 204.986 263.974 209.65 265.069C214.314 266.164 218.982 263.271 220.077 258.607Z" fill="white"/>
<path d="M218.322 258.17C219.189 254.48 216.901 250.786 213.211 249.919C209.521 249.051 205.826 251.34 204.959 255.03C204.092 258.72 206.38 262.414 210.07 263.281C213.76 264.148 217.454 261.86 218.322 258.17Z" fill="#311116"/>
<path d="M218.501 272.148H204.775V313.146H218.501V272.148Z" fill="white"/>
<path d="M216.296 274.54H206.98V278.802H216.296V274.54Z" fill="#A0A6A7"/>
<path d="M207.732 281.205V310.157" stroke="#E3E9E7" stroke-width="2" stroke-miterlimit="10"/>
<path d="M210.336 281.205V310.157" stroke="#E3E9E7" stroke-width="2" stroke-miterlimit="10"/>
<path d="M212.939 281.205V310.157" stroke="#E3E9E7" stroke-width="2" stroke-miterlimit="10"/>
<path d="M215.543 281.205V310.157" stroke="#E3E9E7" stroke-width="2" stroke-miterlimit="10"/>
<path d="M169.736 239.978V325.331H124.15V265.778C137.348 265.778 148.048 255.079 148.048 241.88V239.978H169.736Z" fill="#FF5F1F"/>
<path d="M194.227 239.979H169.736V325.331H194.227V239.979Z" fill="#FF5F1F"/>
<path d="M192.773 241.303H171.188V324.007H192.773V241.303Z" stroke="#FF5F1F" stroke-miterlimit="10"/>
<path d="M190.551 258C191.316 253.27 188.102 248.816 183.373 248.052C178.644 247.287 174.19 250.501 173.425 255.231C172.661 259.96 175.875 264.414 180.604 265.179C185.333 265.943 189.786 262.729 190.551 258Z" fill="white"/>
<path d="M184.636 262.956C188.134 261.497 189.788 257.479 188.329 253.98C186.87 250.481 182.851 248.828 179.352 250.287C175.854 251.746 174.2 255.765 175.659 259.263C177.118 262.762 181.137 264.415 184.636 262.956Z" fill="#311116"/>
<path d="M188.843 272.148H175.117V313.146H188.843V272.148Z" fill="white"/>
<path d="M186.638 274.54H177.322V278.802H186.638V274.54Z" fill="#A0A6A7"/>
<path d="M178.076 281.205V310.157" stroke="#E3E9E7" stroke-width="2" stroke-miterlimit="10"/>
<path d="M180.68 281.205V310.157" stroke="#E3E9E7" stroke-width="2" stroke-miterlimit="10"/>
<path d="M183.283 281.205V310.157" stroke="#E3E9E7" stroke-width="2" stroke-miterlimit="10"/>
<path d="M185.883 281.205V310.157" stroke="#E3E9E7" stroke-width="2" stroke-miterlimit="10"/>
<path d="M176.186 32.1455C181.753 26.5787 181.753 17.5531 176.186 11.9863C170.619 6.41945 161.594 6.41945 156.027 11.9863C150.46 17.5531 150.46 26.5787 156.027 32.1456C161.594 37.7124 170.619 37.7124 176.186 32.1455Z" fill="#C43F00"/>
<path d="M166.105 15.5149V28.6146" stroke="white" stroke-width="2" stroke-miterlimit="10"/>
<path d="M159.557 22.0651H172.656" stroke="white" stroke-width="2" stroke-miterlimit="10"/>
<path d="M318.245 98.6378L306.869 110.014C304.911 111.972 301.562 110.585 301.562 107.817V85.0631C301.562 82.2938 304.91 80.907 306.869 82.8656L318.245 94.2419C319.459 95.4558 319.459 97.4239 318.245 98.6378Z" fill="#D7E0DD"/>
<path d="M12.4885 94.2419L23.8649 82.8655C25.8228 80.9076 29.1712 82.2945 29.1712 85.0631V107.817C29.1712 110.586 25.8235 111.972 23.8649 110.014L12.4885 98.6378C11.2747 97.4239 11.2747 95.4557 12.4885 94.2419Z" fill="#D7E0DD"/>
<path d="M196.92 69.4749H133.81C129.452 69.4749 125.918 73.0088 125.918 77.3673V195.409C125.918 199.768 129.451 203.302 133.81 203.302H196.92C201.278 203.302 204.812 199.769 204.812 195.409V77.3665C204.812 73.008 201.278 69.4749 196.92 69.4749Z" fill="white"/>
<path d="M138.464 197.354C137.976 197.354 137.572 197.299 137.25 197.189C136.928 197.079 136.683 196.911 136.515 196.683C136.348 196.451 136.24 196.184 136.192 195.879C136.168 195.72 136.156 195.544 136.156 195.352C136.156 195.172 136.167 194.978 136.186 194.77L136.204 194.591H138.283C138.251 194.806 138.236 194.99 138.236 195.142C138.236 195.25 138.244 195.344 138.26 195.424C138.3 195.599 138.434 195.689 138.662 195.693C138.901 195.693 139.058 195.587 139.129 195.376C139.201 195.164 139.281 194.652 139.369 193.842C139.373 193.801 139.377 193.772 139.381 193.751L139.458 193.021C139.346 193.18 139.183 193.304 138.967 193.392C138.751 193.48 138.513 193.528 138.253 193.536C138.221 193.536 138.19 193.536 138.157 193.536C137.89 193.532 137.652 193.486 137.444 193.398C137.213 193.294 137.026 193.15 136.884 192.964C136.742 192.778 136.628 192.557 136.54 192.301C136.452 192.045 136.404 191.769 136.396 191.474C136.392 191.402 136.39 191.328 136.39 191.253C136.39 191.025 136.4 190.789 136.42 190.545C136.536 189.422 136.841 188.57 137.334 187.986C137.828 187.403 138.566 187.111 139.549 187.111C140.52 187.115 141.205 187.389 141.605 187.932C141.916 188.359 142.072 188.927 142.072 189.634C142.072 189.826 142.061 190.028 142.036 190.24L141.641 194.027C141.597 194.438 141.534 194.804 141.452 195.124C141.37 195.443 141.249 195.747 141.089 196.035C140.93 196.322 140.736 196.56 140.508 196.748C140.28 196.936 139.994 197.084 139.651 197.192C139.307 197.3 138.912 197.354 138.464 197.354ZM139.081 191.841C139.296 191.841 139.475 191.727 139.615 191.499L139.788 189.857C139.808 189.601 139.818 189.408 139.818 189.276C139.818 189.12 139.785 188.99 139.716 188.886C139.645 188.779 139.533 188.724 139.381 188.724C139.305 188.724 139.238 188.738 139.18 188.763C139.122 188.789 139.071 188.836 139.027 188.904C138.983 188.972 138.947 189.043 138.917 189.117C138.887 189.191 138.859 189.299 138.833 189.444C138.807 189.587 138.786 189.724 138.77 189.851C138.754 189.979 138.734 190.152 138.71 190.372C138.674 190.736 138.656 191.017 138.656 191.217C138.656 191.337 138.662 191.429 138.674 191.493C138.722 191.724 138.857 191.841 139.081 191.841Z" fill="#E3E9E7"/>
<path d="M144.822 197.402C144.391 197.402 144.018 197.351 143.702 197.249C143.386 197.147 143.134 197.002 142.944 196.812C142.754 196.622 142.605 196.392 142.497 196.123C142.39 195.853 142.327 195.552 142.312 195.221C142.307 195.129 142.307 195.033 142.312 194.934C142.312 194.682 142.324 194.418 142.348 194.143L142.39 193.79H144.619C144.619 193.793 144.612 193.858 144.598 193.982C144.584 194.105 144.577 194.169 144.577 194.174C144.553 194.394 144.541 194.585 144.541 194.749C144.541 194.961 144.561 195.123 144.601 195.234C144.669 195.426 144.821 195.522 145.057 195.522C145.277 195.522 145.434 195.434 145.528 195.256C145.621 195.078 145.693 194.767 145.74 194.324C145.76 194.152 145.77 193.996 145.77 193.856C145.77 193.576 145.732 193.361 145.657 193.209C145.544 192.985 145.293 192.873 144.902 192.873H144.488L144.644 191.435H145.016C145.424 191.435 145.707 191.324 145.867 191.102C146.027 190.88 146.135 190.51 146.19 189.99C146.206 189.85 146.214 189.725 146.214 189.613C146.214 189.413 146.19 189.255 146.143 189.139C146.071 188.96 145.921 188.87 145.693 188.87C145.478 188.87 145.322 188.964 145.226 189.154C145.13 189.344 145.06 189.627 145.016 190.002C144.976 190.393 144.956 190.591 144.956 190.596H142.726L142.792 189.924C142.888 189.018 143.208 188.318 143.754 187.826C144.299 187.335 145.004 187.089 145.866 187.089C146.757 187.089 147.427 187.321 147.874 187.784C148.246 188.167 148.431 188.701 148.431 189.384C148.431 189.524 148.423 189.67 148.407 189.822C148.347 190.381 148.183 190.863 147.915 191.269C147.647 191.675 147.345 191.92 147.01 192.004C147.362 192.144 147.621 192.386 147.789 192.729C147.908 192.977 147.969 193.306 147.969 193.718C147.969 193.882 147.958 194.059 147.938 194.251C147.891 194.723 147.796 195.146 147.654 195.519C147.513 195.893 147.32 196.223 147.076 196.51C146.832 196.799 146.519 197.019 146.137 197.173C145.756 197.325 145.318 197.402 144.822 197.402Z" fill="#E3E9E7"/>
<path d="M151.064 192.996C150.193 192.996 149.594 192.779 149.266 192.343C149.018 192.011 148.895 191.53 148.895 190.898C148.895 190.706 148.906 190.499 148.93 190.275L148.966 189.91C149.07 188.951 149.323 188.268 149.724 187.863C150.126 187.458 150.773 187.255 151.663 187.255C152.55 187.251 153.158 187.453 153.485 187.86C153.733 188.172 153.859 188.643 153.863 189.275C153.863 189.467 153.851 189.674 153.827 189.898L153.785 190.275C153.689 191.218 153.43 191.908 153.009 192.343C152.588 192.779 151.939 192.996 151.064 192.996ZM151.202 191.648C151.33 191.648 151.438 191.626 151.525 191.582C151.613 191.538 151.684 191.484 151.738 191.42C151.792 191.357 151.838 191.255 151.876 191.115C151.914 190.975 151.942 190.841 151.96 190.713C151.978 190.585 151.999 190.405 152.023 190.174L152.047 189.994C152.091 189.65 152.113 189.379 152.113 189.179C152.113 188.979 152.069 188.835 151.981 188.747C151.893 188.659 151.742 188.615 151.526 188.615C151.394 188.615 151.286 188.633 151.199 188.669C151.113 188.705 151.043 188.75 150.989 188.804C150.936 188.858 150.891 188.951 150.855 189.083C150.819 189.215 150.793 189.339 150.777 189.454C150.761 189.57 150.741 189.746 150.717 189.982L150.693 190.174C150.652 190.522 150.633 190.799 150.633 191.007C150.633 191.219 150.676 191.379 150.764 191.486C150.852 191.594 150.998 191.648 151.202 191.648ZM151.838 197.198L156.009 187.26H157.118L152.947 197.198H151.838ZM157.304 197.204C156.436 197.207 155.839 196.99 155.511 196.551C155.264 196.215 155.138 195.732 155.134 195.1C155.134 194.908 155.146 194.701 155.17 194.477L155.206 194.117C155.31 193.158 155.562 192.476 155.964 192.071C156.365 191.665 157.012 191.462 157.903 191.462C158.793 191.458 159.403 191.66 159.731 192.068C159.978 192.379 160.102 192.85 160.102 193.482C160.102 193.674 160.091 193.882 160.066 194.105L160.025 194.483C159.929 195.426 159.67 196.115 159.248 196.551C158.827 196.986 158.179 197.204 157.304 197.204ZM157.441 195.856C157.546 195.856 157.636 195.844 157.714 195.82C157.792 195.796 157.859 195.753 157.915 195.691C157.971 195.629 158.017 195.563 158.053 195.493C158.089 195.423 158.119 195.324 158.146 195.196C158.172 195.069 158.193 194.948 158.209 194.837C158.225 194.725 158.243 194.573 158.263 194.382L158.287 194.202C158.327 193.85 158.347 193.579 158.347 193.387C158.351 193.187 158.309 193.043 158.221 192.955C158.133 192.867 157.982 192.823 157.766 192.823C157.683 192.823 157.609 192.828 157.545 192.838C157.481 192.848 157.424 192.869 157.374 192.901C157.324 192.933 157.282 192.963 157.248 192.991C157.214 193.019 157.182 193.068 157.152 193.138C157.122 193.207 157.099 193.269 157.083 193.32C157.067 193.372 157.051 193.453 157.035 193.563C157.019 193.673 157.007 193.767 156.997 193.844C156.986 193.922 156.974 194.037 156.958 194.189L156.933 194.381C156.893 194.728 156.873 195.006 156.873 195.214C156.873 195.426 156.917 195.586 157.005 195.694C157.092 195.802 157.238 195.856 157.441 195.856Z" fill="#E3E9E7"/>
<path d="M139.586 150.685H191.15" stroke="#E3E9E7" stroke-width="5" stroke-miterlimit="10" stroke-linecap="round" stroke-linejoin="round"/>
<path d="M139.586 159.188H191.15" stroke="#E3E9E7" stroke-width="5" stroke-miterlimit="10" stroke-linecap="round" stroke-linejoin="round"/>
<path d="M139.586 167.691H191.15" stroke="#E3E9E7" stroke-width="5" stroke-miterlimit="10" stroke-linecap="round" stroke-linejoin="round"/>
<path d="M152.799 176.061H177.938" stroke="#E3E9E7" stroke-width="5" stroke-miterlimit="10" stroke-linecap="round" stroke-linejoin="round"/>
<path d="M139.586 76.9238H191.15" stroke="#E3E9E7" stroke-width="5" stroke-miterlimit="10" stroke-linecap="round" stroke-linejoin="round"/>
<path d="M194.286 186.695H185.623V197.162L189.954 194.887L194.286 197.162V186.695Z" fill="#FF5F1F"/>
<path d="M197.502 182.33H133.227" stroke="#F2F5F4" stroke-miterlimit="10"/>
<path d="M195 113.605C196.433 99.0216 185.772 86.0377 171.189 84.6045C156.606 83.1714 143.622 93.8318 142.189 108.415C140.756 122.998 151.416 135.982 165.999 137.416C180.583 138.849 193.567 128.188 195 113.605Z" fill="#E3E9E7"/>
<mask id="mask0_4025_6432" style="mask-type:luminance" maskUnits="userSpaceOnUse" x="142" y="84" width="54" height="54">
<path d="M195 113.605C196.433 99.0214 185.773 86.0374 171.189 84.6042C156.606 83.1711 143.622 93.8315 142.189 108.415C140.756 122.998 151.416 135.982 165.999 137.416C180.583 138.849 193.567 128.188 195 113.605Z" fill="white"/>
</mask>
<g mask="url(#mask0_4025_6432)">
<path d="M169.125 126.519C169.895 117.45 170.664 108.381 171.433 99.3115L176.996 100.19C176.769 102.679 177.062 105.213 177.85 107.584C178.447 109.379 179.32 111.068 180.11 112.788C180.9 114.508 181.617 116.287 181.873 118.162C182.129 120.037 181.888 122.033 180.877 123.633C179.866 125.232 178.001 126.351 176.118 126.167" fill="black"/>
</g>
<mask id="mask1_4025_6432" style="mask-type:luminance" maskUnits="userSpaceOnUse" x="142" y="84" width="54" height="54">
<path d="M195 113.605C196.433 99.0214 185.773 86.0374 171.189 84.6042C156.606 83.1711 143.622 93.8315 142.189 108.415C140.756 122.998 151.416 135.982 165.999 137.416C180.583 138.849 193.567 128.188 195 113.605Z" fill="white"/>
</mask>
<g mask="url(#mask1_4025_6432)">
<path d="M179.44 117.089C186.858 120.774 189.242 139.563 189.242 139.563L175.27 141.656L179.44 117.089Z" fill="#FF5F1F"/>
<path d="M179.441 117.091L179.125 122.272L178.505 132.393L178.416 133.862L178.13 138.517L177.771 144.368H158.332L158.315 144.192L156.129 118.705L155.992 117.091L161.668 115.576L173.316 114.626L176.906 115.755C176.906 115.76 176.906 115.76 176.906 115.76L179.441 117.091Z" fill="#FF5F1F"/>
<path d="M151.065 122.448C150.614 126.515 149.935 139.758 150.873 150.464L159.161 147.207C165.376 120.691 159.029 116.279 159.029 116.279C159.029 116.279 151.698 116.739 151.065 122.448Z" fill="#FF5F1F"/>
<path d="M159.027 116.278L173.312 114.626L176.903 115.753C176.903 115.757 176.903 115.757 176.903 115.757C177.287 126.367 163.351 124.615 159.027 116.278Z" fill="#A87259"/>
<path d="M170.345 118.143L166.173 118.134C164.645 118.132 163.409 116.891 163.412 115.364L163.43 107.097L173.327 107.116L173.309 115.188C173.306 116.822 171.979 118.145 170.345 118.143Z" fill="#A87259"/>
<path d="M170.497 91.0607C175.287 90.5637 179.573 94.0433 180.07 98.8336L180.367 101.692C180.827 106.119 177.61 110.08 173.184 110.54L165.217 111.367C164.465 111.445 163.79 110.897 163.712 110.145L162.725 100.634C162.227 95.8436 165.707 91.5577 170.497 91.0607Z" fill="#A87259"/>
<path d="M163.567 103.553C163.567 103.553 173.903 101.833 174.078 90.7902C171.554 90.3086 168.561 90.7052 168.561 90.7052C168.561 90.7052 160.824 97.8308 163.567 103.553Z" fill="black"/>
<path d="M168.561 90.7052C161.21 90.7294 156.662 92.2922 156.848 105.865C156.887 108.738 155.564 111.388 153.393 113.271C151.005 115.342 150.042 118.757 151.2 121.263C153.756 116.737 165.936 121.343 165.079 114.159C164.222 106.976 163.989 102.631 163.989 102.631L168.561 90.7052Z" fill="black"/>
<path d="M166.144 104.05C164.038 100.081 162.132 99.8077 160.594 100.613C157.775 102.087 159.005 108.807 164.224 107.382L166.144 104.05Z" fill="#A87259"/>
<path d="M168.564 91.1113C168.564 91.1113 177.41 90.3101 180.187 99.9338C180.279 90.6355 174.89 90.173 168.564 91.1113Z" fill="black"/>
</g>
<path d="M133.706 61.5431H197.02C200.985 61.5431 204.2 58.3288 204.2 54.3632C204.2 50.3983 200.985 47.1841 197.02 47.1841H133.706C129.742 47.1841 126.527 50.3983 126.527 54.3632C126.527 58.3288 129.742 61.5431 133.706 61.5431Z" fill="white"/>
<path d="M140.624 50.4019L141.911 53.01L144.79 53.4285L142.706 55.4582L143.198 58.325L140.624 56.9719L138.05 58.325L138.541 55.4582L136.459 53.4285L139.337 53.01L140.624 50.4019Z" fill="#FF5F1F"/>
<path d="M152.994 50.4019L154.281 53.01L157.159 53.4285L155.076 55.4582L155.567 58.325L152.994 56.9719L150.419 58.325L150.911 55.4582L148.828 53.4285L151.707 53.01L152.994 50.4019Z" fill="#FF5F1F"/>
<path d="M165.363 50.4019L166.65 53.01L169.528 53.4285L167.445 55.4582L167.937 58.325L165.363 56.9719L162.789 58.325L163.28 55.4582L161.197 53.4285L164.076 53.01L165.363 50.4019Z" fill="#FF5F1F"/>
<path d="M177.733 50.4019L179.021 53.01L181.898 53.4285L179.816 55.4582L180.308 58.325L177.733 56.9719L175.159 58.325L175.651 55.4582L173.568 53.4285L176.446 53.01L177.733 50.4019Z" fill="#FF5F1F"/>
<path d="M190.102 50.4019L191.39 53.01L194.268 53.4285L192.186 55.4582L192.677 58.325L190.102 56.9719L187.529 58.325L188.02 55.4582L185.938 53.4285L188.815 53.01L190.102 50.4019Z" fill="#E3E9E7"/>
<path d="M189.586 51.4472V57.2439L187.531 58.3214L188.024 55.4575L185.938 53.4256L188.816 53.01L189.586 51.4472Z" fill="#FF5F1F"/>
<path d="M109.676 41.2753H46.5662C42.2077 41.2753 38.6738 44.8084 38.6738 49.1677V147.822C38.6738 152.18 42.2077 155.714 46.5662 155.714H109.676C114.034 155.714 117.568 152.181 117.568 147.822V49.1669C117.568 44.8084 114.034 41.2753 109.676 41.2753Z" fill="white"/>
<path d="M52.3398 124.229H103.904" stroke="#E3E9E7" stroke-width="5" stroke-miterlimit="10" stroke-linecap="round" stroke-linejoin="round"/>
<path d="M52.3398 132.732H103.904" stroke="#E3E9E7" stroke-width="5" stroke-miterlimit="10" stroke-linecap="round" stroke-linejoin="round"/>
<path d="M52.3398 141.235H103.904" stroke="#E3E9E7" stroke-width="5" stroke-miterlimit="10" stroke-linecap="round" stroke-linejoin="round"/>
<path d="M65.5527 149.605H90.6921" stroke="#E3E9E7" stroke-width="5" stroke-miterlimit="10" stroke-linecap="round" stroke-linejoin="round"/>
<path d="M52.3398 50.468H103.904" stroke="#E3E9E7" stroke-width="5" stroke-miterlimit="10" stroke-linecap="round" stroke-linejoin="round"/>
<path d="M78.1207 112.048C92.7744 112.048 104.654 100.169 104.654 85.5155C104.654 70.8618 92.7744 58.9827 78.1207 58.9827C63.4671 58.9827 51.5879 70.8618 51.5879 85.5155C51.5879 100.169 63.4671 112.048 78.1207 112.048Z" fill="#E3E9E7"/>
<mask id="mask2_4025_6432" style="mask-type:luminance" maskUnits="userSpaceOnUse" x="51" y="58" width="54" height="55">
<path d="M78.1207 112.048C92.7744 112.048 104.654 100.169 104.654 85.5155C104.654 70.8618 92.7744 58.9827 78.1207 58.9827C63.4671 58.9827 51.5879 70.8618 51.5879 85.5155C51.5879 100.169 63.4671 112.048 78.1207 112.048Z" fill="white"/>
</mask>
<g mask="url(#mask2_4025_6432)">
<path d="M84.5634 81.6049C86.1328 80.6688 88.1962 80.089 89.7362 81.0727C91.3599 82.1092 91.6289 84.3266 91.7594 86.2485C91.8898 88.1705 92.2329 90.3989 93.91 91.3474C95.022 91.9763 96.3905 91.8275 97.6498 92.0437C101.236 92.6609 103.718 96.5767 103.251 100.185C102.784 103.794 99.81 106.789 96.329 107.85C92.8479 108.91 88.9996 108.234 85.7516 106.593C82.5036 104.953 79.7907 102.417 77.3857 99.6861C75.2321 97.2415 73.2581 94.5646 72.1579 91.4976C71.2673 89.0157 69.9266 83.2659 74.1341 83.5635C75.9336 83.6911 77.4663 84.6946 79.3216 84.3955C81.3257 84.0715 82.8774 82.6106 84.5634 81.6049Z" fill="#A0A6A7"/>
<path d="M88.958 91.59C96.3753 95.2749 98.7598 114.063 98.7598 114.063L84.7871 116.157L88.958 91.59Z" fill="#D9D8D4"/>
<path d="M63.7692 79.0364C62.633 79.5297 61.5196 80.3676 61.2484 81.5763C60.7814 83.6581 62.9863 85.6115 62.6228 87.7138C62.3552 89.2597 60.7558 90.25 59.2069 90.4963C57.6573 90.7426 56.0762 90.4523 54.5083 90.4934C52.9404 90.5344 51.2281 91.0175 50.3873 92.3428C49.4088 93.885 49.9761 95.9228 50.7722 97.567C51.5682 99.2111 52.5952 100.883 52.461 102.705C52.31 104.752 50.7047 106.486 50.5984 108.536C50.465 111.104 52.7146 113.186 55.0427 114.276C58.125 115.719 61.6838 116.122 65.0109 115.403C68.3381 114.685 71.4131 112.85 73.6253 110.263C76.3968 107.021 77.7412 102.755 78.1494 98.5104C78.5577 94.2655 78.0981 89.9905 77.6385 85.7508C77.3893 83.4513 77.1401 81.1519 76.8909 78.8524C76.6834 76.9407 76.8806 74.2022 75.8551 72.5177C74.0387 69.5351 69.7374 73.1195 69.7374 73.1195C70.5474 78.2668 66.0269 78.0564 63.7692 79.0364Z" fill="#A0A6A7"/>
<path d="M88.9569 91.5915L88.641 96.7717L88.0216 106.893L87.9321 108.362L87.6463 113.017L87.2871 118.868H67.8476L67.8307 118.692L65.6442 93.2056L65.5078 91.5915L71.1835 90.0757L81.0616 87.4324L86.4214 90.2553C86.4214 90.2597 86.4214 90.2597 86.4214 90.2597L88.9569 91.5915Z" fill="#D9D8D4"/>
<path d="M71.1836 90.0742L81.0617 87.4324L86.4215 90.2538C86.4215 90.2575 86.4215 90.2575 86.4215 90.2575C86.8056 100.868 75.5084 98.4108 71.1836 90.0742Z" fill="white"/>
<path d="M79.8606 92.6434L75.6883 92.6353C74.1607 92.6324 72.9248 91.3921 72.9277 89.8645L72.9453 81.5983L82.8417 81.6166L82.8241 89.6886C82.8219 91.3232 81.4952 92.6456 79.8606 92.6434Z" fill="white"/>
<path d="M82.8322 87.6552L82.8308 89.1264C78.6255 89.561 73.987 86.7565 75.2815 80.0795L82.8447 80.092L82.8322 87.6552Z" fill="white"/>
<path d="M80.0187 65.5607C84.809 65.0637 89.0949 68.5433 89.5919 73.3336L89.8887 76.1923C90.3483 80.619 87.1326 84.5802 82.7052 85.0398L74.7388 85.8666C73.986 85.945 73.3117 85.3975 73.234 84.6447L72.2466 75.1338C71.7489 70.3443 75.2285 66.0584 80.0187 65.5607Z" fill="white"/>
<path d="M73.5895 77.742C73.5895 77.742 78.8217 73.297 81.2539 65.5219C67.688 64.4422 67.5421 76.5809 73.5895 77.742Z" fill="#A0A6A7"/>
<path d="M75.6637 78.5512C73.5577 74.5812 71.6519 74.3085 70.1133 75.1134C67.2941 76.5882 68.5241 83.3077 73.7439 81.8827L75.6637 78.5512Z" fill="white"/>
<path d="M78.1211 65.5146C78.1211 65.5146 86.929 64.8109 89.7064 74.4346C89.787 66.2197 84.4573 64.5749 78.1211 65.5146Z" fill="#A0A6A7"/>
<path d="M60.5829 96.9483C60.1321 101.016 59.4519 114.259 60.3909 124.965L68.679 121.707C74.8942 95.1906 68.5464 90.7786 68.5464 90.7786C68.5464 90.7786 61.2155 91.2389 60.5829 96.9483Z" fill="#D9D8D4"/>
</g>
<path d="M46.4604 36.4242H109.774C113.739 36.4242 116.953 33.2099 116.953 29.2443C116.953 25.2794 113.739 22.0652 109.774 22.0652H46.4604C42.4955 22.0652 39.2812 25.2794 39.2812 29.2443C39.2812 33.2099 42.4955 36.4242 46.4604 36.4242Z" fill="white"/>
<path d="M53.3779 25.2831L54.665 27.8912L57.5436 28.3097L55.4611 30.3395L55.9522 33.2063L53.3779 31.8524L50.8035 33.2063L51.2954 30.3395L49.2129 28.3097L52.0907 27.8912L53.3779 25.2831Z" fill="#FF5F1F"/>
<path d="M65.7477 25.2831L67.0349 27.8912L69.9127 28.3097L67.8302 30.3395L68.3213 33.2063L65.7477 31.8524L63.1734 33.2063L63.6645 30.3395L61.582 28.3097L64.4606 27.8912L65.7477 25.2831Z" fill="#FF5F1F"/>
<path d="M78.1188 25.2831L79.406 27.8912L82.2838 28.3097L80.2013 30.3395L80.6932 33.2063L78.1188 31.8524L75.5445 33.2063L76.0363 30.3395L73.9531 28.3097L76.8317 27.8912L78.1188 25.2831Z" fill="#E3E9E7"/>
<path d="M90.4892 25.2831L91.7764 27.8912L94.6549 28.3097L92.5717 30.3395L93.0635 33.2063L90.4892 31.8524L87.9149 33.2063L88.4067 30.3395L86.3242 28.3097L89.202 27.8912L90.4892 25.2831Z" fill="#E3E9E7"/>
<path d="M102.856 25.2831L104.144 27.8912L107.022 28.3097L104.94 30.3395L105.431 33.2063L102.856 31.8524L100.283 33.2063L100.774 30.3395L98.6914 28.3097L101.569 27.8912L102.856 25.2831Z" fill="#E3E9E7"/>
<path d="M287.303 41.2753H224.193C219.835 41.2753 216.301 44.8084 216.301 49.1677V147.822C216.301 152.18 219.834 155.714 224.193 155.714H287.303C291.661 155.714 295.195 152.181 295.195 147.822V49.1669C295.195 44.8084 291.661 41.2753 287.303 41.2753Z" fill="white"/>
<path d="M229.967 124.229H281.531" stroke="#E3E9E7" stroke-width="5" stroke-miterlimit="10" stroke-linecap="round" stroke-linejoin="round"/>
<path d="M229.967 132.732H281.531" stroke="#E3E9E7" stroke-width="5" stroke-miterlimit="10" stroke-linecap="round" stroke-linejoin="round"/>
<path d="M229.967 141.235H281.531" stroke="#E3E9E7" stroke-width="5" stroke-miterlimit="10" stroke-linecap="round" stroke-linejoin="round"/>
<path d="M243.18 149.605H268.319" stroke="#E3E9E7" stroke-width="5" stroke-miterlimit="10" stroke-linecap="round" stroke-linejoin="round"/>
<path d="M229.967 50.468H281.531" stroke="#E3E9E7" stroke-width="5" stroke-miterlimit="10" stroke-linecap="round" stroke-linejoin="round"/>
<path d="M281.932 89.8022C284.293 75.3405 274.483 61.7032 260.021 59.3425C245.56 56.9818 231.922 66.7916 229.562 81.2533C227.201 95.7151 237.011 109.352 251.472 111.713C265.934 114.074 279.571 104.264 281.932 89.8022Z" fill="#E3E9E7"/>
<mask id="mask3_4025_6432" style="mask-type:luminance" maskUnits="userSpaceOnUse" x="229" y="58" width="54" height="55">
<path d="M281.932 89.8022C284.293 75.3405 274.483 61.7032 260.021 59.3425C245.56 56.9818 231.922 66.7916 229.562 81.2533C227.201 95.7151 237.011 109.352 251.472 111.713C265.934 114.074 279.571 104.264 281.932 89.8022Z" fill="white"/>
</mask>
<g mask="url(#mask3_4025_6432)">
<path d="M249.183 95.9462L255.07 97.7824C255.06 97.9569 254.963 99.6912 254.691 102.079C254.29 105.591 253.514 110.503 252.099 113.942C251.78 114.713 251.126 115.74 250.205 116.863L240.912 108.746C242.099 106.876 243.724 103.523 244.31 100.844C244.524 99.8561 245.43 98.393 246.704 97.2986C247.333 96.7511 248.055 96.2959 248.83 96.0393C248.859 96.0247 248.898 96.01 248.927 96.0056C249.005 95.9858 249.077 95.9616 249.15 95.9382L249.183 95.9462Z" fill="#A0A6A7"/>
<path d="M271.932 102.796C271.932 102.826 271.927 102.854 271.923 102.878C271.613 105.088 271.162 107.311 270.595 109.462C269.587 113.269 268.198 116.864 266.521 119.794C265.862 120.942 265.16 121.993 264.419 122.914C264.302 123.055 264.187 123.195 264.07 123.33L263.431 122.628L263.286 122.468L249.726 125.103L247.552 105.247L246.661 104.274C246.283 102.889 246.05 101.808 245.929 100.932C245.775 99.7396 246.089 98.5771 246.748 97.6571C246.951 97.3713 247.189 97.1052 247.456 96.8721C247.489 96.8428 247.528 96.809 247.562 96.7797C248.017 96.4015 248.555 96.1112 249.151 95.9368C249.166 95.9316 249.175 95.9316 249.19 95.9272C253.816 94.5711 262.003 93.166 264.837 92.7108C264.987 92.6866 265.118 92.6624 265.238 92.6433C265.602 92.5854 265.815 92.551 265.834 92.551C267.573 92.3912 268.886 92.6477 269.855 93.2488C271.235 94.0962 271.914 95.6318 272.132 97.6036C272.301 99.1144 272.199 100.882 271.932 102.796Z" fill="#A0A6A7"/>
<path d="M243.847 78.4522C241.371 73.1973 244.866 65.247 255.866 70.0174L243.847 78.4522Z" fill="#A0A6A7"/>
<path d="M249.637 96.0423C250.11 102.176 261.664 99.6311 262.844 93.2943L256.397 93.3016L249.637 96.0423Z" fill="white"/>
<path d="M256.633 84.8602C258.638 90.2361 264.504 87.5386 264.506 78.568C264.508 70.3092 258.13 66.1215 245.814 74.458L256.633 84.8602Z" fill="#A0A6A7"/>
<path d="M251.39 96.9931L261.827 94.9245L259.325 80.9745L248.889 83.0431L251.39 96.9931Z" fill="white"/>
<path d="M250.907 94.297L253.318 93.8645C255.519 93.4694 256.985 91.3642 256.59 89.1622L255.286 81.8951L248.889 83.0423L250.907 94.297Z" fill="white"/>
<path d="M260.222 79.9592V91.038H249.55C246.072 91.038 243.194 88.5091 242.651 85.1863C242.588 84.8132 242.555 84.4306 242.555 84.0428V79.9592C242.555 79.5333 242.584 79.1162 242.647 78.7094C242.764 77.8716 243 77.077 243.345 76.3308C244.725 73.2646 247.806 71.1279 251.391 71.1279C251.614 71.1279 251.842 71.1374 252.055 71.1521C255.349 71.3991 258.139 73.453 259.443 76.3301C259.772 77.0763 260.009 77.8709 260.126 78.7087C260.192 79.1162 260.222 79.5333 260.222 79.9592Z" fill="white"/>
<path d="M248.889 69.9163C249.861 75.8984 257.631 74.9242 257.631 74.9242C257.631 74.9242 256.45 79.3787 258.419 82.2448L262.846 79.6147L260.409 72.5126L248.889 69.9163Z" fill="#A0A6A7"/>
<path d="M257.225 82.4427C259.584 78.8114 261.437 78.7117 262.845 79.6155C264.597 80.7392 264.375 84.2467 262.162 85.6797C260.227 86.9324 257.638 85.569 257.336 83.2842L257.225 82.4427Z" fill="white"/>
<path d="M278.179 107.507L267.82 109.611C263.532 96.5033 267.373 92.504 267.373 92.504C267.373 92.504 269.453 92.7093 270.925 93.575C273.317 94.9743 274.45 96.7782 276.114 100.986C276.776 102.662 277.462 104.785 278.179 107.507Z" fill="#A0A6A7"/>
</g>
<path d="M224.088 36.4242H287.402C291.367 36.4242 294.581 33.2099 294.581 29.2443C294.581 25.2794 291.367 22.0652 287.402 22.0652H224.088C220.123 22.0652 216.908 25.2794 216.908 29.2443C216.908 33.2099 220.122 36.4242 224.088 36.4242Z" fill="white"/>
<path d="M231.006 25.2831L232.293 27.8912L235.171 28.3097L233.088 30.3395L233.58 33.2063L231.006 31.8524L228.431 33.2063L228.922 30.3395L226.84 28.3097L229.718 27.8912L231.006 25.2831Z" fill="#FF5F1F"/>
<path d="M243.374 25.2831L244.661 27.8912L247.539 28.3097L245.456 30.3395L245.948 33.2063L243.374 31.8524L240.8 33.2063L241.291 30.3395L239.209 28.3097L242.087 27.8912L243.374 25.2831Z" fill="#FF5F1F"/>
<path d="M255.745 25.2831L257.032 27.8912L259.911 28.3097L257.828 30.3395L258.319 33.2063L255.745 31.8524L253.171 33.2063L253.663 30.3395L251.58 28.3097L254.458 27.8912L255.745 25.2831Z" fill="#FF5F1F"/>
<path d="M268.117 25.2831L269.403 27.8912L272.282 28.3097L270.199 30.3395L270.69 33.2063L268.117 31.8524L265.542 33.2063L266.034 30.3395L263.951 28.3097L266.829 27.8912L268.117 25.2831Z" fill="#E3E9E7"/>
<path d="M280.484 25.2831L281.771 27.8912L284.649 28.3097L282.567 30.3395L283.058 33.2063L280.484 31.8524L277.91 33.2063L278.402 30.3395L276.318 28.3097L279.197 27.8912L280.484 25.2831Z" fill="#E3E9E7"/>
<path d="M250.777 167.458C253.306 167.617 255.553 166.313 256.779 164.309C257.425 163.251 257.787 161.997 257.749 160.659C257.667 157.646 255.588 155.18 252.844 154.444C252.126 154.252 251.36 154.178 250.573 154.244L222.116 156.641L222.077 156.643L221.893 161.143C221.893 161.143 234.089 166.416 250.777 167.458Z" fill="#E2A8A1"/>
<path d="M216.053 160.078C218.684 157.104 221.349 156.353 224.881 158.174C224.881 158.174 220.339 156.622 216.053 160.078Z" fill="#E2A8A1"/>
<path d="M209.23 165.02L203.311 149.457L217.057 160.613L212.385 167.986L209.23 165.02Z" fill="#EDC9C2"/>
<path d="M211.133 157.143L203.31 149.46L203.387 149.125C203.688 147.809 203.395 146.43 202.586 145.353C202.458 145.179 202.46 144.945 202.582 144.778C202.601 144.752 202.626 144.729 202.649 144.706C203.3 144.11 204.263 144.073 204.948 144.574C205.062 144.657 205.163 144.758 205.262 144.871L205.663 145.42L205.703 145.477C206.391 146.424 206.569 147.646 206.181 148.75L210.975 156.881L211.133 157.143Z" fill="#EDC9C2"/>
<path d="M207.581 155.221L204.509 151.007C205.143 148.879 204.636 147.537 203.826 146.461C203.698 146.287 203.7 146.053 203.823 145.886C203.842 145.859 203.866 145.836 203.889 145.813C204.386 145.354 205.071 145.229 205.665 145.42L205.705 145.477C206.393 146.425 206.571 147.646 206.183 148.75L205.641 151.16L207.581 155.221Z" fill="#E2A8A1"/>
<path d="M205.641 151.158L205.717 150.825C206.018 149.512 205.726 148.132 204.917 147.055C204.768 146.855 204.794 146.575 204.977 146.407C205.737 145.71 206.925 145.784 207.593 146.57L208.032 147.176C208.719 148.123 208.897 149.347 208.511 150.452L213.463 158.845L205.641 151.158Z" fill="#EDC9C2"/>
<path d="M194.155 134.312L191.896 136.57L204.398 149.072L206.656 146.813L194.155 134.312Z" fill="#5E2222"/>
<path d="M233.464 175.2L232.787 175.877C230.697 177.967 227.308 177.967 225.217 175.877L202.009 152.669C199.919 150.578 199.919 147.19 202.009 145.099L202.686 144.423C204.776 142.332 208.165 142.332 210.256 144.423L233.464 167.63C235.553 169.721 235.553 173.111 233.464 175.2Z" fill="#412328"/>
<path d="M143.305 85.7192C129.336 99.6882 129.336 122.343 143.305 136.312C157.279 150.286 179.928 150.281 193.897 136.312C207.872 122.338 207.872 99.6934 193.897 85.7192C179.928 71.7502 157.279 71.7451 143.305 85.7192ZM191.819 134.233C179.002 147.05 158.212 147.05 145.39 134.227C132.572 121.41 132.572 100.62 145.39 87.8024C158.212 74.9799 179.003 74.9799 191.819 87.7966C204.642 100.62 204.642 121.41 191.819 134.233Z" fill="#FF5F1F"/>
<path opacity="0.5" d="M191.822 87.7973C204.645 100.62 204.645 121.41 191.822 134.233C179.005 147.05 158.215 147.05 145.392 134.227C132.575 121.41 132.575 100.62 145.392 87.8024C158.215 74.9798 179.005 74.9798 191.822 87.7973Z" fill="white"/>
<path d="M288.851 301.086C288.851 301.086 297.812 311.807 298.661 319.307C299.175 323.856 292.662 323.628 285.096 323.572L268.242 323.448C266.336 323.434 265.588 320.958 267.175 319.902C267.859 319.447 268.852 319.126 270.287 319.098C270.287 319.098 273.987 315.667 282.759 312.159C282.759 312.159 283.581 301.906 279.909 295.516L288.851 301.086Z" fill="#E2A8A1"/>
<path d="M296.784 313.332L275.616 257.246H258.834L282.757 312.159L296.784 313.332Z" fill="#E2A8A1"/>
<path d="M242.892 221.503L237.328 258.268H251.423L262.204 221.503H242.892Z" fill="#EDC9C2"/>
<path d="M216.774 320.5C215.584 321.599 216.46 323.605 218.079 323.593C221.747 323.566 229.114 323.51 234.364 323.467C236.551 323.453 238.644 323.448 240.488 323.335C240.998 323.305 241.493 323.266 241.959 323.212C245.416 322.844 247.642 321.859 247.299 319.181C246.976 316.686 247.029 314.449 247.235 312.601C247.274 312.224 247.323 311.856 247.378 311.513C247.804 308.708 249.829 283.023 249.829 283.023L236.167 296.99L235.177 310.703C226.822 314.19 220.109 319.393 220.109 319.393C218.451 319.45 217.415 319.907 216.774 320.5Z" fill="#EDC9C2"/>
<path d="M235.093 311.35L234.715 258.879L248.79 258.126L247.235 312.601L235.093 311.35Z" fill="#EDC9C2"/>
<path d="M245.646 134.338L249.803 155.067L261.128 149.835L259.025 130.699L258.977 129.753L245.646 134.338Z" fill="#E2A8A1"/>
<path d="M270.819 155.22C270.627 156.298 270.372 157.359 270.076 158.398C268.95 162.383 267.178 166.064 265.501 169.011C263.113 173.179 260.893 175.878 260.893 175.878L263.664 179.296C265.5 181.564 265.117 184.901 262.817 186.698L244.156 186.785L240.036 186.802C237.688 185.739 236.57 183.049 237.472 180.637L239.413 175.414L239.468 167.637C239.213 167.509 238.974 167.374 238.742 167.214C234.686 164.579 234.214 158.646 238.047 155.444L248.492 147.212H250.121L269.477 147.228L271.09 147.212C271.457 149.894 271.306 152.601 270.819 155.22Z" fill="#FF5F1F"/>
<path d="M256.215 160.147C255.288 163.254 253.939 167.222 252.199 171.326C250.314 175.742 247.615 181.619 244.157 186.786L240.037 186.802C237.689 185.74 236.571 183.049 237.474 180.637L239.414 175.414L239.47 167.637C239.214 167.509 238.975 167.374 238.743 167.214L240.396 164.3L243.887 158.846C244.709 156.89 246.813 155.161 248.745 154.682C249.855 154.411 250.67 155.587 251.844 155.946C255.245 157 257.229 156.721 256.215 160.147Z" fill="#FF5F1F"/>
<path d="M231.344 174.242L213.85 164.283L209.162 164.886C209.162 164.886 215.583 178.822 226.16 186.178C233.434 191.235 240.92 180.497 231.344 174.242Z" fill="#EDC9C2"/>
<path d="M215.918 159.296L215.189 165.865L211.136 165.04L208.922 160.846L213.455 157.803C213.876 157.52 214.408 157.455 214.886 157.63C215.572 157.881 215.998 158.569 215.918 159.296Z" fill="#EDC9C2"/>
<path d="M256.985 160.25C255.34 163.05 253.087 166.582 250.412 170.145C246.841 174.901 241.5 181.528 235.522 186.053C231.266 189.274 228.153 189.085 225.95 187.699C222.342 185.429 221.882 180.32 224.812 177.224L240.635 160.505L246.172 153.068C247.444 151.368 249.4 150.449 251.392 150.449C252.534 150.449 253.689 150.753 254.739 151.38C257.792 153.218 258.791 157.172 256.985 160.25Z" fill="#FF5F1F"/>
<path d="M270.819 155.22C267.602 156.194 264.2 156.553 260.854 156.226C257.675 155.915 247.456 150.952 248.98 148.129C249.196 147.73 269.478 147.227 269.478 147.227L271.091 147.211C271.458 149.894 271.307 152.601 270.819 155.22Z" fill="#FF5F1F"/>
<path d="M263.462 121.605L262.234 126.621L261.671 128.908L260.164 135.045C259.351 138.358 256.88 141.015 253.634 142.064L248.587 143.697C244.212 145.111 239.682 142.1 239.24 137.524C238.916 134.166 238.889 130.245 240.138 126.071C241.591 121.221 245.444 117.413 250.049 115.87L250.068 115.864L250.876 115.617L250.963 115.594C251.367 115.485 251.783 115.395 252.199 115.324C253.185 115.142 254.206 115.059 255.238 115.081L258.511 115.153C261.846 115.225 264.255 118.366 263.462 121.605Z" fill="#EDC9C2"/>
<path d="M239.836 127.96C239.392 130.352 237.98 131.128 236.935 131.368C236.264 131.521 235.822 132.16 235.912 132.842C236.03 133.743 236.667 134.489 237.538 134.747L240.619 135.658C242.277 135.845 243.736 134.564 243.765 132.894L243.862 127.239L239.836 127.96Z" fill="#EDC9C2"/>
<path d="M240.556 130.256C240.527 131.468 240.951 132.462 241.504 132.475C242.057 132.488 242.529 131.516 242.558 130.304C242.587 129.092 242.163 128.098 241.61 128.084C241.057 128.072 240.585 129.044 240.556 130.256Z" fill="#212121"/>
<path d="M242.279 124.625C244.361 125.724 245.013 124.405 243.546 123.323C241.969 122.16 239.689 123.257 242.279 124.625Z" fill="black"/>
<path d="M245.41 136.548C245.41 136.548 241.476 136.202 240.943 136.996C240.41 137.79 244.268 140.501 245.41 136.548Z" fill="white"/>
<path d="M249.078 133.93C244.544 130.866 242.279 124.625 244.338 118.863C244.661 117.968 249.165 115.522 254.727 114.676C259.599 113.935 265.401 114.507 268.344 117.276C273.372 122.008 267.343 134.566 267.343 134.566L249.078 133.93Z" fill="black"/>
<path d="M250.577 137.557C249.777 144.114 246.895 147.21 246.895 147.21C256.928 155.215 273.328 148.839 274.182 143.137C273.435 134.98 273.083 126.869 269.731 119.348L251.06 132.475L250.577 137.557Z" fill="black"/>
<path d="M247.553 132.614C251.018 127.238 254.79 131.07 253.625 135.955C252.459 140.841 248.276 138.64 248.276 138.64L247.553 132.614Z" fill="#EDC9C2"/>
<path d="M249.035 136.829L250.621 134.169" stroke="#E2A8A1" stroke-miterlimit="10"/>
<path d="M275.234 214.893L275.616 257.246L292.228 301.259L276.183 303.466L258.835 260.494L249.828 212.294L275.234 214.893Z" fill="#311116"/>
<path d="M263.902 215.399L270.148 257.925L287.435 302.164" stroke="#412328" stroke-miterlimit="10"/>
<path d="M275.236 214.893L237.75 223.234L239.742 193.317L239.83 192.032L240.037 186.802L260 186.706L262.818 186.698C262.818 186.698 265.501 189.852 268.368 194.419C270.659 198.1 273.079 202.692 274.293 207.275C274.661 208.672 274.972 211.404 275.236 214.893Z" fill="#412328"/>
<path d="M268.365 194.423L239.742 193.318L239.829 192.033L240.041 186.8L260.003 186.707L262.822 186.695C262.822 186.695 265.503 189.854 268.365 194.423Z" fill="#311116"/>
<path d="M250.736 196.834L262.256 195.972L265.032 206.495L260.22 210.631L252.153 207.587L250.736 196.834Z" stroke="#5A4045" stroke-miterlimit="10"/>
<path d="M217.545 153.868C219.27 157.267 224.627 158.244 228.132 156.84C227.084 153.998 223.561 152.548 217.736 151.904L217.545 153.868Z" fill="#E2A8A1"/>
<path d="M238.007 219.349L233.186 254.264L233.023 303.556H249.12L251.42 258.268L266.312 212.294L238.007 219.349Z" fill="#412328"/>
<path d="M245.805 186.695L243.861 219.349L239.006 253.706L239.349 303.556" stroke="#5A4045" stroke-miterlimit="10"/>
<path d="M260.363 187.196C267.943 197.328 272.42 205.951 271.295 215.77" stroke="#5A4045" stroke-miterlimit="10"/>
<path d="M215.188 160.198L214.982 160.284C214.343 160.55 213.611 160.247 213.346 159.608L211.807 155.905C211.542 155.267 211.844 154.534 212.483 154.269L212.69 154.183C213.328 153.918 214.061 154.221 214.326 154.859L215.865 158.562C216.13 159.2 215.827 159.933 215.188 160.198Z" fill="#EDC9C2"/>
<path d="M223.418 154.672L223.333 154.879C223.072 155.52 222.342 155.827 221.702 155.567L214.893 152.795C214.253 152.534 213.946 151.804 214.206 151.163L214.29 150.956C214.551 150.315 215.281 150.008 215.922 150.268L222.73 153.041C223.37 153.301 223.678 154.031 223.418 154.672Z" fill="#E2A8A1"/>
<path d="M248.551 323.593C248.959 316.305 247.232 312.601 247.232 312.601C243.373 312.601 240.547 315.104 238.643 317.72H229.052C228.801 315.974 228.852 314.276 229.667 313.332C229.667 313.332 216.22 317.503 214.738 323.593V325.331H248.614V323.593H248.551Z" fill="#5E2222"/>
<path d="M299.779 323.593H299.788C299.788 316.945 296.51 312.601 296.51 312.601C292.652 312.601 290.271 315.104 288.833 317.72H280.116C279.554 315.974 279.303 314.276 279.949 313.332C279.949 313.332 265.332 317.503 264.936 323.593L264.957 325.331H299.801L299.779 323.593Z" fill="#5E2222"/>
<path d="M41.9355 312.014L59.0631 312.785L62.0201 289.499L44.9218 290.527L41.9355 312.014Z" fill="white"/>
<path d="M38.5957 326H77.4945L77.1529 322.528C77.0378 321.395 76.7431 320.343 76.2901 319.393C75.3314 317.37 73.6535 315.813 71.4611 314.984L70.4796 314.613C69.5171 314.248 68.6404 313.77 67.8546 313.19C67.1788 312.691 66.5719 312.125 66.0485 311.484C64.9028 310.109 64.117 308.423 63.771 306.522H41.9148L39.7744 319.393L38.5957 326Z" fill="black"/>
<path d="M56.8965 308.717H64.5807" stroke="white" stroke-miterlimit="10"/>
<path d="M58.3613 311.393H66.0455" stroke="white" stroke-miterlimit="10"/>
<path d="M47.7154 316.642C47.5974 317.166 47.9258 317.59 48.4499 317.59C48.974 317.59 49.4944 317.166 49.6125 316.642C49.7305 316.118 49.4021 315.693 48.878 315.693C48.3539 315.694 47.8334 316.118 47.7154 316.642Z" stroke="white" stroke-miterlimit="10"/>
<path d="M52.356 316.642C52.238 317.166 52.5664 317.59 53.0898 317.59C53.6132 317.59 54.1336 317.166 54.2523 316.642C54.3704 316.118 54.042 315.693 53.5179 315.693C52.9938 315.693 52.4741 316.118 52.356 316.642Z" stroke="white" stroke-miterlimit="10"/>
<path d="M38.5957 326H77.4945L77.1529 322.528C77.0378 321.395 76.7431 320.343 76.2901 319.393H39.7751L38.5957 326Z" fill="white"/>
<path d="M63.7765 322.696H39.3145" stroke="#D7E0DD" stroke-width="2" stroke-miterlimit="10"/>
<path d="M55.6641 326H77.4954L77.1538 322.528C77.0387 321.395 76.744 320.343 76.291 319.393C75.3323 317.37 73.6544 315.813 71.462 314.984L70.4804 314.613C69.518 314.248 68.6413 313.77 67.8555 313.19C62.3374 315.53 57.6366 320.31 55.6641 326Z" fill="white"/>
<path d="M63.7732 306.522L64.6484 304.587C65.2649 303.224 64.5216 301.927 63.1245 301.927H61.1761C59.6375 301.927 58.0278 302.709 56.9026 304.002L54.7109 306.522H63.7732Z" fill="black"/>
<path d="M88.2474 195.975H47.1569C38.0243 195.047 39.8172 184.99 50.1036 180.209C50.3499 180.088 50.605 179.975 50.8645 179.866L84.2979 178.579C84.8748 178.896 85.481 179.256 86.0909 179.657C86.1246 179.678 86.1539 179.699 86.1869 179.72C92.4314 183.837 99.4156 191.865 88.2474 195.975Z" fill="#5E2222"/>
<path d="M44.7559 207.835H92.486C89.4125 191.714 83.3827 183.13 83.3827 183.13L54.2322 181.394C47.3141 188.212 45.3144 200.303 44.7559 207.835Z" fill="black"/>
<path d="M41.5859 300.647H63.2728L66.8221 254.132L68.6194 203.969L44.754 207.835L45.3734 228.347L46.9743 253.813L41.5859 300.647Z" fill="black"/>
<path d="M45.1836 300.647L50.4327 257.263L53.5231 255.577L50.8366 253.155L49.0246 217.368C48.6529 210.795 49.1954 204.203 50.6365 197.778L52.1333 191.107" stroke="#2D2D2D" stroke-miterlimit="10"/>
<path d="M119.732 149.265C127.101 160.322 111.129 174.808 102.039 158.257L119.732 149.265Z" fill="#450000"/>
<path d="M100.483 155.132C95.7042 142.733 114.452 132.081 119.712 150.216L100.483 155.132Z" fill="#450000"/>
<path d="M115.343 146.78L113.099 163.056C107.468 162.413 82.5267 155.096 74.0267 149.076C70.3887 146.498 69.331 141.551 71.6231 137.723C72.5753 136.136 73.9798 134.955 75.5873 134.267C77.3377 133.518 79.319 133.347 81.2439 133.884L115.343 146.78Z" fill="#450000"/>
<path d="M124.025 126.009L123.189 127.261C122.435 128.39 120.907 128.694 119.778 127.94L119.002 127.421C117.872 126.667 117.568 125.139 118.323 124.01L119.159 122.758C119.913 121.629 121.44 121.325 122.57 122.08L123.346 122.599C124.476 123.352 124.78 124.879 124.025 126.009Z" fill="black"/>
<path d="M129.707 120.561C125.959 125.56 128.424 145.05 121.107 156.56C120.695 157.205 120.224 157.774 119.71 158.269C119.551 158.42 119.388 158.564 119.222 158.7C113.029 163.765 104.318 156.431 107.914 149.285L110.054 145.034L121.166 122.95L129.707 120.561Z" fill="#C3826C"/>
<path d="M119.712 158.27C119.56 158.414 119.405 158.551 119.246 158.683C113.059 163.777 104.316 156.439 107.918 149.282L110.056 145.035C108.657 156.145 113.935 161.944 119.707 158.266C119.71 158.268 119.709 158.267 119.712 158.27Z" fill="#A35D54"/>
<path d="M121.166 122.949L121.043 128.267C130.767 129.192 135.157 123.163 138.568 121.242L130.084 113.37L121.166 122.949Z" fill="#C3826C"/>
<path d="M134.7 116.613C134.562 116.797 134.455 117.009 134.395 117.243C134.379 117.308 134.365 117.368 134.357 117.431C134.248 118.088 134.507 118.738 134.999 119.143C135.186 119.301 135.408 119.422 135.652 119.496L137.19 119.963L139.364 120.619C139.677 120.712 139.99 120.717 140.283 120.649C140.696 120.556 141.061 120.32 141.317 119.977C141.454 119.793 141.558 119.578 141.618 119.344C141.839 118.486 141.395 117.607 140.598 117.261L140.594 117.258C140.551 117.239 140.505 117.223 140.459 117.208L136.779 115.963C136.745 115.95 136.707 115.941 136.669 115.932C135.914 115.727 135.142 116.021 134.7 116.613Z" fill="#C3826C"/>
<path d="M144.262 107.992C144.085 107.106 143.184 106.566 142.32 106.826L134.869 109.064L128.533 113.833L132.07 119.491L138.153 111.879L143.351 109.706C144.024 109.426 144.406 108.708 144.262 107.992Z" fill="#C3826C"/>
<path d="M128.533 113.834L129.831 112.857L135.715 111.722L137.266 112.989L131.735 119.638L128.533 113.834Z" fill="#A35D54"/>
<path d="M141.331 122.846C141.164 123.463 140.676 123.969 140.01 124.13L136.226 125.018C135.254 125.244 134.269 124.657 134.01 123.692C133.937 123.414 133.936 123.134 133.985 122.867C133.991 122.814 134.003 122.771 134.015 122.727C134.024 122.691 134.037 122.647 134.054 122.613C134.258 122.006 134.77 121.523 135.444 121.394L139.249 120.629C139.79 120.527 140.334 120.674 140.734 121.009C140.791 121.056 140.847 121.109 140.902 121.163C141.098 121.357 141.248 121.608 141.326 121.893C141.415 122.223 141.412 122.549 141.331 122.846Z" fill="#C3826C"/>
<path d="M140.734 121.009C140.56 121.305 140.298 121.553 139.96 121.71L136.451 123.365C135.575 123.782 134.261 123.616 133.805 122.393C134.008 121.786 134.771 121.523 135.444 121.394L139.25 120.629C139.79 120.527 140.334 120.675 140.734 121.009Z" fill="#A35D54"/>
<path d="M138.883 119.742C138.789 120.237 138.489 120.692 138.017 120.962L135.67 122.246C134.803 122.747 133.695 122.46 133.175 121.612C132.949 121.232 132.867 120.82 132.92 120.416C132.919 120.378 132.928 120.334 132.935 120.297C133.037 119.758 133.365 119.277 133.884 119.001L136.288 117.819C136.695 117.606 137.155 117.564 137.57 117.673C138.001 117.778 138.385 118.049 138.638 118.449C138.892 118.849 138.966 119.307 138.883 119.742Z" fill="#A35D54"/>
<path d="M133.735 120.452C133.726 120.49 133.714 120.532 133.709 120.572C133.698 120.622 133.694 120.669 133.686 120.714L133.69 120.717C133.643 121.069 133.7 121.436 133.874 121.782C134.324 122.67 135.408 123.041 136.314 122.61L139.827 120.959C139.997 120.876 140.15 120.773 140.281 120.649C140.528 120.42 140.703 120.125 140.788 119.806C140.904 119.378 140.866 118.918 140.645 118.498C140.516 118.262 140.35 118.068 140.148 117.912C139.993 117.796 139.82 117.705 139.636 117.644C139.233 117.503 138.772 117.508 138.35 117.69L134.997 119.142L134.782 119.235C134.244 119.472 133.88 119.925 133.735 120.452Z" fill="#C3826C"/>
<path d="M135.02 119.112L134.804 119.205C134.267 119.44 133.903 119.894 133.758 120.421C133.749 120.458 133.737 120.501 133.732 120.541C133.721 120.59 133.717 120.638 133.709 120.682L133.713 120.685C134.328 121.207 135.245 121.274 135.943 120.798L137.211 119.932L139.959 118.053C140.036 118.002 140.111 117.944 140.17 117.88C140.373 117.694 140.519 117.473 140.618 117.229L140.614 117.226C140.571 117.207 140.525 117.192 140.479 117.176L136.799 115.932C136.765 115.919 136.727 115.91 136.689 115.9L134.377 117.399C134.269 118.056 134.528 118.707 135.02 119.112Z" fill="#A35D54"/>
<path d="M133.537 114.159C133.345 114.416 133.219 114.722 133.181 115.062C133.072 116.062 133.778 116.963 134.767 117.103L136.009 117.279L138.613 117.639C139.004 117.695 139.386 117.618 139.706 117.443C139.94 117.325 140.14 117.151 140.299 116.938C140.491 116.681 140.614 116.372 140.645 116.032C140.732 115.106 140.088 114.263 139.173 114.102L137.933 113.89L136.618 113.659L135.345 113.44C134.627 113.312 133.943 113.615 133.537 114.159Z" fill="#C3826C"/>
<path d="M137.983 116.881C137.967 117.384 137.739 117.88 137.314 118.22L135.192 119.848C134.412 120.476 133.273 120.362 132.63 119.604C132.348 119.264 132.203 118.868 132.194 118.462C132.188 118.424 132.189 118.379 132.19 118.342C132.209 117.794 132.459 117.268 132.93 116.916L135.124 115.38C135.494 115.107 135.941 114.994 136.369 115.038C136.811 115.076 137.232 115.285 137.544 115.642C137.855 115.998 137.998 116.438 137.983 116.881Z" fill="#A35D54"/>
<path d="M139.891 116.621C139.835 117.121 139.57 117.598 139.12 117.903L135.898 120.075C135.071 120.64 133.945 120.438 133.362 119.632C133.107 119.271 132.994 118.865 133.017 118.459C133.014 118.421 133.018 118.376 133.022 118.339C133.083 117.794 133.374 117.29 133.87 116.975L137.157 114.901C137.547 114.657 138.002 114.579 138.424 114.656C138.862 114.728 139.265 114.97 139.548 115.349C139.831 115.73 139.94 116.18 139.891 116.621Z" fill="#C3826C"/>
<path d="M123.535 123.042L129.802 115.342L135.775 114.329L134.88 117.853L132.676 118.953C132.676 118.953 131.822 127.03 123.535 123.042Z" fill="#A35D54"/>
<path d="M135.775 114.329L138.29 116.784C138.837 117.317 138.855 118.19 138.33 118.745C137.864 119.238 137.111 119.326 136.544 118.952L134.879 117.854L135.775 114.329Z" fill="#A35D54"/>
<path d="M121.168 122.949L128.533 113.833L135.58 112.613L134.538 116.777L131.941 118.085C131.941 118.085 130.967 127.623 121.168 122.949Z" fill="#C3826C"/>
<path d="M136.615 113.659L135.273 116.575L136.006 117.28L136.97 118.203C137.022 118.253 137.076 118.3 137.129 118.34C137.705 118.769 138.496 118.781 139.088 118.346C139.404 118.118 139.612 117.796 139.703 117.444C139.829 116.985 139.756 116.479 139.462 116.063L137.93 113.89L136.615 113.659Z" fill="#A35D54"/>
<path d="M135.581 112.613L138.561 115.5C139.208 116.128 139.233 117.158 138.616 117.816C138.068 118.4 137.179 118.505 136.509 118.067L134.539 116.778L135.581 112.613Z" fill="#C3826C"/>
<path d="M120.918 122.815L128.291 128.052L127.678 130.992L119.148 125.819L120.918 122.815Z" fill="black"/>
<path d="M89.2366 191.891L57.6628 191.945L46.1934 191.966C46.1934 191.966 48.2832 186.9 50.1054 180.208C51.6352 174.587 52.9767 167.824 52.7348 161.956C52.5926 158.449 52.133 154.762 52.1374 150.984C52.1418 148.585 50.1348 131.993 52.1374 130.466C56.7531 126.947 70.0221 126.386 69.2239 127.139L79.6187 133.049C80.2 135.043 85.8295 142.847 86.737 147.369C86.8125 147.708 86.8748 148.063 86.9335 148.41C87.1131 149.593 87.2303 150.801 87.2179 152.039C87.2223 152.382 87.2135 152.745 87.168 153.109C87.1468 153.631 87.0889 154.175 87.0009 154.702C86.4951 157.828 85.0408 160.934 81.9937 163.659L82.0399 163.868L82.0479 163.914L84.0667 171.763L86.0942 179.659L86.1484 179.867L89.2366 191.891Z" fill="#5E2222"/>
<mask id="mask4_4025_6432" style="mask-type:luminance" maskUnits="userSpaceOnUse" x="52" y="126" width="36" height="63">
<path d="M86.5883 188.062L53.0589 187.46C53.0589 187.46 53.2641 174.81 52.7305 161.955C52.5018 156.223 51.4133 150.008 52.913 143.7C56.8779 127.112 70.0178 126.385 69.2196 127.138L79.6174 133.051C80.1965 135.044 85.8245 142.847 86.7349 147.37C86.809 147.707 86.8727 148.063 86.9284 148.409C87.1095 149.593 87.226 150.803 87.2158 152.037C87.2165 152.382 87.2085 152.744 87.1637 153.107C87.1425 153.632 87.0838 154.175 86.9995 154.7C86.4908 157.829 85.038 160.934 81.9887 163.658L82.0385 163.868L82.0466 163.913L86.5883 188.062Z" fill="white"/>
</mask>
<g mask="url(#mask4_4025_6432)">
<path d="M69.6809 155.115L63.7604 164.362L57.8398 155.115L63.7604 145.869L69.6809 155.115Z" stroke="#FF5F1F" stroke-miterlimit="10"/>
<path d="M81.4575 155.115L75.5377 164.362L69.6172 155.115L75.5377 145.869L81.4575 155.115Z" stroke="#FF5F1F" stroke-miterlimit="10"/>
<path d="M93.2349 155.115L87.3143 164.362L81.3945 155.115L87.3143 145.869L93.2349 155.115Z" stroke="#FF5F1F" stroke-miterlimit="10"/>
</g>
<path opacity="0.4" d="M58.8059 188.062L57.661 191.945L56.8708 194.616L54.7597 195.975H47.1569C38.0243 195.047 39.8172 184.99 50.1036 180.209C51.6334 174.587 52.9748 167.825 52.7329 161.956C52.5907 158.449 52.1311 154.763 52.1355 150.984L62.5494 140.214L62.2892 165.621H82.8795L84.0641 171.762L58.8059 188.062Z" fill="#450000"/>
<path d="M94.2042 102.961C95.0859 99.2427 92.786 95.5132 89.0672 94.6314C85.3484 93.7497 81.6189 96.0496 80.7372 99.7684C79.8554 103.487 82.1553 107.217 85.8741 108.098C89.593 108.98 93.3225 106.68 94.2042 102.961Z" fill="black"/>
<path d="M80.4243 100.453C84.2463 100.453 87.3447 97.3544 87.3447 93.5324C87.3447 89.7104 84.2463 86.612 80.4243 86.612C76.6023 86.612 73.5039 89.7104 73.5039 93.5324C73.5039 97.3544 76.6023 100.453 80.4243 100.453Z" fill="black"/>
<path d="M78.112 97.6275C78.9865 93.9067 76.6792 90.1816 72.9584 89.3071C69.2377 88.4326 65.5125 90.74 64.6381 94.4607C63.7636 98.1814 66.0709 101.907 69.7917 102.781C73.5124 103.656 77.2376 101.348 78.112 97.6275Z" fill="black"/>
<path d="M62.6925 100.276C59.8976 107.435 60.8864 111.993 65.401 114.968L69.6774 110.302L67.1199 99.0762L62.6925 100.276Z" fill="black"/>
<path d="M65.1113 110.302L66.7372 127.735L79.721 136.51L79.9057 115.018L65.1113 110.302Z" fill="#C3826C"/>
<path d="M62.9902 115.175L66.0674 120.55L67.9923 116.453L62.9902 115.175Z" fill="black"/>
<path d="M79.7823 129.169C79.7823 129.169 71.7734 127.724 71.541 118.684L79.9032 121.407L79.7823 129.169Z" fill="#A35D54"/>
<path d="M85.1379 97.611C89.0104 102.359 89.5191 108.613 89.5191 108.613L85.3197 109.277L82.1289 99.2185L85.1379 97.611Z" fill="black"/>
<path d="M66.4269 103.172L67.676 108.118L68.2485 110.372L69.7804 116.424C70.6073 119.691 73.0673 122.297 76.2808 123.31L81.277 124.886C85.6084 126.253 90.0622 123.246 90.4653 118.722C90.7607 115.403 90.7593 111.529 89.4956 107.415C88.0251 102.636 84.1929 98.9017 79.6329 97.4108L79.6145 97.4049L78.8141 97.1659L78.7276 97.1439C78.3281 97.0399 77.9162 96.9541 77.5057 96.8867C76.53 96.7137 75.5207 96.6389 74.5025 96.669L71.2699 96.7635C67.9772 96.8588 65.6199 99.9785 66.4269 103.172Z" fill="#C3826C"/>
<path d="M89.1777 115.008C91.5023 115.008 93.3867 112.918 93.3867 110.341C93.3867 107.764 91.5023 105.675 89.1777 105.675C86.8532 105.675 84.9688 107.764 84.9688 110.341C84.9688 112.918 86.8532 115.008 89.1777 115.008Z" stroke="white" stroke-miterlimit="10"/>
<path d="M87.5923 111.323C87.7066 112.509 87.3606 113.511 86.8204 113.563C86.2802 113.615 85.7495 112.697 85.6351 111.512C85.5208 110.326 85.8668 109.324 86.407 109.272C86.9472 109.22 87.4779 110.138 87.5923 111.323Z" fill="black"/>
<path d="M84.1706 109.561C85.2547 112.17 87.0462 112.707 88.2901 112.725C89.0891 112.737 89.7451 113.354 89.8096 114.151C89.8939 115.201 89.3522 116.203 88.4257 116.707L85.1499 118.489C83.3129 119.103 81.3463 118.003 80.9087 116.116L79.4258 109.72L84.1706 109.561Z" fill="#C3826C"/>
<path d="M86.3576 118.069L86.1582 117.701L88.3236 116.523C89.1761 116.06 89.6767 115.135 89.599 114.167C89.5433 113.474 88.9781 112.944 88.2847 112.934C86.9345 112.914 85.091 112.328 83.9746 109.641L84.3609 109.481C85.3901 111.957 87.0657 112.498 88.2906 112.516C89.2002 112.529 89.9421 113.225 90.0154 114.134C90.1063 115.267 89.5198 116.349 88.5229 116.891L86.3576 118.069Z" fill="#A35D54"/>
<path d="M80.4009 112.395C80.5152 113.58 80.1692 114.583 79.629 114.635C79.0888 114.687 78.5581 113.769 78.4437 112.583C78.3294 111.398 78.6753 110.395 79.2156 110.343C79.7558 110.291 80.2865 111.21 80.4009 112.395Z" fill="black"/>
<path d="M77.352 107.688C74.6582 108.811 73.9178 107.428 75.8501 106.258C77.9289 104.998 80.7033 106.29 77.352 107.688Z" fill="black"/>
<path d="M85.1132 106.425C83.0116 106.084 83.5951 104.761 85.3529 104.741C87.244 104.72 87.7278 106.85 85.1132 106.425Z" fill="black"/>
<path d="M85.1594 118.946L80.3105 118.572C80.3105 118.572 80.8559 121.373 82.2633 121.676C83.7931 122.005 85.1594 118.946 85.1594 118.946Z" fill="white"/>
<path d="M78.5222 117.155C80.8471 117.155 82.7319 115.066 82.7319 112.489C82.7319 109.912 80.8471 107.823 78.5222 107.823C76.1972 107.823 74.3125 109.912 74.3125 112.489C74.3125 115.066 76.1972 117.155 78.5222 117.155Z" stroke="white" stroke-miterlimit="10"/>
<path d="M74.319 111.617L69.6094 110.284" stroke="white" stroke-miterlimit="10"/>
<path d="M73.4201 96.7108C75.9637 102.72 71.1749 110.94 61.1326 110.341C56.9039 101.799 57.0842 94.1599 73.4201 96.7108Z" fill="black"/>
<path d="M69.9675 111.01C59.8827 97.1542 54.6446 119.095 69.4669 117.944L69.9675 111.01Z" fill="#C3826C"/>
<path d="M69.8613 102.137L70.0496 113.775L69.074 114.425L65.4023 103.236L69.8613 102.137Z" fill="black"/>
<path d="M70.4141 97.9679C78.4765 101.126 85.822 98.5154 85.822 98.5154C85.822 98.5154 83.1443 92.0693 70.4141 97.9679Z" fill="black"/>
<path d="M60.2239 99.2887C60.2239 95.1919 55.6997 97.1557 58.8055 99.8084C53.357 99.0725 57.4817 105.829 59.99 103.466" fill="black"/>
<path d="M80.2201 136.739C81.969 127.232 73.0248 125.218 66.2672 122.44L62.5508 127.221L80.2201 136.739Z" fill="white"/>
<path d="M48.3943 163.984C55.5324 162.604 62.1002 164.605 58.5883 171.657L47.7266 172.296L48.3943 163.984Z" fill="#5E2222"/>
<path d="M46.8013 184.407C27.5252 189.391 30.642 168.718 42.1166 165.62L46.8013 184.407Z" fill="#5E2222"/>
<path d="M47.6653 179.186L36.1893 180.875C34.1369 164.614 38.9571 146.881 49.753 132.575C52.2738 129.235 56.9416 128.397 60.4659 130.654C63.5043 132.601 64.8647 136.34 63.7872 139.783L47.6653 179.186Z" fill="#5E2222"/>
<path d="M78.1786 171.186L91.548 157.758L72.0851 163.016L71.6738 169.948L78.1786 171.186Z" fill="#C3826C"/>
<path d="M73.7745 163.405L70.9194 163.543C70.0757 163.584 69.4204 162.818 69.5919 161.991L69.6447 161.736C69.9687 160.171 71.5681 159.224 73.0964 159.693C74.1212 160.007 74.8652 160.896 74.9942 161.959C75.0851 162.704 74.5243 163.369 73.7745 163.405Z" fill="#C3826C"/>
<path d="M79.8574 162.117L91.5504 157.761L91.6267 157.378C91.9235 155.871 92.8669 154.573 94.2076 153.83C94.4216 153.708 94.5279 153.464 94.4781 153.234C94.47 153.198 94.4568 153.163 94.4429 153.128C94.0427 152.207 93.059 151.722 92.1149 151.924C91.9573 151.958 91.8055 152.016 91.6494 152.087L90.9787 152.471L90.9113 152.511C89.756 153.176 89.0047 154.363 88.8969 155.69L80.1433 161.916L79.8574 162.117Z" fill="#C3826C"/>
<path d="M84.4414 161.768L89.5886 158.814C89.9163 156.308 91.0656 155.149 92.4063 154.405C92.6204 154.284 92.7266 154.039 92.6775 153.809C92.6695 153.773 92.6555 153.738 92.6423 153.703C92.3389 152.996 91.6858 152.547 90.9791 152.471L90.9117 152.511C89.7565 153.176 89.0051 154.363 88.8974 155.69L88.3425 158.446L84.4414 161.768Z" fill="#A35D54"/>
<path d="M88.3412 158.447L88.416 158.065C88.7121 156.56 89.6555 155.263 90.9954 154.518C91.2432 154.38 91.3458 154.076 91.2329 153.816C90.766 152.739 89.4986 152.266 88.4394 152.772L87.7013 153.198C86.5483 153.864 85.7947 155.053 85.684 156.38L76.6445 162.806L88.3412 158.447Z" fill="#C3826C"/>
<path d="M48.532 168.624L73.3599 166.44L78.1817 171.186C78.1817 171.186 63.1241 182.722 47.3167 184.664C40.4799 185.504 36.4483 177.222 41.3368 172.37L42.105 171.608C43.8334 169.894 46.1072 168.838 48.532 168.624Z" fill="#C3826C"/>
<path d="M45.7227 198.03L74.1701 201.975L75.7256 191.968L47.8931 191.965L45.7227 198.03Z" fill="white"/>
<path d="M77.9277 191.968L79.7309 201.975L90.0378 198.03L87.8688 191.968H77.9277Z" fill="white"/>
<path d="M93.4042 311.591H110.309L107.603 289.496L90.8555 290.777L93.4042 311.591Z" fill="white"/>
<path d="M92.0829 325.38H130.436L129.433 321.957C129.102 320.84 128.61 319.803 127.981 318.866C126.648 316.871 124.695 315.336 122.375 314.518L121.336 314.152C120.317 313.793 119.361 313.321 118.475 312.749C117.713 312.257 117.005 311.699 116.368 311.068C114.974 309.712 113.877 308.05 113.171 306.176H91.6211L91.9788 318.866L92.0829 325.38Z" fill="black"/>
<path d="M106.812 308.339H114.388" stroke="white" stroke-miterlimit="10"/>
<path d="M108.768 310.978H116.344" stroke="white" stroke-miterlimit="10"/>
<path d="M99.2798 316.153C99.2636 316.669 99.669 317.088 100.186 317.088C100.702 317.088 101.134 316.669 101.15 316.153C101.167 315.637 100.761 315.218 100.244 315.218C99.7276 315.218 99.2959 315.637 99.2798 316.153Z" stroke="white" stroke-miterlimit="10"/>
<path d="M103.854 316.153C103.838 316.669 104.243 317.088 104.76 317.088C105.276 317.088 105.708 316.669 105.725 316.153C105.741 315.637 105.335 315.218 104.819 315.218C104.302 315.218 103.87 315.637 103.854 316.153Z" stroke="white" stroke-miterlimit="10"/>
<path d="M92.0826 325.38H130.435L129.433 321.957C129.102 320.84 128.609 319.803 127.981 318.865H91.9785L92.0826 325.38Z" fill="white"/>
<path d="M91.875 322.123H115.993" stroke="#D7E0DD" stroke-width="2" stroke-miterlimit="10"/>
<path d="M108.91 325.38H130.434L129.432 321.957C129.101 320.84 128.608 319.803 127.98 318.866C126.647 316.871 124.694 315.336 122.373 314.518L121.335 314.152C120.316 313.793 119.36 313.321 118.474 312.749C113.482 315.056 109.764 319.769 108.91 325.38Z" fill="white"/>
<path d="M113.17 306.176L113.662 304.268C114.008 302.924 113.027 301.646 111.65 301.646H109.728C108.211 301.646 106.774 302.416 105.912 303.691L104.234 306.176H113.17Z" fill="black"/>
<path d="M69.5664 203.963L86.0262 254.686L88.3755 301.343L110.112 300.939L105.727 252.653C105.727 252.653 102.096 240.572 98.148 226.455C96.3983 220.204 94.7234 214.408 93.5117 210.266C92.3829 206.393 91.6572 203.963 91.6572 203.963H69.5664Z" fill="black"/>
<path d="M93.3342 301.251L90.9438 254.107L77.5392 207.764L71.5703 207.835" stroke="#2D2D2D" stroke-miterlimit="10"/>
<path d="M112.922 182.711C112.491 182.966 112.084 183.235 111.697 183.518" stroke="#FF5F1F" stroke-miterlimit="10"/>
<path d="M110.634 184.378C102.953 191.258 106.071 204.253 113.752 208.445" stroke="#FF5F1F" stroke-miterlimit="10" stroke-dasharray="3.72 1.86"/>
<path d="M114.352 208.751C114.793 208.959 115.248 209.139 115.716 209.287" stroke="#FF5F1F" stroke-miterlimit="10"/>
<path d="M114.796 206.953C116.095 206.471 117.539 207.134 118.021 208.433C118.502 209.733 117.84 211.176 116.541 211.658C115.241 212.14 113.798 211.477 113.316 210.178C112.833 208.879 113.496 207.435 114.796 206.953Z" fill="#FF5F1F"/>
<path d="M196.84 212.736C197.228 213.051 197.623 213.339 198.024 213.601" stroke="#AABC95" stroke-miterlimit="10"/>
<path d="M199.199 214.296C208.333 219.084 219.414 211.616 220.654 202.954" stroke="#AABC95" stroke-miterlimit="10" stroke-dasharray="3.72 1.86"/>
<path d="M220.73 202.283C220.771 201.797 220.78 201.308 220.755 200.818" stroke="#AABC95" stroke-miterlimit="10"/>
<path d="M218.892 202.498C217.986 201.45 218.102 199.865 219.15 198.959C220.199 198.053 221.783 198.169 222.689 199.217C223.595 200.266 223.479 201.85 222.431 202.756C221.382 203.662 219.798 203.547 218.892 202.498Z" fill="#AABC95"/>
<path d="M140.528 11.0436C140.34 10.5803 140.133 10.1376 139.91 9.71393" stroke="#D7E0DD" stroke-miterlimit="10"/>
<path d="M139.212 8.53676C133.528 -0.0680753 120.218 1.11794 114.947 8.10355" stroke="#D7E0DD" stroke-miterlimit="10" stroke-dasharray="3.72 1.86"/>
<path d="M114.559 8.65393C114.289 9.06002 114.045 9.4837 113.83 9.92497" stroke="#D7E0DD" stroke-miterlimit="10"/>
<path d="M116.275 9.35397C116.562 10.7093 115.695 12.0412 114.339 12.3278C112.984 12.6144 111.652 11.748 111.365 10.3919C111.079 9.03585 111.945 7.7047 113.301 7.41809C114.657 7.13148 115.988 7.99863 116.275 9.35397Z" fill="#D7E0DD"/>
<path d="M29.5632 206.795C29.5632 207.97 28.6103 208.923 27.4346 208.923C26.2588 208.923 25.3066 207.97 25.3066 206.795C25.3066 205.62 26.2596 204.667 27.4346 204.667C28.6096 204.667 29.5632 205.62 29.5632 206.795Z" fill="#AABC95"/>
<path d="M198.634 24.1975C199.812 24.1975 200.767 23.2428 200.767 22.0652C200.767 20.8875 199.812 19.9329 198.634 19.9329C197.457 19.9329 196.502 20.8875 196.502 22.0652C196.502 23.2428 197.457 24.1975 198.634 24.1975Z" fill="#AABC95"/>
<path d="M326.54 43.4143C326.54 42.2326 325.582 41.2753 324.401 41.2753C323.219 41.2753 322.262 42.2334 322.262 43.4143C322.262 44.5959 323.22 45.5532 324.401 45.5532C325.582 45.5532 326.54 44.5951 326.54 43.4143Z" fill="#AABC95"/>
<path d="M3.30955 157.365C5.13737 157.365 6.6191 155.884 6.6191 154.056C6.6191 152.228 5.13737 150.746 3.30955 150.746C1.48174 150.746 0 152.228 0 154.056C0 155.884 1.48174 157.365 3.30955 157.365Z" fill="#AABC95"/>
<path d="M284.342 178.006C284.342 179.024 283.517 179.849 282.499 179.849C281.482 179.849 280.656 179.024 280.656 178.006C280.656 176.989 281.481 176.163 282.499 176.163C283.517 176.163 284.342 176.988 284.342 178.006Z" fill="#AABC95"/>
<path d="M326.043 153.824C326.043 155.913 324.349 157.607 322.26 157.607C320.171 157.607 318.477 155.913 318.477 153.824C318.477 151.735 320.171 150.041 322.26 150.041C324.349 150.041 326.043 151.735 326.043 153.824Z" fill="#D7E0DD"/>
<path d="M271.806 2.47025C271.806 1.10612 270.7 0 269.335 0C267.971 0 266.865 1.10612 266.865 2.47025C266.865 3.83439 267.971 4.93977 269.335 4.93977C270.7 4.93977 271.806 3.83439 271.806 2.47025Z" fill="#D7E0DD"/>
<path d="M23.8317 43.4141C23.8317 45.3229 22.2844 46.871 20.3749 46.871C18.4661 46.871 16.918 45.3236 16.918 43.4141C16.918 41.5053 18.4654 39.9572 20.3749 39.9572C22.2844 39.9572 23.8317 41.5046 23.8317 43.4141Z" fill="#D7E0DD"/>
<path d="M138.617 219.894C138.617 218.698 137.648 217.73 136.453 217.73C135.258 217.73 134.289 218.699 134.289 219.894C134.289 221.088 135.258 222.057 136.453 222.057C137.648 222.058 138.617 221.089 138.617 219.894Z" fill="#D7E0DD"/>
<path d="M48.4092 97.1345V103.361L54.027 110.056H30.4255C23.2888 110.056 17.5039 104.271 17.5039 97.1345C17.5039 89.9979 23.2888 84.213 30.4255 84.213H35.4876C42.6243 84.213 48.4092 89.9986 48.4092 97.1345Z" fill="#FF5F1F"/>
<path d="M38.4531 100.036C38.4531 101.304 39.4815 102.332 40.7497 102.332C42.0178 102.332 43.0462 101.304 43.0462 100.036C43.0462 98.7677 42.0178 97.7393 40.7497 97.7393C39.4815 97.7393 38.4531 98.7677 38.4531 100.036Z" fill="white"/>
<path d="M30.6484 100.036C30.6484 101.304 31.6769 102.332 32.945 102.332C34.2131 102.332 35.2415 101.304 35.2415 100.036C35.2415 98.7677 34.2131 97.7393 32.945 97.7393C31.6769 97.7393 30.6484 98.7677 30.6484 100.036Z" fill="white"/>
<path d="M22.8418 100.036C22.8418 101.304 23.8702 102.332 25.1383 102.332C26.4064 102.332 27.4349 101.304 27.4349 100.036C27.4349 98.7677 26.4064 97.7393 25.1383 97.7393C23.8702 97.7393 22.8418 98.7677 22.8418 100.036Z" fill="white"/>
<path d="M281.942 122.967V129.193L276.324 135.888H299.926C307.062 135.888 312.847 130.103 312.847 122.967C312.847 115.83 307.062 110.045 299.926 110.045H294.864C287.727 110.044 281.942 115.83 281.942 122.967Z" fill="#FF5F1F"/>
<path d="M291.9 125.867C291.9 127.135 290.871 128.164 289.603 128.164C288.335 128.164 287.307 127.135 287.307 125.867C287.307 124.599 288.335 123.571 289.603 123.571C290.872 123.571 291.9 124.599 291.9 125.867Z" fill="white"/>
<path d="M299.704 125.867C299.704 127.135 298.676 128.164 297.408 128.164C296.14 128.164 295.111 127.135 295.111 125.867C295.111 124.599 296.14 123.571 297.408 123.571C298.677 123.571 299.704 124.599 299.704 125.867Z" fill="white"/>
<path d="M307.511 125.867C307.511 127.135 306.483 128.164 305.214 128.164C303.946 128.164 302.918 127.135 302.918 125.867C302.918 124.599 303.946 123.571 305.214 123.571C306.483 123.571 307.511 124.599 307.511 125.867Z" fill="white"/>
<path d="M135.863 231.918L124.314 241.677C127.612 240.85 133.1 242.055 135.041 243.394L135.863 231.918Z" fill="#F2F5F4"/>
<path d="M18.3398 326H322.849" stroke="#A0A6A7" stroke-miterlimit="10"/>
<path d="M7.68164 326H16.9762" stroke="#A0A6A7" stroke-miterlimit="10"/>
</svg>
