<svg width="36" height="36" viewBox="0 0 36 36" fill="none" xmlns="http://www.w3.org/2000/svg">
<path d="M17.9922 0.5C27.6528 0.50002 35.4844 8.33155 35.4844 17.9922C35.4844 27.6528 27.6528 35.4844 17.9922 35.4844C8.33155 35.4844 0.50002 27.6528 0.5 17.9922C0.5 8.33154 8.33154 0.5 17.9922 0.5Z" fill="white" fill-opacity="0.2"/>
<path d="M17.9922 0.5C27.6528 0.50002 35.4844 8.33155 35.4844 17.9922C35.4844 27.6528 27.6528 35.4844 17.9922 35.4844C8.33155 35.4844 0.50002 27.6528 0.5 17.9922C0.5 8.33154 8.33154 0.5 17.9922 0.5Z" stroke="white"/>
<path fill-rule="evenodd" clip-rule="evenodd" d="M25.8708 12.5059C25.95 12.6261 25.9852 12.7699 25.9707 12.9131C25.9561 13.0563 25.8925 13.19 25.7908 13.2918L18.1299 20.9518C18.0516 21.0301 17.9538 21.0862 17.8466 21.1143L14.6558 21.9476C14.5503 21.9751 14.4395 21.9746 14.3343 21.946C14.2291 21.9174 14.1332 21.8619 14.0561 21.7848C13.979 21.7077 13.9234 21.6118 13.8949 21.5066C13.8663 21.4014 13.8658 21.2906 13.8933 21.1851L14.7266 17.9951C14.7515 17.8996 14.7974 17.8108 14.8608 17.7351L22.5499 10.0509C22.6671 9.93391 22.826 9.86816 22.9916 9.86816C23.1572 9.86816 23.3161 9.93391 23.4333 10.0509L25.7908 12.4076C25.8199 12.4383 25.8466 12.4712 25.8708 12.5059ZM24.4649 12.8493L22.9916 11.3768L15.8933 18.4751L15.3724 20.4693L17.3666 19.9484L24.4649 12.8493Z" fill="white"/>
<path d="M24.3603 22.2927C24.5881 20.346 24.6609 18.3843 24.5778 16.4261C24.5759 16.3799 24.5835 16.3339 24.6003 16.2908C24.6171 16.2478 24.6427 16.2087 24.6753 16.1761L25.4953 15.3561C25.5178 15.3335 25.5462 15.318 25.5772 15.3112C25.6083 15.3044 25.6406 15.3068 25.6704 15.318C25.7001 15.3291 25.726 15.3487 25.7449 15.3742C25.7639 15.3997 25.775 15.4302 25.777 15.4619C25.9309 17.7879 25.8724 20.1232 25.602 22.4386C25.4053 24.1236 24.052 25.4444 22.3745 25.6319C19.4623 25.9542 16.5234 25.9542 13.6112 25.6319C11.9345 25.4444 10.5803 24.1236 10.3837 22.4386C10.0388 19.4847 10.0388 16.5008 10.3837 13.5469C10.5803 11.8619 11.9337 10.5411 13.6112 10.3536C15.8216 10.1094 18.0484 10.0501 20.2687 10.1761C20.3005 10.1784 20.3309 10.1897 20.3564 10.2087C20.382 10.2278 20.4015 10.2538 20.4127 10.2836C20.4239 10.3134 20.4264 10.3458 20.4198 10.377C20.4131 10.4081 20.3977 10.4367 20.3753 10.4594L19.5478 11.2861C19.5155 11.3184 19.4768 11.3438 19.4342 11.3606C19.3917 11.3774 19.3461 11.3852 19.3003 11.3836C17.4476 11.3201 15.5928 11.3911 13.7503 11.5961C13.212 11.6557 12.7094 11.895 12.3238 12.2754C11.9382 12.6559 11.6922 13.1552 11.6253 13.6927C11.2911 16.5497 11.2911 19.4358 11.6253 22.2927C11.6922 22.8303 11.9382 23.3296 12.3238 23.71C12.7094 24.0905 13.212 24.3298 13.7503 24.3894C16.5462 24.7019 19.4395 24.7019 22.2362 24.3894C22.7746 24.3298 23.2771 24.0905 23.6627 23.71C24.0483 23.3296 24.2935 22.8303 24.3603 22.2927Z" fill="white"/>
</svg>
