<svg width="52" height="52" viewBox="0 0 52 52" fill="none" xmlns="http://www.w3.org/2000/svg">
<g filter="url(#filter0_dd_4077_17449)">
<path d="M12 15.9957C12 8.26609 18.2661 2 25.9957 2C33.7253 2 39.9914 8.26609 39.9914 15.9957C39.9914 23.7253 33.7253 29.9914 25.9957 29.9914C18.2661 29.9914 12 23.7253 12 15.9957Z" fill="#FF6900" shape-rendering="crispEdges"/>
<g clip-path="url(#clip0_4077_17449)">
<path d="M32.0984 12.5394C32.4505 12.1873 32.6484 11.7098 32.6485 11.2118C32.6485 10.7138 32.4508 10.2362 32.0987 9.88408C31.7466 9.53192 31.2691 9.33405 30.7711 9.33398C30.2732 9.33392 29.7956 9.53168 29.4434 9.88375L20.554 18.7752C20.3994 18.9293 20.285 19.1192 20.221 19.328L19.3411 22.2267C19.3239 22.2843 19.3226 22.3455 19.3373 22.4038C19.3521 22.4621 19.3823 22.5153 19.4249 22.5578C19.4674 22.6003 19.5207 22.6304 19.579 22.6451C19.6373 22.6597 19.6985 22.6583 19.7561 22.641L22.6555 21.7618C22.8641 21.6984 23.0539 21.5847 23.2083 21.4308L32.0984 12.5394Z" stroke="white" stroke-width="1.33215" stroke-linecap="round" stroke-linejoin="round"/>
</g>
</g>
<defs>
<filter id="filter0_dd_4077_17449" x="0" y="0" width="51.9912" height="51.9922" filterUnits="userSpaceOnUse" color-interpolation-filters="sRGB">
<feFlood flood-opacity="0" result="BackgroundImageFix"/>
<feColorMatrix in="SourceAlpha" type="matrix" values="0 0 0 0 0 0 0 0 0 0 0 0 0 0 0 0 0 0 127 0" result="hardAlpha"/>
<feMorphology radius="4" operator="erode" in="SourceAlpha" result="effect1_dropShadow_4077_17449"/>
<feOffset dy="4"/>
<feGaussianBlur stdDeviation="3"/>
<feComposite in2="hardAlpha" operator="out"/>
<feColorMatrix type="matrix" values="0 0 0 0 0 0 0 0 0 0 0 0 0 0 0 0 0 0 0.1 0"/>
<feBlend mode="normal" in2="BackgroundImageFix" result="effect1_dropShadow_4077_17449"/>
<feColorMatrix in="SourceAlpha" type="matrix" values="0 0 0 0 0 0 0 0 0 0 0 0 0 0 0 0 0 0 127 0" result="hardAlpha"/>
<feMorphology radius="3" operator="erode" in="SourceAlpha" result="effect2_dropShadow_4077_17449"/>
<feOffset dy="10"/>
<feGaussianBlur stdDeviation="7.5"/>
<feComposite in2="hardAlpha" operator="out"/>
<feColorMatrix type="matrix" values="0 0 0 0 0 0 0 0 0 0 0 0 0 0 0 0 0 0 0.1 0"/>
<feBlend mode="normal" in2="effect1_dropShadow_4077_17449" result="effect2_dropShadow_4077_17449"/>
<feBlend mode="normal" in="SourceGraphic" in2="effect2_dropShadow_4077_17449" result="shape"/>
</filter>
<clipPath id="clip0_4077_17449">
<rect width="15.9857" height="15.9857" fill="white" transform="translate(17.9951 8.00195)"/>
</clipPath>
</defs>
</svg>
