<svg width="27" height="27" viewBox="0 0 27 27" fill="none" xmlns="http://www.w3.org/2000/svg">
<path d="M23 1H3.75C2.23122 1 1 2.23122 1 3.75V23C1 24.5188 2.23122 25.75 3.75 25.75H23C24.5188 25.75 25.75 24.5188 25.75 23V3.75C25.75 2.23122 24.5188 1 23 1Z" stroke="black" stroke-opacity="0.61" stroke-width="2" stroke-linecap="round" stroke-linejoin="round"/>
<path d="M9.25 12C10.7688 12 12 10.7688 12 9.25C12 7.73122 10.7688 6.5 9.25 6.5C7.73122 6.5 6.5 7.73122 6.5 9.25C6.5 10.7688 7.73122 12 9.25 12Z" stroke="black" stroke-opacity="0.61" stroke-width="2" stroke-linecap="round" stroke-linejoin="round"/>
<path d="M25.75 17.4996L21.5067 13.2563C20.991 12.7408 20.2917 12.4512 19.5625 12.4512C18.8333 12.4512 18.134 12.7408 17.6183 13.2563L5.125 25.7496" stroke="black" stroke-opacity="0.61" stroke-width="2" stroke-linecap="round" stroke-linejoin="round"/>
</svg>
