<svg width="168" height="18" viewBox="0 0 168 18" fill="none" xmlns="http://www.w3.org/2000/svg">
<path fill-rule="evenodd" clip-rule="evenodd" d="M3.53422 3.48882V6.92652H13.1785V10.4132H3.53422V14.5133H14.5359V18H0V0.00213201H14.4191V3.48882H3.53523H3.53422ZM31.7755 12.3131L37.3159 0.00213201H41.1477L33.0487 18H30.5755L22.2744 0.00213201H26.096L31.7755 12.3131ZM53.391 3.48882V6.92652H63.0353V10.4132H53.391V14.5133H64.3927V18H49.8568V0.00213201H64.276V3.48882H53.391ZM77.5702 6.18531V17.9989H74.0359V0.001066H76.9935L77.1864 0.242815C78.9449 2.44729 80.7582 4.61235 82.5806 6.75825C83.9848 8.41107 85.397 10.0607 86.7941 11.7221V0H90.3283V17.9979H87.3708L77.5712 6.18425L77.5702 6.18531ZM109.263 3.48882V18H105.729V3.48882H99.6436V0.00213201H115.327V3.48882H109.263ZM138.607 9.21832C139.553 10.1448 139.997 11.3802 139.997 12.8307V18H136.463V12.9052C136.463 11.1672 134.526 11.0266 133.268 11.0266H128.2V18H124.665V0.00213201H133.478C136.913 0.00213201 140.231 1.11927 140.231 5.29392C140.231 6.90521 139.702 8.24175 138.607 9.21832ZM161.833 13.0895H154.816L152.522 18H148.538L157.142 0.00213201H159.699L168 18H164.1L161.834 13.0895H161.833ZM128.199 3.48882V7.53994H133.149C134.017 7.53994 135.034 7.42706 135.799 6.96381C136.397 6.60172 136.696 6.10756 136.696 5.37913C136.696 3.63791 134.793 3.48882 133.524 3.48882H128.199ZM158.389 5.66242L156.506 9.60279H160.223L158.389 5.66242Z" fill="black"/>
</svg>
