<svg width="192" height="21" viewBox="0 0 192 21" fill="none" xmlns="http://www.w3.org/2000/svg">
<path fill-rule="evenodd" clip-rule="evenodd" d="M4.03597 3.98412V7.90987H15.0494V11.8916H4.03597V16.5737H16.5995V20.5554H0V0.00243469H16.4662V3.98412H4.03712H4.03597ZM36.2866 14.0612L42.6137 0.00243469H46.9894L37.7406 20.5554H34.9163L25.4367 0.00243469H29.8008L36.2866 14.0612ZM60.9709 3.98412V7.90987H71.9844V11.8916H60.9709V16.5737H73.5345V20.5554H56.9349V0.00243469H73.4012V3.98412H60.9709ZM88.5828 7.06343V20.5542H84.5467V0.00121734H87.9242L88.1445 0.277287C90.1526 2.79473 92.2234 5.26716 94.3045 7.71771C95.908 9.60518 97.5207 11.489 99.1162 13.3863V0H103.152V20.553H99.7746L88.5839 7.06222L88.5828 7.06343ZM124.775 3.98412V20.5554H120.739V3.98412H113.79V0.00243469H131.7V3.98412H124.775ZM158.285 10.527C159.365 11.585 159.872 12.9958 159.872 14.6523V20.5554H155.837V14.7373C155.837 12.7526 153.625 12.592 152.188 12.592H146.4V20.5554H142.364V0.00243469H152.428C156.35 0.00243469 160.139 1.27817 160.139 6.04549C160.139 7.88554 159.535 9.41182 158.285 10.527ZM184.808 14.9478H176.795L174.175 20.5554H169.626L179.451 0.00243469H182.371L191.851 20.5554H187.397L184.809 14.9478H184.808ZM146.399 3.98412V8.61038H152.052C153.043 8.61038 154.205 8.48147 155.078 7.95246C155.761 7.53896 156.103 6.97464 156.103 6.1428C156.103 4.15438 153.929 3.98412 152.48 3.98412H146.399ZM180.875 6.46631L178.725 10.9661H182.97L180.875 6.46631Z" fill="url(#paint0_linear_3557_12038)"/>
<defs>
<linearGradient id="paint0_linear_3557_12038" x1="0" y1="0" x2="19185.1" y2="0" gradientUnits="userSpaceOnUse">
<stop offset="1" stop-color="#FF5F1F"/>
</linearGradient>
</defs>
</svg>
