<svg width="13" height="13" viewBox="0 0 13 13" fill="none" xmlns="http://www.w3.org/2000/svg">
<path d="M8.43888 6.5002C8.43888 7.5727 7.57221 8.43937 6.49971 8.43937C5.42721 8.43937 4.56055 7.5727 4.56055 6.5002C4.56055 5.4277 5.42721 4.56104 6.49971 4.56104C7.57221 4.56104 8.43888 5.4277 8.43888 6.5002Z" stroke="white" stroke-opacity="0.85" stroke-width="1.5" stroke-linecap="round" stroke-linejoin="round"/>
<path d="M6.5004 10.9797C8.41249 10.9797 10.1946 9.85305 11.435 7.90305C11.9225 7.1393 11.9225 5.85555 11.435 5.0918C10.1946 3.1418 8.41249 2.01514 6.5004 2.01514C4.58832 2.01514 2.80624 3.1418 1.56582 5.0918C1.07832 5.85555 1.07832 7.1393 1.56582 7.90305C2.80624 9.85305 4.58832 10.9797 6.5004 10.9797Z" stroke="white" stroke-opacity="0.85" stroke-width="1.5" stroke-linecap="round" stroke-linejoin="round"/>
</svg>
