<svg width="14" height="14" viewBox="0 0 14 14" fill="none" xmlns="http://www.w3.org/2000/svg">
<path d="M7 6.25C7.36003 6.25 7.69954 6.31836 8.01855 6.45508C8.33757 6.5918 8.61556 6.77865 8.85254 7.01562C9.08952 7.2526 9.27865 7.53288 9.41992 7.85645C9.5612 8.18001 9.62956 8.51953 9.625 8.875C9.625 9.23958 9.55664 9.5791 9.41992 9.89355C9.2832 10.208 9.09635 10.486 8.85938 10.7275C8.6224 10.9691 8.34212 11.1582 8.01855 11.2949C7.69499 11.4316 7.35547 11.5 7 11.5C6.63542 11.5 6.2959 11.4316 5.98145 11.2949C5.66699 11.1582 5.389 10.9714 5.14746 10.7344C4.90592 10.4974 4.7168 10.2194 4.58008 9.90039C4.44336 9.58138 4.375 9.23958 4.375 8.875C4.375 8.51497 4.44336 8.17546 4.58008 7.85645C4.7168 7.53744 4.90365 7.25944 5.14062 7.02246C5.3776 6.78548 5.6556 6.59635 5.97461 6.45508C6.29362 6.3138 6.63542 6.24544 7 6.25ZM7 10.625C7.24154 10.625 7.46712 10.5794 7.67676 10.4883C7.88639 10.3971 8.07324 10.2718 8.2373 10.1123C8.40137 9.9528 8.52669 9.76823 8.61328 9.55859C8.69987 9.34896 8.74544 9.12109 8.75 8.875C8.75 8.63346 8.70443 8.40788 8.61328 8.19824C8.52214 7.98861 8.39681 7.80176 8.2373 7.6377C8.0778 7.47363 7.89323 7.34831 7.68359 7.26172C7.47396 7.17513 7.24609 7.12956 7 7.125C6.75846 7.125 6.53288 7.17057 6.32324 7.26172C6.11361 7.35286 5.92676 7.47819 5.7627 7.6377C5.59863 7.7972 5.47331 7.98177 5.38672 8.19141C5.30013 8.40104 5.25456 8.62891 5.25 8.875C5.25 9.11654 5.29557 9.34212 5.38672 9.55176C5.47786 9.76139 5.60319 9.94824 5.7627 10.1123C5.9222 10.2764 6.10677 10.4017 6.31641 10.4883C6.52604 10.5749 6.75391 10.6204 7 10.625ZM7 2.75C7.65169 2.75 8.29883 2.82975 8.94141 2.98926C9.58398 3.14876 10.1901 3.38802 10.7598 3.70703C11.3294 4.02604 11.8444 4.41341 12.3047 4.86914C12.765 5.32487 13.1432 5.85807 13.4395 6.46875C13.6217 6.84701 13.7607 7.23665 13.8564 7.6377C13.9521 8.03874 14 8.45117 14 8.875H13.125C13.125 8.33724 13.043 7.83366 12.8789 7.36426C12.7148 6.89486 12.4893 6.46647 12.2021 6.0791C11.915 5.69173 11.5732 5.34538 11.1768 5.04004C10.7803 4.7347 10.3587 4.47721 9.91211 4.26758C9.4655 4.05794 8.98926 3.89844 8.4834 3.78906C7.97754 3.67969 7.48307 3.625 7 3.625C6.50781 3.625 6.01335 3.67969 5.5166 3.78906C5.01986 3.89844 4.5459 4.05794 4.09473 4.26758C3.64355 4.47721 3.21973 4.7347 2.82324 5.04004C2.42676 5.34538 2.08724 5.69173 1.80469 6.0791C1.52214 6.46647 1.29427 6.89486 1.12109 7.36426C0.947917 7.83366 0.865885 8.33724 0.875 8.875H0C0 8.45573 0.0478516 8.04557 0.143555 7.64453C0.239258 7.24349 0.378255 6.85156 0.560547 6.46875C0.852214 5.86719 1.22819 5.33626 1.68848 4.87598C2.14876 4.41569 2.66602 4.02604 3.24023 3.70703C3.81445 3.38802 4.42057 3.15104 5.05859 2.99609C5.69661 2.84115 6.34375 2.75911 7 2.75Z" fill="white"/>
</svg>
