<svg width="40" height="40" viewBox="0 0 40 40" fill="none" xmlns="http://www.w3.org/2000/svg">
<rect x="0.5" y="0.5" width="39" height="39" rx="19.5" stroke="#FF5F1F"/>
<path d="M29.25 19.9999H16.895M12.534 19.9999H10.75M12.534 19.9999C12.534 19.4217 12.7637 18.8672 13.1725 18.4584C13.5813 18.0496 14.1358 17.8199 14.714 17.8199C15.2922 17.8199 15.8467 18.0496 16.2555 18.4584C16.6643 18.8672 16.894 19.4217 16.894 19.9999C16.894 20.5781 16.6643 21.1326 16.2555 21.5414C15.8467 21.9502 15.2922 22.1799 14.714 22.1799C14.1358 22.1799 13.5813 21.9502 13.1725 21.5414C12.7637 21.1326 12.534 20.5781 12.534 19.9999ZM29.25 26.6069H23.502M23.502 26.6069C23.502 27.1852 23.2718 27.7403 22.8628 28.1492C22.4539 28.5582 21.8993 28.7879 21.321 28.7879C20.7428 28.7879 20.1883 28.5572 19.7795 28.1484C19.3707 27.7396 19.141 27.1851 19.141 26.6069M23.502 26.6069C23.502 26.0286 23.2718 25.4745 22.8628 25.0655C22.4539 24.6566 21.8993 24.4269 21.321 24.4269C20.7428 24.4269 20.1883 24.6566 19.7795 25.0654C19.3707 25.4742 19.141 26.0287 19.141 26.6069M19.141 26.6069H10.75M29.25 13.3929H26.145M21.784 13.3929H10.75M21.784 13.3929C21.784 12.8147 22.0137 12.2602 22.4225 11.8514C22.8313 11.4426 23.3858 11.2129 23.964 11.2129C24.2503 11.2129 24.5338 11.2693 24.7983 11.3788C25.0627 11.4884 25.3031 11.649 25.5055 11.8514C25.7079 12.0538 25.8685 12.2942 25.9781 12.5586C26.0876 12.8231 26.144 13.1066 26.144 13.3929C26.144 13.6792 26.0876 13.9627 25.9781 14.2271C25.8685 14.4916 25.7079 14.732 25.5055 14.9344C25.3031 15.1368 25.0627 15.2974 24.7983 15.4069C24.5338 15.5165 24.2503 15.5729 23.964 15.5729C23.3858 15.5729 22.8313 15.3432 22.4225 14.9344C22.0137 14.5256 21.784 13.9711 21.784 13.3929Z" stroke="#FF5F1F" stroke-width="1.5" stroke-miterlimit="10" stroke-linecap="round"/>
</svg>
