<svg width="16" height="16" viewBox="0 0 16 16" fill="none" xmlns="http://www.w3.org/2000/svg">
<path d="M8 1.5C4.13403 1.5 1 4.63403 1 8.5C1 12.3662 4.13403 15.5 8 15.5C11.8662 15.5 15 12.3662 15 8.5C15 4.63403 11.8662 1.5 8 1.5ZM8 14.6388C4.62272 14.6388 1.875 11.8773 1.875 8.49997C1.875 5.12269 4.62272 2.37497 8 2.37497C11.3773 2.37497 14.125 5.1227 14.125 8.49997C14.125 11.8772 11.3773 14.6388 8 14.6388ZM10.7937 5.93866L6.68661 10.0715L4.83708 8.22197C4.66624 8.05113 4.3893 8.05113 4.21824 8.22197C4.04739 8.39281 4.04739 8.66975 4.21824 8.84059L6.38364 11.0062C6.55449 11.1768 6.83142 11.1768 7.00249 11.0062C7.02217 10.9865 7.03903 10.9651 7.05434 10.9428L11.4127 6.55749C11.5833 6.38664 11.5833 6.1097 11.4127 5.93866C11.2417 5.76781 10.9647 5.76781 10.7937 5.93866Z" fill="#009A1A"/>
</svg>
