<svg width="26" height="26" viewBox="0 0 26 26" fill="none" xmlns="http://www.w3.org/2000/svg">
<g clip-path="url(#clip0_761_6077)">
<path d="M9.96721 3.65784C7.9689 4.35107 6.24556 5.66685 5.05032 7.41191C3.85508 9.15696 3.25095 11.2393 3.32665 13.3531C3.40236 15.4669 4.15391 17.5007 5.47092 19.1558C6.78794 20.8108 8.60099 22 10.6438 22.5485C12.2999 22.9758 14.035 22.9946 15.7 22.6032C17.2083 22.2644 18.6028 21.5397 19.7469 20.5C20.9376 19.3849 21.802 17.9664 22.2469 16.3969C22.7305 14.6901 22.8166 12.8952 22.4985 11.15H13.1985V15.0078H18.5844C18.4768 15.6231 18.2461 16.2104 17.9062 16.7345C17.5663 17.2585 17.1242 17.7086 16.6063 18.0578C15.9486 18.4929 15.2072 18.7856 14.4297 18.9172C13.6499 19.0622 12.8501 19.0622 12.0703 18.9172C11.28 18.7538 10.5324 18.4276 9.87502 17.9594C8.819 17.2119 8.02608 16.1499 7.6094 14.925C7.18567 13.6772 7.18567 12.3244 7.6094 11.0766C7.906 10.2019 8.39632 9.40555 9.04377 8.7469C9.7847 7.97932 10.7227 7.43065 11.755 7.16108C12.7872 6.89152 13.8737 6.91148 14.8953 7.21878C15.6934 7.46376 16.4232 7.89181 17.0266 8.46878C17.6339 7.86461 18.2401 7.25888 18.8453 6.65159C19.1578 6.32503 19.4985 6.01409 19.8063 5.67972C18.8853 4.82265 17.8042 4.15574 16.625 3.71722C14.4777 2.93751 12.1281 2.91656 9.96721 3.65784Z" fill="#F8F8FA"/>
<path d="M9.96758 3.65781C12.1283 2.91602 14.4779 2.93642 16.6254 3.71562C17.8048 4.15712 18.8854 4.82724 19.8051 5.68749C19.4926 6.02187 19.1629 6.33437 18.8441 6.65937C18.2379 7.26458 17.6322 7.8677 17.027 8.46874C16.4236 7.89177 15.6938 7.46373 14.8957 7.21874C13.8744 6.91037 12.7879 6.88926 11.7554 7.15772C10.7229 7.42618 9.78432 7.97384 9.04258 8.74062C8.39513 9.39927 7.90481 10.1956 7.6082 11.0703L4.36914 8.56249C5.52853 6.26337 7.53594 4.50472 9.96758 3.65781Z" fill="#E33629"/>
<path d="M3.50918 11.0469C3.68327 10.1841 3.97231 9.34848 4.36855 8.5625L7.60761 11.0766C7.18389 12.3244 7.18389 13.6772 7.60761 14.925C6.52845 15.7583 5.44876 16.5958 4.36855 17.4375C3.3766 15.463 3.07407 13.2133 3.50918 11.0469Z" fill="#F8BD00"/>
<path d="M13.198 11.1484H22.498C22.8161 12.8936 22.73 14.6885 22.2464 16.3953C21.8015 17.9648 20.9371 19.3834 19.7464 20.4984C18.7011 19.6828 17.6511 18.8734 16.6058 18.0578C17.124 17.7082 17.5663 17.2576 17.9063 16.733C18.2462 16.2084 18.4766 15.6205 18.5839 15.0047H13.198C13.1964 13.7203 13.198 12.4344 13.198 11.1484Z" fill="#587DBD"/>
<path d="M4.36719 17.4375C5.4474 16.6042 6.52708 15.7667 7.60625 14.925C8.02376 16.1503 8.81782 17.2123 9.875 17.9594C10.5344 18.4254 11.2836 18.7489 12.075 18.9094C12.8548 19.0544 13.6546 19.0544 14.4344 18.9094C15.2119 18.7778 15.9533 18.485 16.6109 18.05C17.6562 18.8656 18.7063 19.675 19.7516 20.4906C18.6076 21.5308 17.2132 22.2561 15.7047 22.5953C14.0397 22.9867 12.3046 22.9679 10.6484 22.5406C9.3386 22.1909 8.11512 21.5744 7.05469 20.7297C5.93228 19.8386 5.01556 18.7156 4.36719 17.4375Z" fill="#319F43"/>
</g>
<defs>
<clipPath id="clip0_761_6077">
<rect width="20" height="20" fill="white" transform="translate(3 3)"/>
</clipPath>
</defs>
</svg>
