<svg width="40" height="40" viewBox="0 0 40 40" fill="none" xmlns="http://www.w3.org/2000/svg">
<path d="M0 14C0 6.26802 6.26801 0 14 0H25.9971C33.7291 0 39.9971 6.26801 39.9971 14V25.9971C39.9971 33.7291 33.7291 39.9971 25.9971 39.9971H14C6.26802 39.9971 0 33.7291 0 25.9971V14Z" fill="#F3F4F6"/>
<g clip-path="url(#clip0_4077_17562)">
<path d="M19.9909 28.3315C24.593 28.3315 28.3237 24.6008 28.3237 19.9987C28.3237 15.3967 24.593 11.666 19.9909 11.666C15.3889 11.666 11.6582 15.3967 11.6582 19.9987C11.6582 24.6008 15.3889 28.3315 19.9909 28.3315Z" stroke="#4B5563" stroke-width="1.66655" stroke-linecap="round" stroke-linejoin="round"/>
<path d="M17.5654 17.5004C17.7613 16.9435 18.148 16.4739 18.657 16.1747C19.1659 15.8756 19.7644 15.7663 20.3462 15.8661C20.9281 15.9659 21.4558 16.2684 21.836 16.72C22.2162 17.1717 22.4243 17.7433 22.4234 18.3336C22.4234 20.0002 19.9236 20.8334 19.9236 20.8334" stroke="#4B5563" stroke-width="1.66655" stroke-linecap="round" stroke-linejoin="round"/>
<path d="M19.9902 24.166H19.9986" stroke="#4B5563" stroke-width="1.66655" stroke-linecap="round" stroke-linejoin="round"/>
</g>
<defs>
<clipPath id="clip0_4077_17562">
<rect width="19.9986" height="19.9986" fill="white" transform="translate(9.99121 10)"/>
</clipPath>
</defs>
</svg>
