<svg width="16" height="16" viewBox="0 0 16 16" fill="none" xmlns="http://www.w3.org/2000/svg">
<path d="M13.3318 6.66589C13.3318 9.99427 9.63942 13.4606 8.39953 14.5312C8.28402 14.6181 8.14341 14.665 7.99889 14.665C7.85437 14.665 7.71377 14.6181 7.59826 14.5312C6.35837 13.4606 2.66602 9.99427 2.66602 6.66589C2.66602 5.25152 3.22787 3.89508 4.22798 2.89497C5.22809 1.89486 6.58453 1.33301 7.99889 1.33301C9.41326 1.33301 10.7697 1.89486 11.7698 2.89497C12.7699 3.89508 13.3318 5.25152 13.3318 6.66589Z" stroke="#155DFC" stroke-width="1.33322" stroke-linecap="round" stroke-linejoin="round"/>
<path d="M7.99983 8.66567C9.1043 8.66567 9.99966 7.77032 9.99966 6.66584C9.99966 5.56137 9.1043 4.66602 7.99983 4.66602C6.89535 4.66602 6 5.56137 6 6.66584C6 7.77032 6.89535 8.66567 7.99983 8.66567Z" stroke="#155DFC" stroke-width="1.33322" stroke-linecap="round" stroke-linejoin="round"/>
</svg>
