<svg width="14" height="14" viewBox="0 0 14 14" fill="none" xmlns="http://www.w3.org/2000/svg">
<path d="M5.54199 8.02097C5.54199 8.5868 5.9795 9.0418 6.51617 9.0418H7.61282C8.07948 9.0418 8.45866 8.64513 8.45866 8.1493C8.45866 7.61847 8.22533 7.42597 7.88116 7.30347L6.12533 6.69097C5.78116 6.56847 5.54783 6.3818 5.54783 5.84514C5.54783 5.35514 5.92699 4.95264 6.39365 4.95264H7.49032C8.02699 4.95264 8.4645 5.40764 8.4645 5.97347" stroke="white" stroke-linecap="round" stroke-linejoin="round"/>
<path d="M7 4.375V9.625" stroke="white" stroke-linecap="round" stroke-linejoin="round"/>
<path d="M12.8337 6.99984C12.8337 10.2198 10.2203 12.8332 7.00033 12.8332C3.78033 12.8332 1.16699 10.2198 1.16699 6.99984C1.16699 3.77984 3.78033 1.1665 7.00033 1.1665" stroke="white" stroke-linecap="round" stroke-linejoin="round"/>
<path d="M12.8333 3.49984V1.1665H10.5" stroke="white" stroke-linecap="round" stroke-linejoin="round"/>
<path d="M9.91699 4.08317L12.8337 1.1665" stroke="white" stroke-linecap="round" stroke-linejoin="round"/>
</svg>
