<svg width="9" height="8" viewBox="0 0 9 8" fill="none" xmlns="http://www.w3.org/2000/svg">
<path d="M1.64286 7.5V1.11367C1.64282 0.977939 1.68694 0.846043 1.7683 0.738691C1.84965 0.63134 1.96364 0.554615 2.09234 0.520567C2.22105 0.486518 2.35719 0.497075 2.47938 0.550579C2.60157 0.604082 2.70289 0.697502 2.76743 0.816167L6.23257 7.18383C6.29711 7.3025 6.39843 7.39592 6.52062 7.44942C6.64281 7.50292 6.77895 7.51348 6.90766 7.47943C7.03637 7.44538 7.15035 7.36866 7.2317 7.26131C7.31306 7.15396 7.35718 7.02206 7.35714 6.88633V0.5M0.5 2.83333H8.5M0.5 5.16667H8.5" stroke="#111827" stroke-linecap="round" stroke-linejoin="round"/>
</svg>
