<svg width="16" height="13" viewBox="0 0 16 13" fill="none" xmlns="http://www.w3.org/2000/svg">
<path d="M5.75 5.75C6.57843 5.75 7.25 5.07843 7.25 4.25C7.25 3.42157 6.57843 2.75 5.75 2.75C4.92157 2.75 4.25 3.42157 4.25 4.25C4.25 5.07843 4.92157 5.75 5.75 5.75Z" stroke="#FF5F1F"/>
<path d="M8.75 8.75C8.75 9.57875 8.75 10.25 5.75 10.25C2.75 10.25 2.75 9.57875 2.75 8.75C2.75 7.92125 4.0925 7.25 5.75 7.25C7.4075 7.25 8.75 7.92125 8.75 8.75Z" stroke="#FF5F1F"/>
<path d="M0.5 6.5C0.5 3.67175 0.5 2.25725 1.379 1.379C2.258 0.50075 3.67175 0.5 6.5 0.5H9.5C12.3282 0.5 13.7427 0.5 14.621 1.379C15.4992 2.258 15.5 3.67175 15.5 6.5C15.5 9.32825 15.5 10.7427 14.621 11.621C13.742 12.4992 12.3282 12.5 9.5 12.5H6.5C3.67175 12.5 2.25725 12.5 1.379 11.621C0.50075 10.742 0.5 9.32825 0.5 6.5Z" stroke="#FF5F1F"/>
<path d="M13.25 6.5H10.25M13.25 4.25H9.5M13.25 8.75H11" stroke="#FF5F1F" stroke-linecap="round"/>
</svg>
