<svg width="40" height="40" viewBox="0 0 40 40" fill="none" xmlns="http://www.w3.org/2000/svg">
<path d="M0 14C0 6.26802 6.26801 0 14 0H25.9971C33.7291 0 39.9971 6.26801 39.9971 14V25.9971C39.9971 33.7291 33.7291 39.9971 25.9971 39.9971H14C6.26802 39.9971 0 33.7291 0 25.9971V14Z" fill="#F3F4F6"/>
<g clip-path="url(#clip0_4077_17512)">
<path d="M18.5469 27.498C18.6932 27.7514 18.9035 27.9617 19.1569 28.108C19.4102 28.2543 19.6976 28.3312 19.9901 28.3312C20.2826 28.3312 20.57 28.2543 20.8233 28.108C21.0767 27.9617 21.2871 27.7514 21.4333 27.498" stroke="#4B5563" stroke-width="1.66655" stroke-linecap="round" stroke-linejoin="round"/>
<path d="M12.7089 22.7702C12.6001 22.8895 12.5282 23.0379 12.5021 23.1973C12.4761 23.3567 12.4969 23.5202 12.562 23.668C12.6272 23.8158 12.7339 23.9414 12.8691 24.0297C13.0044 24.1179 13.1624 24.165 13.3239 24.1651H26.6562C26.8177 24.1652 26.9758 24.1183 27.1111 24.0302C27.2464 23.9421 27.3533 23.8166 27.4186 23.6689C27.4839 23.5212 27.5049 23.3577 27.4791 23.1983C27.4532 23.0389 27.3816 22.8905 27.2729 22.771C26.1646 21.6286 24.9897 20.4146 24.9897 16.6657C24.9897 15.3397 24.463 14.068 23.5253 13.1304C22.5877 12.1928 21.316 11.666 19.9901 11.666C18.6641 11.666 17.3924 12.1928 16.4548 13.1304C15.5172 14.068 14.9904 15.3397 14.9904 16.6657C14.9904 20.4146 13.8147 21.6286 12.7089 22.7702Z" stroke="#4B5563" stroke-width="1.66655" stroke-linecap="round" stroke-linejoin="round"/>
</g>
<defs>
<clipPath id="clip0_4077_17512">
<rect width="19.9986" height="19.9986" fill="white" transform="translate(9.99121 10)"/>
</clipPath>
</defs>
</svg>
