<svg width="8" height="8" viewBox="0 0 8 8" fill="none" xmlns="http://www.w3.org/2000/svg">
<path d="M7.85352 0.5C7.85352 0.223857 7.62966 -1.53116e-07 7.35352 -2.91195e-07L2.85352 -8.04607e-08C2.57737 -2.60687e-07 2.35352 0.223857 2.35352 0.5C2.35352 0.776142 2.57737 1 2.85352 1H6.85352L6.85352 5C6.85352 5.27614 7.07737 5.5 7.35352 5.5C7.62966 5.5 7.85352 5.27614 7.85352 5L7.85352 0.5ZM0.353516 7.5L0.707069 7.85355L7.70707 0.853553L7.35352 0.5L6.99996 0.146447L-3.77595e-05 7.14645L0.353516 7.5Z" fill="#1A1917"/>
</svg>
