<svg width="24" height="24" viewBox="0 0 24 24" fill="none" xmlns="http://www.w3.org/2000/svg">
<path d="M18.2204 20.75H5.78043C5.43365 20.7358 5.09305 20.6534 4.77814 20.5075C4.46323 20.3616 4.18018 20.155 3.94519 19.8996C3.7102 19.6441 3.52788 19.3449 3.40867 19.0189C3.28945 18.693 3.23568 18.3467 3.25043 18V15C3.25043 14.801 3.32945 14.6103 3.4701 14.4696C3.61075 14.329 3.80152 14.25 4.00043 14.25C4.19934 14.25 4.39011 14.329 4.53076 14.4696C4.67141 14.6103 4.75043 14.801 4.75043 15V18C4.72461 18.2969 4.81407 18.5923 5.00026 18.8251C5.18645 19.0578 5.45508 19.21 5.75043 19.25H18.2204C18.5158 19.21 18.7844 19.0578 18.9706 18.8251C19.1568 18.5923 19.2463 18.2969 19.2204 18V15C19.2204 14.801 19.2995 14.6103 19.4401 14.4696C19.5808 14.329 19.7715 14.25 19.9704 14.25C20.1693 14.25 20.3601 14.329 20.5008 14.4696C20.6414 14.6103 20.7204 14.801 20.7204 15V18C20.7504 18.6953 20.5045 19.3744 20.0363 19.8894C19.5681 20.4044 18.9155 20.7137 18.2204 20.75ZM16.0004 8.74995C15.9019 8.75042 15.8043 8.7312 15.7132 8.69342C15.6222 8.65564 15.5397 8.60006 15.4704 8.52995L12.0004 5.05995L8.53043 8.52995C8.38826 8.66243 8.20021 8.73455 8.00591 8.73113C7.81161 8.7277 7.62622 8.64898 7.48881 8.51157C7.3514 8.37416 7.27269 8.18877 7.26926 7.99447C7.26583 7.80017 7.33795 7.61213 7.47043 7.46995L11.4704 3.46995C11.6111 3.3295 11.8017 3.25061 12.0004 3.25061C12.1992 3.25061 12.3898 3.3295 12.5304 3.46995L16.5304 7.46995C16.6709 7.61058 16.7498 7.8012 16.7498 7.99995C16.7498 8.1987 16.6709 8.38932 16.5304 8.52995C16.4612 8.60006 16.3786 8.65564 16.2876 8.69342C16.1966 8.7312 16.099 8.75042 16.0004 8.74995Z" fill="#111827"/>
<path d="M12 15.75C11.8019 15.7474 11.6126 15.6676 11.4725 15.5275C11.3324 15.3874 11.2526 15.1981 11.25 15V4C11.25 3.80109 11.329 3.61032 11.4697 3.46967C11.6103 3.32902 11.8011 3.25 12 3.25C12.1989 3.25 12.3897 3.32902 12.5303 3.46967C12.671 3.61032 12.75 3.80109 12.75 4V15C12.7474 15.1981 12.6676 15.3874 12.5275 15.5275C12.3874 15.6676 12.1981 15.7474 12 15.75Z" fill="#111827"/>
</svg>
