<svg width="156" height="156" viewBox="0 0 156 156" fill="none" xmlns="http://www.w3.org/2000/svg">
<rect width="156" height="156" rx="78" fill="#EBEBEB"/>
<g clip-path="url(#clip0_767_8783)">
<path d="M92.6229 49.0685C95.7182 45.5884 96.5287 41.2524 94.4331 39.3837C92.3376 37.515 88.1296 38.8213 85.0343 42.3014C81.9389 45.7814 81.1285 50.1175 83.224 51.9862C85.3195 53.8549 89.5276 52.5486 92.6229 49.0685Z" fill="#090814"/>
<path d="M104.813 83.4088C116.996 83.4088 126.872 73.5199 126.872 61.3213C126.872 49.1227 116.996 39.2338 104.813 39.2338C92.63 39.2338 82.7539 49.1227 82.7539 61.3213C82.7539 73.5199 92.63 83.4088 104.813 83.4088Z" fill="#090814"/>
<path d="M40.3497 51.5867L19.8464 53.2665C19.0395 53.3326 18.2828 53.6854 17.713 54.2613C17.1432 54.8372 16.7978 55.5982 16.7393 56.4067L15.9737 66.9855C15.94 67.451 16.0025 67.9186 16.1573 68.3589C16.3121 68.7992 16.5559 69.2028 16.8734 69.5446C17.1909 69.8864 17.5753 70.159 18.0027 70.3454C18.4301 70.5318 18.8913 70.628 19.3574 70.628H28.5985V71.1243H32.3163V70.628H34.299V71.1243H38.0168V70.628H39.9986C40.8684 70.6281 41.705 70.2937 42.3356 69.6938C42.9662 69.094 43.3426 68.2746 43.3872 67.4049L44.015 55.1464C44.0398 54.6629 43.9611 54.1797 43.7841 53.7292C43.6072 53.2786 43.3361 52.8712 42.9891 52.5341C42.6421 52.197 42.2271 51.9381 41.772 51.7747C41.3168 51.6113 40.8321 51.5472 40.3502 51.5867H40.3497Z" fill="#090814"/>
<path d="M53.3835 85.0217L24.3846 71.3721L19.1797 79.562C19.1797 79.562 34.2585 89.2006 35.0424 89.9854C36.1577 91.1022 48.1786 98.9197 52.8878 97.6788C57.597 96.4379 55.3662 86.2627 53.3835 85.0217Z" fill="#ED9DA0"/>
<path d="M73.2117 147.562L69.4941 155.999H107.981L105.185 147.066L73.2117 147.562Z" fill="#2F2E41"/>
<path d="M96.7568 79.0655C96.7568 79.0655 98.244 87.2552 96.7568 88.248C95.2697 89.2407 106.671 101.401 106.671 101.401L111.38 97.1816L112.867 87.5022C112.867 87.5022 108.406 81.2978 110.389 75.8379C112.372 70.378 96.7568 79.0655 96.7568 79.0655Z" fill="#ED9DA0"/>
<path d="M101.218 81.5472C109.979 81.5472 117.081 74.436 117.081 65.6639C117.081 56.8918 109.979 49.7806 101.218 49.7806C92.4574 49.7806 85.3555 56.8918 85.3555 65.6639C85.3555 74.436 92.4574 81.5472 101.218 81.5472Z" fill="#ED9DA0"/>
<path d="M105.432 95.6934C105.432 95.6934 99.2353 86.2627 95.7649 85.5182C92.2945 84.7736 89.0728 85.27 87.0901 85.5182C85.1073 85.7663 78.4152 83.2845 74.4496 85.0218C70.484 86.7591 74.4496 107.109 74.4496 107.109C74.4496 107.109 69.9881 133.167 71.9715 139.869C73.9549 146.57 72.4672 147.81 71.4758 148.555C70.4843 149.299 94.0306 156 94.0306 156H116.337C116.337 156 116.337 148.803 118.568 147.066C120.799 145.328 120.551 108.599 120.551 108.599L127.986 94.2044C127.986 94.2044 126.748 88.7447 121.542 88.4964C116.336 88.248 111.691 85.5121 111.691 85.5121L108.158 95.6935L105.432 95.6934Z" fill="#FF5F1F"/>
<path d="M76.6817 86.2629L74.451 85.0228C74.451 85.0228 70.2368 85.271 69.4939 85.0228C68.751 84.7746 59.3319 81.7966 55.6141 83.5337C51.8963 85.2708 49.4177 83.0373 49.4177 83.0373C49.4177 83.0373 61.5626 93.4607 46.6914 96.6869C46.6914 96.6869 46.9393 97.927 50.657 98.6724C54.3748 99.4178 55.1184 100.162 56.6056 101.402C58.0927 102.643 61.0669 103.884 63.0498 104.38C65.0327 104.876 74.2033 110.389 75.1945 109.396C76.1858 108.403 75.1945 103.636 75.1945 103.636L76.6817 86.2629Z" fill="#FF5F1F"/>
<path d="M123.277 91.4744L127.986 94.2042C127.986 94.2042 134.182 112.569 133.191 117.036C132.199 121.503 131.208 120.759 132.695 123.737C134.182 126.715 135.669 126.963 134.678 129.693C133.686 132.423 134.182 139.124 132.695 141.854C131.208 144.584 124.02 153.27 117.824 138.628C111.627 123.985 123.277 91.4744 123.277 91.4744Z" fill="#FF5F1F"/>
<path d="M132.2 129.445C132.2 129.445 128.73 122.496 127.985 122C127.241 121.503 123.771 104.379 123.771 104.379C123.771 104.379 129.224 95.4452 124.267 91.4744C124.267 91.4744 133.437 78.5693 130.463 78.8175C127.489 79.0657 121.541 88.4969 121.541 88.4969C121.541 88.4969 120.177 88.1247 120.673 86.1392C121.169 84.1537 123.028 77.0808 121.541 76.8326C120.053 76.5844 117.079 87.256 117.079 87.256C117.079 87.256 111.007 98.2997 112.865 102.146C113.947 104.305 115.189 106.379 116.583 108.351L120.797 139.125C120.797 139.125 128.978 149.051 132.2 129.445Z" fill="#ED9DA0"/>
<path d="M38.7595 56.2333C40.2652 56.2333 41.4858 55.6777 41.4858 54.9924C41.4858 54.307 40.2652 53.7515 38.7595 53.7515C37.2538 53.7515 36.0332 54.307 36.0332 54.9924C36.0332 55.6777 37.2538 56.2333 38.7595 56.2333Z" fill="#FF5F1F"/>
<path d="M22.1535 79.5621H18.6836C18.6836 79.5621 11 77.0804 11 71.3722C11 65.6639 13.2308 54 20.1706 54.2482C27.1104 54.4963 20.6663 69.8832 20.6663 69.8832L24.8674 71.5999L24.8798 76.8322L22.1535 79.5621Z" fill="#ED9DA0"/>
<path d="M98.6159 47.9199C106.418 47.9199 114.816 51.1421 114.816 55.117C114.816 59.0919 105.68 59.3008 98.6159 59.3008C91.5523 59.3008 84.4883 59.0918 84.4883 55.117C84.4883 51.1423 90.8135 47.9199 98.6159 47.9199Z" fill="#090814"/>
<path d="M128.693 57.2486C131.217 56.0212 131.615 51.6279 129.582 47.4359C127.549 43.244 123.854 40.8407 121.33 42.0681C118.806 43.2955 118.408 47.6887 120.441 51.8807C122.474 56.0727 126.168 58.476 128.693 57.2486Z" fill="#090814"/>
</g>
<defs>
<clipPath id="clip0_767_8783">
<rect width="124" height="120" fill="white" transform="translate(11 36)"/>
</clipPath>
</defs>
</svg>
