<svg width="36" height="36" viewBox="0 0 36 36" fill="none" xmlns="http://www.w3.org/2000/svg">
<path d="M17.9922 0.5C27.6528 0.50002 35.4844 8.33155 35.4844 17.9922C35.4844 27.6528 27.6528 35.4844 17.9922 35.4844C8.33155 35.4844 0.50002 27.6528 0.5 17.9922C0.5 8.33154 8.33154 0.5 17.9922 0.5Z" fill="white" fill-opacity="0.2"/>
<path d="M17.9922 0.5C27.6528 0.50002 35.4844 8.33155 35.4844 17.9922C35.4844 27.6528 27.6528 35.4844 17.9922 35.4844C8.33155 35.4844 0.50002 27.6528 0.5 17.9922C0.5 8.33154 8.33154 0.5 17.9922 0.5Z" stroke="white"/>
<g clip-path="url(#clip0_4025_7120)">
<path d="M18.174 9.65918H17.8074C17.3654 9.65918 16.9415 9.83476 16.6289 10.1473C16.3164 10.4598 16.1408 10.8837 16.1408 11.3257V11.4757C16.1405 11.768 16.0634 12.055 15.9171 12.308C15.7708 12.561 15.5606 12.7712 15.3075 12.9173L14.9492 13.1256C14.6959 13.2719 14.4085 13.3489 14.116 13.3489C13.8234 13.3489 13.536 13.2719 13.2827 13.1256L13.1577 13.0589C12.7753 12.8383 12.3209 12.7785 11.8944 12.8925C11.4679 13.0066 11.1041 13.2852 10.8828 13.6672L10.6995 13.9839C10.4789 14.3663 10.4191 14.8206 10.5331 15.2471C10.6472 15.6736 10.9258 16.0374 11.3078 16.2587L11.4328 16.342C11.6847 16.4874 11.8941 16.6962 12.0403 16.9477C12.1865 17.1991 12.2643 17.4844 12.2661 17.7753V18.2002C12.2672 18.4939 12.1908 18.7826 12.0445 19.0373C11.8981 19.2919 11.6871 19.5033 11.4328 19.6501L11.3078 19.7251C10.9258 19.9464 10.6472 20.3102 10.5331 20.7367C10.4191 21.1632 10.4789 21.6175 10.6995 22L10.8828 22.3166C11.1041 22.6986 11.4679 22.9772 11.8944 23.0913C12.3209 23.2053 12.7753 23.1455 13.1577 22.9249L13.2827 22.8582C13.536 22.712 13.8234 22.635 14.116 22.635C14.4085 22.635 14.6959 22.712 14.9492 22.8582L15.3075 23.0665C15.5606 23.2127 15.7708 23.4228 15.9171 23.6758C16.0634 23.9288 16.1405 24.2159 16.1408 24.5081V24.6581C16.1408 25.1001 16.3164 25.524 16.6289 25.8365C16.9415 26.1491 17.3654 26.3246 17.8074 26.3246H18.174C18.616 26.3246 19.0399 26.1491 19.3524 25.8365C19.665 25.524 19.8405 25.1001 19.8405 24.6581V24.5081C19.8408 24.2159 19.918 23.9288 20.0642 23.6758C20.2105 23.4228 20.4207 23.2127 20.6738 23.0665L21.0321 22.8582C21.2855 22.712 21.5729 22.635 21.8654 22.635C22.1579 22.635 22.4453 22.712 22.6987 22.8582L22.8237 22.9249C23.2061 23.1455 23.6604 23.2053 24.0869 23.0913C24.5134 22.9772 24.8772 22.6986 25.0985 22.3166L25.2818 21.9916C25.5024 21.6092 25.5623 21.1549 25.4482 20.7284C25.3342 20.3019 25.0556 19.9381 24.6735 19.7168L24.5485 19.6501C24.2942 19.5033 24.0832 19.2919 23.9369 19.0373C23.7905 18.7826 23.7141 18.4939 23.7153 18.2002V17.7836C23.7141 17.4899 23.7905 17.2012 23.9369 16.9466C24.0832 16.692 24.2942 16.4805 24.5485 16.3337L24.6735 16.2587C25.0556 16.0374 25.3342 15.6736 25.4482 15.2471C25.5623 14.8206 25.5024 14.3663 25.2818 13.9839L25.0985 13.6672C24.8772 13.2852 24.5134 13.0066 24.0869 12.8925C23.6604 12.7785 23.2061 12.8383 22.8237 13.0589L22.6987 13.1256C22.4453 13.2719 22.1579 13.3489 21.8654 13.3489C21.5729 13.3489 21.2855 13.2719 21.0321 13.1256L20.6738 12.9173C20.4207 12.7712 20.2105 12.561 20.0642 12.308C19.918 12.055 19.8408 11.768 19.8405 11.4757V11.3257C19.8405 10.8837 19.665 10.4598 19.3524 10.1473C19.0399 9.83476 18.616 9.65918 18.174 9.65918Z" stroke="white" stroke-width="1.66655" stroke-linecap="round" stroke-linejoin="round"/>
<path d="M17.992 20.4918C19.3726 20.4918 20.4918 19.3726 20.4918 17.992C20.4918 16.6114 19.3726 15.4922 17.992 15.4922C16.6114 15.4922 15.4922 16.6114 15.4922 17.992C15.4922 19.3726 16.6114 20.4918 17.992 20.4918Z" stroke="white" stroke-width="1.66655" stroke-linecap="round" stroke-linejoin="round"/>
</g>
<defs>
<clipPath id="clip0_4025_7120">
<rect width="19.9986" height="19.9986" fill="white" transform="translate(7.99219 7.99268)"/>
</clipPath>
</defs>
</svg>
