<svg width="18" height="21" viewBox="0 0 18 21" fill="none" xmlns="http://www.w3.org/2000/svg">
<path d="M18 21H0V0H18V21Z"/>
<path d="M18 19.25H0V1.25H18V19.25Z"/>
<path d="M10.793 2.47317C10.3887 2.65247 10.125 3.05676 10.125 3.49973V5.74973H6.1875C2.77031 5.74973 0 8.52004 0 11.9372C0 15.9204 2.86523 17.6993 3.52266 18.0579C3.61055 18.1072 3.70898 18.1247 3.80742 18.1247C4.19063 18.1247 4.5 17.8118 4.5 17.4322C4.5 17.1685 4.34883 16.9259 4.15547 16.7466C3.825 16.4337 3.375 15.8185 3.375 14.7497C3.375 12.8864 4.88672 11.3747 6.75 11.3747H10.125V13.6247C10.125 14.0677 10.3852 14.472 10.793 14.6513C11.2008 14.8306 11.6719 14.7568 12.0023 14.4614L17.6273 9.39895C17.8629 9.1845 18 8.88215 18 8.56223C18 8.24231 17.8664 7.93997 17.6273 7.72551L12.0023 2.66301C11.6719 2.36418 11.1973 2.29036 10.793 2.47317Z" fill="#4B5563"/>
</svg>
