<svg width="20" height="20" viewBox="0 0 20 20" fill="none" xmlns="http://www.w3.org/2000/svg">
<path d="M12.764 14.386L6.736 11.644M12.862 5.332L6.638 8.727M3.765 13.559C4.19377 13.559 4.61833 13.4745 5.01446 13.3105C5.41059 13.1464 5.77052 12.9059 6.0737 12.6027C6.37689 12.2995 6.61738 11.9396 6.78147 11.5435C6.94555 11.1473 7.03 10.7228 7.03 10.294C7.03 9.86523 6.94555 9.44067 6.78147 9.04454C6.61738 8.64841 6.37689 8.28848 6.0737 7.9853C5.77052 7.68211 5.41059 7.44162 5.01446 7.27753C4.61833 7.11345 4.19377 7.029 3.765 7.029C2.89907 7.029 2.0686 7.37299 1.4563 7.9853C0.84399 8.5976 0.5 9.42807 0.5 10.294C0.5 11.1599 0.84399 11.9904 1.4563 12.6027C2.0686 13.215 2.89907 13.559 3.765 13.559ZM15.735 7.03C16.1638 7.03 16.5883 6.94555 16.9845 6.78147C17.3806 6.61738 17.7405 6.37689 18.0437 6.0737C18.3469 5.77052 18.5874 5.41059 18.7515 5.01446C18.9155 4.61833 19 4.19377 19 3.765C19 3.33623 18.9155 2.91167 18.7515 2.51554C18.5874 2.11941 18.3469 1.75948 18.0437 1.4563C17.7405 1.15311 17.3806 0.912615 16.9845 0.748533C16.5883 0.584452 16.1638 0.5 15.735 0.5C14.8691 0.5 14.0386 0.84399 13.4263 1.4563C12.814 2.0686 12.47 2.89907 12.47 3.765C12.47 4.63093 12.814 5.4614 13.4263 6.0737C14.0386 6.68601 14.8691 7.03 15.735 7.03ZM15.735 19C16.6009 19 17.4314 18.656 18.0437 18.0437C18.656 17.4314 19 16.6009 19 15.735C19 14.8691 18.656 14.0386 18.0437 13.4263C17.4314 12.814 16.6009 12.47 15.735 12.47C14.8691 12.47 14.0386 12.814 13.4263 13.4263C12.814 14.0386 12.47 14.8691 12.47 15.735C12.47 16.6009 12.814 17.4314 13.4263 18.0437C14.0386 18.656 14.8691 19 15.735 19Z" stroke="black" stroke-linecap="round" stroke-linejoin="round"/>
</svg>
