<svg width="23" height="24" viewBox="0 0 23 24" fill="none" xmlns="http://www.w3.org/2000/svg">
<path d="M22.5 24H0V0H22.5V24Z"/>
<g clip-path="url(#clip0_1023_7712)">
<path d="M21.3908 5.55469L19.1525 2.01172C18.9533 1.69531 18.5978 1.5 18.2189 1.5H4.28141C3.9025 1.5 3.54703 1.69531 3.34781 2.01172L1.10563 5.55469C-0.0506235 7.38281 0.972814 9.92578 3.13297 10.2188C3.28922 10.2383 3.44938 10.25 3.60563 10.25C4.62516 10.25 5.53141 9.80469 6.1525 9.11719C6.7736 9.80469 7.67984 10.25 8.69938 10.25C9.71891 10.25 10.6252 9.80469 11.2463 9.11719C11.8673 9.80469 12.7736 10.25 13.7931 10.25C14.8166 10.25 15.7189 9.80469 16.34 9.11719C16.965 9.80469 17.8673 10.25 18.8869 10.25C19.047 10.25 19.2033 10.2383 19.3595 10.2188C21.5275 9.92969 22.5548 7.38672 21.3947 5.55469H21.3908ZM19.5197 11.457H19.5158C19.3088 11.4844 19.0978 11.5 18.883 11.5C18.3986 11.5 17.9338 11.4258 17.5002 11.293V16.5H5.00016V11.2891C4.56266 11.4258 4.09391 11.5 3.60953 11.5C3.39469 11.5 3.17985 11.4844 2.97281 11.457H2.96891C2.80875 11.4336 2.6525 11.4062 2.50016 11.3672V16.5V19C2.50016 20.3789 3.62125 21.5 5.00016 21.5H17.5002C18.8791 21.5 20.0002 20.3789 20.0002 19V16.5V11.3672C19.8439 11.4062 19.6877 11.4375 19.5197 11.457Z" fill="white"/>
</g>
<defs>
<clipPath id="clip0_1023_7712">
<path d="M0 1.5H22.5V21.5H0V1.5Z" fill="white"/>
</clipPath>
</defs>
</svg>
