<svg width="23" height="23" viewBox="0 0 23 23" fill="none" xmlns="http://www.w3.org/2000/svg">
<g clip-path="url(#clip0_1_13770)">
<path d="M21.5625 2.15315L15.8075 2.15317V0.720703C15.8075 0.323594 15.4858 0.00195312 15.0887 0.00195312C14.6916 0.00195312 14.37 0.323594 14.37 0.720703V2.15281H8.61997V0.720703C8.61997 0.323594 8.29833 0.00195312 7.90122 0.00195312C7.50411 0.00195312 7.18247 0.323594 7.18247 0.720703V2.15281H1.4375C0.643641 2.15281 0 2.79645 0 3.59031V21.5591C0 22.3529 0.643641 22.9966 1.4375 22.9966H21.5625C22.3564 22.9966 23 22.3529 23 21.5591V3.59031C23 2.79679 22.3564 2.15315 21.5625 2.15315ZM21.5625 21.5591H1.4375V3.59031H7.18247V4.31445C7.18247 4.71154 7.50411 5.0332 7.90122 5.0332C8.29833 5.0332 8.61997 4.71154 8.61997 4.31445V3.59067H14.37V4.31481C14.37 4.71192 14.6916 5.03356 15.0887 5.03356C15.4858 5.03356 15.8075 4.71192 15.8075 4.31481V3.59067H21.5625V21.5591ZM16.5312 11.4969H17.9688C18.3655 11.4969 18.6875 11.1749 18.6875 10.7781V9.34065C18.6875 8.9439 18.3655 8.6219 17.9688 8.6219H16.5312C16.1345 8.6219 15.8125 8.9439 15.8125 9.34065V10.7781C15.8125 11.1749 16.1345 11.4969 16.5312 11.4969ZM16.5312 17.2465H17.9688C18.3655 17.2465 18.6875 16.9249 18.6875 16.5278V15.0903C18.6875 14.6935 18.3655 14.3715 17.9688 14.3715H16.5312C16.1345 14.3715 15.8125 14.6935 15.8125 15.0903V16.5278C15.8125 16.9253 16.1345 17.2465 16.5312 17.2465ZM12.2188 14.3715H10.7812C10.3845 14.3715 10.0625 14.6935 10.0625 15.0903V16.5278C10.0625 16.9249 10.3845 17.2465 10.7812 17.2465H12.2188C12.6155 17.2465 12.9375 16.9249 12.9375 16.5278V15.0903C12.9375 14.6939 12.6155 14.3715 12.2188 14.3715ZM12.2188 8.6219H10.7812C10.3845 8.6219 10.0625 8.9439 10.0625 9.34065V10.7781C10.0625 11.1749 10.3845 11.4969 10.7812 11.4969H12.2188C12.6155 11.4969 12.9375 11.1749 12.9375 10.7781V9.34065C12.9375 8.94354 12.6155 8.6219 12.2188 8.6219ZM6.46875 8.6219H5.03125C4.6345 8.6219 4.3125 8.9439 4.3125 9.34065V10.7781C4.3125 11.1749 4.6345 11.4969 5.03125 11.4969H6.46875C6.8655 11.4969 7.1875 11.1749 7.1875 10.7781V9.34065C7.1875 8.94354 6.8655 8.6219 6.46875 8.6219ZM6.46875 14.3715H5.03125C4.6345 14.3715 4.3125 14.6935 4.3125 15.0903V16.5278C4.3125 16.9249 4.6345 17.2465 5.03125 17.2465H6.46875C6.8655 17.2465 7.1875 16.9249 7.1875 16.5278V15.0903C7.1875 14.6939 6.8655 14.3715 6.46875 14.3715Z" fill="#FF5F1F"/>
</g>
<defs>
<clipPath id="clip0_1_13770">
<rect width="23" height="23" fill="white"/>
</clipPath>
</defs>
</svg>
