<svg width="20" height="20" viewBox="0 0 20 20" fill="none" xmlns="http://www.w3.org/2000/svg">
<path d="M19.7923 9.63353C19.7923 9.13625 19.5948 8.65934 19.2431 8.30771C18.8915 7.95608 18.4146 7.75853 17.9173 7.75853H12.309C12.2787 7.75828 12.2489 7.75144 12.2215 7.73848C12.1942 7.72553 12.17 7.70678 12.1507 7.68353C12.1285 7.65913 12.1131 7.62944 12.1058 7.59732C12.0985 7.56521 12.0996 7.53176 12.109 7.5002C12.433 6.20821 12.6339 4.88842 12.709 3.55853C12.7373 2.87161 12.5118 2.19828 12.0756 1.66687C11.8932 1.4621 11.67 1.29775 11.4203 1.18437C11.1705 1.071 10.8999 1.0111 10.6257 1.00853C10.4126 0.996106 10.1993 1.02709 9.99863 1.09961C9.79796 1.17213 9.61411 1.28467 9.45825 1.4304C9.30238 1.57614 9.17776 1.75202 9.09194 1.94738C9.00611 2.14273 8.96088 2.3535 8.95898 2.56687C8.97039 4.10017 8.39351 5.57949 7.34712 6.70029C6.30072 7.82109 4.86445 8.49807 3.33398 8.59187H0.833984C0.668895 8.59402 0.511175 8.66056 0.394429 8.77731C0.277684 8.89406 0.211143 9.05178 0.208984 9.21687V16.7169C0.208984 16.8826 0.274832 17.0416 0.392043 17.1588C0.509253 17.276 0.668224 17.3419 0.833984 17.3419C4.60898 17.3419 5.83398 17.8752 6.92565 18.3419C7.88433 18.8017 8.9376 19.0301 10.0007 19.0085H15.4173C15.9146 19.0085 16.3915 18.811 16.7431 18.4594C17.0948 18.1077 17.2923 17.6308 17.2923 17.1335C17.295 16.8445 17.2293 16.559 17.1006 16.3002C17.4084 16.1437 17.6669 15.9053 17.8478 15.6112C18.0286 15.3171 18.1248 14.9788 18.1256 14.6335C18.1283 14.3445 18.0627 14.059 17.934 13.8002C18.2417 13.6437 18.5003 13.4053 18.6811 13.1112C18.862 12.8171 18.9581 12.4788 18.959 12.1335C18.9617 11.8445 18.896 11.559 18.7673 11.3002C19.075 11.1437 19.3336 10.9053 19.5145 10.6112C19.6953 10.3171 19.7915 9.97878 19.7923 9.63353Z" fill="white"/>
</svg>
