<svg width="27" height="27" viewBox="0 0 27 27" fill="none" xmlns="http://www.w3.org/2000/svg">
<path d="M13.5008 19.5746C12.822 19.5747 12.1681 19.3192 11.6692 18.8589C11.1703 18.3986 10.8632 17.7672 10.8089 17.0906C9.00823 16.4532 7.49065 15.2002 6.52401 13.5527C5.55738 11.9053 5.20385 9.96926 5.52583 8.08647C5.84781 6.20368 6.82459 4.49517 8.28376 3.26253C9.74293 2.0299 11.5907 1.35239 13.5008 1.34961C15.5324 1.34932 17.4899 2.11248 18.9852 3.48777C20.4806 4.86307 21.4045 6.75007 21.5738 8.77461C21.5794 8.86242 21.5667 8.95045 21.5365 9.0331C21.5063 9.11575 21.4592 9.19121 21.3983 9.25469C21.3374 9.31817 21.2639 9.36828 21.1825 9.40184C21.1012 9.43539 21.0138 9.45166 20.9258 9.44961C20.745 9.44508 20.5723 9.37348 20.4413 9.24873C20.3103 9.12399 20.2304 8.955 20.217 8.77461C20.0968 7.58099 19.6606 6.44097 18.9534 5.47193C18.2462 4.50289 17.2935 3.73984 16.1934 3.26133C15.0933 2.78282 13.8855 2.60614 12.6945 2.74948C11.5034 2.89283 10.3721 3.35102 9.41691 4.07688C8.46175 4.80274 7.71731 5.77004 7.26021 6.87921C6.8031 7.98838 6.64987 9.19933 6.81627 10.3874C6.98267 11.5755 7.46269 12.6977 8.20693 13.6386C8.95116 14.5795 9.93271 15.3051 11.0505 15.7406C11.2539 15.3011 11.5718 14.9244 11.9708 14.65C12.3698 14.3756 12.8353 14.2135 13.3184 14.1808C13.8016 14.1481 14.2847 14.2459 14.717 14.464C15.1494 14.6822 15.5151 15.0126 15.7759 15.4206C16.0367 15.8287 16.1829 16.2994 16.1993 16.7834C16.2157 17.2674 16.1016 17.7469 15.8689 18.1716C15.6363 18.5964 15.2937 18.9507 14.8771 19.1975C14.4604 19.4444 13.9851 19.5746 13.5008 19.5746ZM6.76293 16.1996H6.88578C7.41228 16.714 7.99683 17.1676 8.62998 17.5496H6.76293C6.00558 17.5496 5.40078 18.1531 5.40078 18.8996C5.40078 20.6668 6.24048 21.983 7.65933 22.8862C9.10383 23.8082 11.1585 24.2996 13.5008 24.2996C15.843 24.2996 17.8977 23.8082 19.3422 22.8862C20.7597 21.9817 21.6008 20.6681 21.6008 18.8996C21.6008 18.5416 21.4585 18.1982 21.2054 17.945C20.9522 17.6918 20.6088 17.5496 20.2508 17.5496H17.4954C17.571 17.1028 17.571 16.6464 17.4954 16.1996H20.2508C20.9669 16.1996 21.6536 16.4841 22.16 16.9904C22.6663 17.4968 22.9508 18.1835 22.9508 18.8996C22.9508 21.1825 21.8262 22.9037 20.0685 24.0256C18.3378 25.1285 16.005 25.6496 13.5008 25.6496C10.9965 25.6496 8.66373 25.1285 6.93303 24.0256C5.17533 22.9051 4.05078 21.1811 4.05078 18.8996C4.05078 17.3971 5.26983 16.1996 6.76293 16.1996ZM18.9008 9.44961C18.9011 10.3631 18.6696 11.2617 18.2281 12.0614C17.7866 12.861 17.1495 13.5356 16.3763 14.0221C16.0159 13.6587 15.5899 13.3669 15.1208 13.1621C15.9736 12.7899 16.6722 12.1355 17.0992 11.3088C17.5261 10.4821 17.6555 9.53359 17.4654 8.62277C17.2753 7.71195 16.7773 6.89436 16.0553 6.30748C15.3333 5.7206 14.4312 5.40022 13.5008 5.40022C12.5703 5.40022 11.6683 5.7206 10.9462 6.30748C10.2242 6.89436 9.72631 7.71195 9.53621 8.62277C9.34611 9.53359 9.47543 10.4821 9.90241 11.3088C10.3294 12.1355 11.028 12.7899 11.8808 13.1621C11.4083 13.3687 10.983 13.6616 10.6253 14.0221C9.59985 13.3772 8.82102 12.4063 8.41398 11.2654C8.20633 10.6825 8.10039 10.0683 8.10078 9.44961C8.10078 8.01744 8.66971 6.64393 9.6824 5.63123C10.6951 4.61854 12.0686 4.04961 13.5008 4.04961C14.933 4.04961 16.3065 4.61854 17.3192 5.63123C18.3319 6.64393 18.9008 8.01744 18.9008 9.44961Z" fill="#FF5F1F"/>
</svg>
