<svg width="17" height="17" viewBox="0 0 17 17" fill="none" xmlns="http://www.w3.org/2000/svg">
<path d="M8.49928 15.5423C7.10646 15.5423 5.74491 15.1292 4.58682 14.3554C3.42873 13.5816 2.52611 12.4818 1.99309 11.195C1.46008 9.90817 1.32062 8.4922 1.59235 7.12614C1.86408 5.76008 2.53479 4.50527 3.51966 3.52039C4.50454 2.53552 5.75935 1.86481 7.12541 1.59308C8.49147 1.32135 9.90743 1.46081 11.1942 1.99383C12.481 2.52684 13.5809 3.42946 14.3547 4.58755C15.1285 5.74564 15.5415 7.10719 15.5415 8.50002C15.5395 10.3671 14.7969 12.1571 13.4766 13.4774C12.1564 14.7976 10.3664 15.5402 8.49928 15.5423ZM8.49928 2.1661C7.24655 2.1661 6.02196 2.53758 4.98035 3.23356C3.93874 3.92954 3.12691 4.91876 2.64751 6.07613C2.16811 7.2335 2.04268 8.50704 2.28707 9.7357C2.53147 10.9644 3.13471 12.093 4.02053 12.9788C4.90634 13.8646 6.03494 14.4678 7.2636 14.7122C8.49226 14.9566 9.7658 14.8312 10.9232 14.3518C12.0805 13.8724 13.0698 13.0606 13.7657 12.019C14.4617 10.9773 14.8332 9.75275 14.8332 8.50002C14.8317 6.82062 14.1639 5.21043 12.9764 4.02292C11.7889 2.8354 10.1787 2.1676 8.49928 2.1661Z" fill="#111827"/>
<path d="M6.37565 7.25338C6.86465 7.25338 7.26107 6.85696 7.26107 6.36796C7.26107 5.87896 6.86465 5.48254 6.37565 5.48254C5.88665 5.48254 5.49023 5.87896 5.49023 6.36796C5.49023 6.85696 5.88665 7.25338 6.37565 7.25338Z" fill="#111827"/>
<path d="M10.6257 7.25338C11.1147 7.25338 11.5111 6.85696 11.5111 6.36796C11.5111 5.87896 11.1147 5.48254 10.6257 5.48254C10.1366 5.48254 9.74023 5.87896 9.74023 6.36796C9.74023 6.85696 10.1366 7.25338 10.6257 7.25338Z" fill="#111827"/>
<path d="M5.97721 11.2901H11.0241C11.118 11.2901 11.2081 11.2528 11.2745 11.1864C11.3409 11.12 11.3783 11.0299 11.3783 10.936C11.3783 10.842 11.3409 10.7519 11.2745 10.6855C11.2081 10.6191 11.118 10.5818 11.0241 10.5818H5.97721C5.88328 10.5818 5.7932 10.6191 5.72678 10.6855C5.66036 10.7519 5.62305 10.842 5.62305 10.936C5.62305 11.0299 5.66036 11.12 5.72678 11.1864C5.7932 11.2528 5.88328 11.2901 5.97721 11.2901Z" fill="#111827"/>
</svg>
