<svg width="344" height="89" viewBox="0 0 344 89" fill="none" xmlns="http://www.w3.org/2000/svg">
<rect x="0.5" y="0.5" width="343" height="88" rx="11.5" stroke="black" stroke-opacity="0.1" stroke-dasharray="2 2"/>
<path d="M55.7841 60.2727H56.8409V66.0511C56.8409 66.6477 56.7003 67.1804 56.419 67.6491C56.1406 68.1151 55.7472 68.483 55.2386 68.7528C54.7301 69.0199 54.1335 69.1534 53.4489 69.1534C52.7642 69.1534 52.1676 69.0199 51.6591 68.7528C51.1506 68.483 50.7557 68.1151 50.4744 67.6491C50.196 67.1804 50.0568 66.6477 50.0568 66.0511V60.2727H51.1136V65.9659C51.1136 66.392 51.2074 66.7713 51.3949 67.1037C51.5824 67.4332 51.8494 67.6932 52.196 67.8835C52.5455 68.071 52.9631 68.1648 53.4489 68.1648C53.9347 68.1648 54.3523 68.071 54.7017 67.8835C55.0511 67.6932 55.3182 67.4332 55.5028 67.1037C55.6903 66.7713 55.7841 66.392 55.7841 65.9659V60.2727ZM58.833 71.4545V62.4545H59.8046V63.4943H59.9239C59.9978 63.3807 60.1 63.2358 60.2307 63.0597C60.3642 62.8807 60.5546 62.7216 60.8017 62.5824C61.0517 62.4403 61.3898 62.3693 61.8159 62.3693C62.3671 62.3693 62.8529 62.5071 63.2733 62.7827C63.6938 63.0582 64.0219 63.4489 64.2577 63.9545C64.4935 64.4602 64.6114 65.0568 64.6114 65.7443C64.6114 66.4375 64.4935 67.0384 64.2577 67.5469C64.0219 68.0526 63.6952 68.4446 63.2776 68.723C62.86 68.9986 62.3784 69.1364 61.833 69.1364C61.4125 69.1364 61.0759 69.0668 60.823 68.9276C60.5702 68.7855 60.3756 68.625 60.2392 68.446C60.1029 68.2642 59.9978 68.1136 59.9239 67.9943H59.8387V71.4545H58.833ZM59.8216 65.7273C59.8216 66.2216 59.8941 66.6577 60.039 67.0355C60.1838 67.4105 60.3955 67.7045 60.6739 67.9176C60.9523 68.1278 61.2932 68.233 61.6966 68.233C62.1171 68.233 62.4679 68.1222 62.7492 67.9006C63.0333 67.6761 63.2463 67.375 63.3884 66.9972C63.5333 66.6165 63.6057 66.1932 63.6057 65.7273C63.6057 65.267 63.5347 64.8523 63.3926 64.483C63.2534 64.1108 63.0418 63.8168 62.7577 63.6009C62.4765 63.3821 62.1228 63.2727 61.6966 63.2727C61.2875 63.2727 60.9438 63.3764 60.6654 63.5838C60.387 63.7884 60.1767 64.0753 60.0347 64.4446C59.8926 64.8111 59.8216 65.2386 59.8216 65.7273ZM67.1692 60.2727V69H66.1635V60.2727H67.1692ZM71.6882 69.1364C71.0973 69.1364 70.5789 68.9957 70.1328 68.7145C69.6897 68.4332 69.3431 68.0398 69.0931 67.5341C68.8459 67.0284 68.7223 66.4375 68.7223 65.7614C68.7223 65.0795 68.8459 64.4844 69.0931 63.9759C69.3431 63.4673 69.6897 63.0724 70.1328 62.7912C70.5789 62.5099 71.0973 62.3693 71.6882 62.3693C72.2791 62.3693 72.7962 62.5099 73.2394 62.7912C73.6854 63.0724 74.032 63.4673 74.2791 63.9759C74.5291 64.4844 74.6541 65.0795 74.6541 65.7614C74.6541 66.4375 74.5291 67.0284 74.2791 67.5341C74.032 68.0398 73.6854 68.4332 73.2394 68.7145C72.7962 68.9957 72.2791 69.1364 71.6882 69.1364ZM71.6882 68.233C72.1371 68.233 72.5064 68.1179 72.7962 67.8878C73.086 67.6577 73.3004 67.3551 73.4397 66.9801C73.5789 66.6051 73.6485 66.1989 73.6485 65.7614C73.6485 65.3239 73.5789 64.9162 73.4397 64.5384C73.3004 64.1605 73.086 63.8551 72.7962 63.6222C72.5064 63.3892 72.1371 63.2727 71.6882 63.2727C71.2394 63.2727 70.8701 63.3892 70.5803 63.6222C70.2905 63.8551 70.076 64.1605 69.9368 64.5384C69.7976 64.9162 69.728 65.3239 69.728 65.7614C69.728 66.1989 69.7976 66.6051 69.9368 66.9801C70.076 67.3551 70.2905 67.6577 70.5803 67.8878C70.8701 68.1179 71.2394 68.233 71.6882 68.233ZM78.1334 69.1534C77.7187 69.1534 77.3422 69.0753 77.0042 68.919C76.6661 68.7599 76.3976 68.5312 76.1988 68.233C75.9999 67.9318 75.9005 67.5682 75.9005 67.142C75.9005 66.767 75.9743 66.4631 76.1221 66.2301C76.2698 65.9943 76.4672 65.8097 76.7144 65.6761C76.9616 65.5426 77.2343 65.4432 77.5326 65.3778C77.8337 65.3097 78.1363 65.2557 78.4403 65.2159C78.838 65.1648 79.1604 65.1264 79.4076 65.1009C79.6576 65.0724 79.8394 65.0256 79.953 64.9602C80.0695 64.8949 80.1278 64.7812 80.1278 64.6193V64.5852C80.1278 64.1648 80.0127 63.8381 79.7826 63.6051C79.5553 63.3722 79.2101 63.2557 78.7471 63.2557C78.267 63.2557 77.8905 63.3608 77.6178 63.571C77.3451 63.7812 77.1533 64.0057 77.0425 64.2443L76.088 63.9034C76.2584 63.5057 76.4857 63.196 76.7698 62.9744C77.0567 62.75 77.3692 62.5937 77.7073 62.5057C78.0482 62.4148 78.3834 62.3693 78.713 62.3693C78.9232 62.3693 79.1647 62.3949 79.4374 62.446C79.713 62.4943 79.9786 62.5952 80.2343 62.7486C80.4928 62.902 80.7073 63.1335 80.8778 63.4432C81.0482 63.7528 81.1334 64.1676 81.1334 64.6875V69H80.1278V68.1136H80.0766C80.0084 68.2557 79.8948 68.4077 79.7357 68.5696C79.5766 68.7315 79.365 68.8693 79.1008 68.983C78.8366 69.0966 78.5141 69.1534 78.1334 69.1534ZM78.2868 68.25C78.6846 68.25 79.0198 68.1719 79.2925 68.0156C79.5681 67.8594 79.7755 67.6577 79.9147 67.4105C80.0567 67.1634 80.1278 66.9034 80.1278 66.6307V65.7102C80.0851 65.7614 79.9914 65.8082 79.8465 65.8509C79.7045 65.8906 79.5397 65.9261 79.3522 65.9574C79.1675 65.9858 78.9871 66.0114 78.811 66.0341C78.6377 66.054 78.4971 66.071 78.3891 66.0852C78.1278 66.1193 77.8834 66.1747 77.6562 66.2514C77.4317 66.3253 77.2499 66.4375 77.1107 66.5881C76.9743 66.7358 76.9062 66.9375 76.9062 67.1932C76.9062 67.5426 77.0354 67.8068 77.2939 67.9858C77.5553 68.1619 77.8863 68.25 78.2868 68.25ZM85.4586 69.1364C84.9132 69.1364 84.4316 68.9986 84.014 68.723C83.5964 68.4446 83.2697 68.0526 83.0339 67.5469C82.7981 67.0384 82.6802 66.4375 82.6802 65.7443C82.6802 65.0568 82.7981 64.4602 83.0339 63.9545C83.2697 63.4489 83.5978 63.0582 84.0183 62.7827C84.4387 62.5071 84.9245 62.3693 85.4757 62.3693C85.9018 62.3693 86.2384 62.4403 86.4856 62.5824C86.7356 62.7216 86.9259 62.8807 87.0566 63.0597C87.1901 63.2358 87.2938 63.3807 87.3677 63.4943H87.4529V60.2727H88.4586V69H87.487V67.9943H87.3677C87.2938 68.1136 87.1887 68.2642 87.0524 68.446C86.916 68.625 86.7214 68.7855 86.4686 68.9276C86.2157 69.0668 85.8791 69.1364 85.4586 69.1364ZM85.595 68.233C85.9984 68.233 86.3393 68.1278 86.6177 67.9176C86.8961 67.7045 87.1078 67.4105 87.2526 67.0355C87.3975 66.6577 87.47 66.2216 87.47 65.7273C87.47 65.2386 87.3989 64.8111 87.2569 64.4446C87.1149 64.0753 86.9046 63.7884 86.6262 63.5838C86.3478 63.3764 86.0041 63.2727 85.595 63.2727C85.1688 63.2727 84.8137 63.3821 84.5296 63.6009C84.2484 63.8168 84.0367 64.1108 83.8947 64.483C83.7555 64.8523 83.6859 65.267 83.6859 65.7273C83.6859 66.1932 83.7569 66.6165 83.8989 66.9972C84.0438 67.375 84.2569 67.6761 84.5382 67.9006C84.8222 68.1222 85.1745 68.233 85.595 68.233ZM94.4989 71.4545C94.3284 71.4545 94.1764 71.4403 94.0429 71.4119C93.9094 71.3864 93.8171 71.3608 93.7659 71.3352L94.0216 70.4489C94.2659 70.5114 94.4818 70.5341 94.6693 70.517C94.8568 70.5 95.023 70.4162 95.1679 70.2656C95.3156 70.1179 95.4506 69.8778 95.5727 69.5455L95.7602 69.0341L93.3398 62.4545H94.4307L96.2375 67.6705H96.3057L98.1125 62.4545H99.2034L96.425 69.9545C96.3 70.2926 96.1452 70.5724 95.9605 70.794C95.7759 71.0185 95.5614 71.1847 95.3171 71.2926C95.0756 71.4006 94.8028 71.4545 94.4989 71.4545ZM102.974 69.1364C102.383 69.1364 101.864 68.9957 101.418 68.7145C100.975 68.4332 100.628 68.0398 100.378 67.5341C100.131 67.0284 100.008 66.4375 100.008 65.7614C100.008 65.0795 100.131 64.4844 100.378 63.9759C100.628 63.4673 100.975 63.0724 101.418 62.7912C101.864 62.5099 102.383 62.3693 102.974 62.3693C103.564 62.3693 104.082 62.5099 104.525 62.7912C104.971 63.0724 105.317 63.4673 105.564 63.9759C105.814 64.4844 105.939 65.0795 105.939 65.7614C105.939 66.4375 105.814 67.0284 105.564 67.5341C105.317 68.0398 104.971 68.4332 104.525 68.7145C104.082 68.9957 103.564 69.1364 102.974 69.1364ZM102.974 68.233C103.422 68.233 103.792 68.1179 104.082 67.8878C104.371 67.6577 104.586 67.3551 104.725 66.9801C104.864 66.6051 104.934 66.1989 104.934 65.7614C104.934 65.3239 104.864 64.9162 104.725 64.5384C104.586 64.1605 104.371 63.8551 104.082 63.6222C103.792 63.3892 103.422 63.2727 102.974 63.2727C102.525 63.2727 102.155 63.3892 101.866 63.6222C101.576 63.8551 101.361 64.1605 101.222 64.5384C101.083 64.9162 101.013 65.3239 101.013 65.7614C101.013 66.1989 101.083 66.6051 101.222 66.9801C101.361 67.3551 101.576 67.6577 101.866 67.8878C102.155 68.1179 102.525 68.233 102.974 68.233ZM111.618 66.3239V62.4545H112.623V69H111.618V67.892H111.549C111.396 68.2244 111.157 68.5071 110.834 68.7401C110.51 68.9702 110.101 69.0852 109.606 69.0852C109.197 69.0852 108.834 68.9957 108.515 68.8168C108.197 68.6349 107.947 68.3622 107.765 67.9986C107.584 67.6321 107.493 67.1705 107.493 66.6136V62.4545H108.498V66.5455C108.498 67.0227 108.632 67.4034 108.899 67.6875C109.169 67.9716 109.512 68.1136 109.93 68.1136C110.18 68.1136 110.434 68.0497 110.693 67.9219C110.954 67.794 111.173 67.598 111.349 67.3338C111.528 67.0696 111.618 66.733 111.618 66.3239ZM114.483 69V62.4545H115.455V63.4432H115.523C115.642 63.1193 115.858 62.8565 116.171 62.6548C116.483 62.4531 116.836 62.3523 117.228 62.3523C117.301 62.3523 117.394 62.3537 117.505 62.3565C117.615 62.3594 117.699 62.3636 117.756 62.3693V63.392C117.722 63.3835 117.644 63.3707 117.522 63.3537C117.402 63.3338 117.276 63.3239 117.142 63.3239C116.824 63.3239 116.54 63.3906 116.29 63.5241C116.043 63.6548 115.847 63.8366 115.702 64.0696C115.56 64.2997 115.489 64.5625 115.489 64.858V69H114.483ZM122.495 69V60.2727H123.501V63.4943H123.586C123.66 63.3807 123.763 63.2358 123.893 63.0597C124.027 62.8807 124.217 62.7216 124.464 62.5824C124.714 62.4403 125.052 62.3693 125.478 62.3693C126.03 62.3693 126.515 62.5071 126.936 62.7827C127.356 63.0582 127.684 63.4489 127.92 63.9545C128.156 64.4602 128.274 65.0568 128.274 65.7443C128.274 66.4375 128.156 67.0384 127.92 67.5469C127.684 68.0526 127.358 68.4446 126.94 68.723C126.522 68.9986 126.041 69.1364 125.495 69.1364C125.075 69.1364 124.738 69.0668 124.486 68.9276C124.233 68.7855 124.038 68.625 123.902 68.446C123.765 68.2642 123.66 68.1136 123.586 67.9943H123.467V69H122.495ZM123.484 65.7273C123.484 66.2216 123.557 66.6577 123.701 67.0355C123.846 67.4105 124.058 67.7045 124.336 67.9176C124.615 68.1278 124.956 68.233 125.359 68.233C125.78 68.233 126.13 68.1222 126.412 67.9006C126.696 67.6761 126.909 67.375 127.051 66.9972C127.196 66.6165 127.268 66.1932 127.268 65.7273C127.268 65.267 127.197 64.8523 127.055 64.483C126.916 64.1108 126.704 63.8168 126.42 63.6009C126.139 63.3821 125.785 63.2727 125.359 63.2727C124.95 63.2727 124.606 63.3764 124.328 63.5838C124.049 63.7884 123.839 64.0753 123.697 64.4446C123.555 64.8111 123.484 65.2386 123.484 65.7273ZM133.955 66.3239V62.4545H134.961V69H133.955V67.892H133.887C133.734 68.2244 133.495 68.5071 133.171 68.7401C132.847 68.9702 132.438 69.0852 131.944 69.0852C131.535 69.0852 131.171 68.9957 130.853 68.8168C130.535 68.6349 130.285 68.3622 130.103 67.9986C129.921 67.6321 129.83 67.1705 129.83 66.6136V62.4545H130.836V66.5455C130.836 67.0227 130.969 67.4034 131.236 67.6875C131.506 67.9716 131.85 68.1136 132.268 68.1136C132.518 68.1136 132.772 68.0497 133.031 67.9219C133.292 67.794 133.511 67.598 133.687 67.3338C133.866 67.0696 133.955 66.733 133.955 66.3239ZM141.457 63.9205L140.554 64.1761C140.497 64.0256 140.413 63.8793 140.302 63.7372C140.194 63.5923 140.047 63.473 139.859 63.3793C139.672 63.2855 139.432 63.2386 139.139 63.2386C138.739 63.2386 138.405 63.331 138.138 63.5156C137.873 63.6974 137.741 63.929 137.741 64.2102C137.741 64.4602 137.832 64.6577 138.014 64.8026C138.196 64.9474 138.48 65.0682 138.866 65.1648L139.838 65.4034C140.423 65.5455 140.859 65.7628 141.146 66.0554C141.433 66.3452 141.577 66.7187 141.577 67.1761C141.577 67.5511 141.469 67.8864 141.253 68.1818C141.04 68.4773 140.741 68.7102 140.358 68.8807C139.974 69.0511 139.528 69.1364 139.02 69.1364C138.352 69.1364 137.8 68.9915 137.362 68.7017C136.925 68.4119 136.648 67.9886 136.531 67.4318L137.486 67.1932C137.577 67.5455 137.748 67.8097 138.001 67.9858C138.257 68.1619 138.591 68.25 139.003 68.25C139.471 68.25 139.844 68.1506 140.119 67.9517C140.398 67.75 140.537 67.5085 140.537 67.2273C140.537 67 140.457 66.8097 140.298 66.6562C140.139 66.5 139.895 66.3835 139.565 66.3068L138.474 66.0511C137.875 65.9091 137.435 65.6889 137.153 65.3906C136.875 65.0895 136.736 64.7131 136.736 64.2614C136.736 63.892 136.839 63.5653 137.047 63.2812C137.257 62.9972 137.542 62.7741 137.903 62.6122C138.267 62.4503 138.679 62.3693 139.139 62.3693C139.787 62.3693 140.295 62.5114 140.665 62.7955C141.037 63.0795 141.301 63.4545 141.457 63.9205ZM143.108 69V62.4545H144.114V69H143.108ZM143.62 61.3636C143.424 61.3636 143.255 61.2969 143.113 61.1634C142.973 61.0298 142.904 60.8693 142.904 60.6818C142.904 60.4943 142.973 60.3338 143.113 60.2003C143.255 60.0668 143.424 60 143.62 60C143.816 60 143.983 60.0668 144.123 60.2003C144.265 60.3338 144.336 60.4943 144.336 60.6818C144.336 60.8693 144.265 61.0298 144.123 61.1634C143.983 61.2969 143.816 61.3636 143.62 61.3636ZM146.98 65.0625V69H145.974V62.4545H146.946V63.4773H147.031C147.184 63.1449 147.417 62.8778 147.73 62.6761C148.042 62.4716 148.446 62.3693 148.94 62.3693C149.383 62.3693 149.771 62.4602 150.103 62.642C150.436 62.821 150.694 63.0938 150.879 63.4602C151.064 63.8239 151.156 64.2841 151.156 64.8409V69H150.15V64.9091C150.15 64.3949 150.017 63.9943 149.75 63.7074C149.483 63.4176 149.116 63.2727 148.65 63.2727C148.329 63.2727 148.042 63.3423 147.789 63.4815C147.539 63.6207 147.342 63.8239 147.197 64.0909C147.052 64.358 146.98 64.6818 146.98 65.0625ZM155.756 69.1364C155.125 69.1364 154.581 68.9972 154.124 68.7188C153.669 68.4375 153.318 68.0455 153.071 67.5426C152.827 67.0369 152.705 66.4489 152.705 65.7784C152.705 65.108 152.827 64.517 153.071 64.0057C153.318 63.4915 153.662 63.0909 154.103 62.804C154.546 62.5142 155.063 62.3693 155.654 62.3693C155.995 62.3693 156.331 62.4261 156.664 62.5398C156.996 62.6534 157.299 62.8381 157.571 63.0938C157.844 63.3466 158.061 63.6818 158.223 64.0994C158.385 64.517 158.466 65.0312 158.466 65.642V66.0682H153.421V65.1989H157.443C157.443 64.8295 157.37 64.5 157.222 64.2102C157.077 63.9205 156.87 63.6918 156.6 63.5241C156.333 63.3565 156.017 63.2727 155.654 63.2727C155.253 63.2727 154.906 63.3722 154.614 63.571C154.324 63.767 154.101 64.0227 153.945 64.3381C153.789 64.6534 153.71 64.9915 153.71 65.3523V65.9318C153.71 66.4261 153.796 66.8452 153.966 67.1889C154.139 67.5298 154.38 67.7898 154.686 67.9688C154.993 68.1449 155.35 68.233 155.756 68.233C156.02 68.233 156.259 68.196 156.472 68.1222C156.688 68.0455 156.874 67.9318 157.03 67.7812C157.186 67.6278 157.307 67.4375 157.392 67.2102L158.364 67.483C158.262 67.8125 158.09 68.1023 157.848 68.3523C157.607 68.5994 157.308 68.7926 156.953 68.9318C156.598 69.0682 156.199 69.1364 155.756 69.1364ZM164.65 63.9205L163.747 64.1761C163.69 64.0256 163.606 63.8793 163.496 63.7372C163.388 63.5923 163.24 63.473 163.052 63.3793C162.865 63.2855 162.625 63.2386 162.332 63.2386C161.932 63.2386 161.598 63.331 161.331 63.5156C161.067 63.6974 160.934 63.929 160.934 64.2102C160.934 64.4602 161.025 64.6577 161.207 64.8026C161.389 64.9474 161.673 65.0682 162.059 65.1648L163.031 65.4034C163.616 65.5455 164.052 65.7628 164.339 66.0554C164.626 66.3452 164.77 66.7187 164.77 67.1761C164.77 67.5511 164.662 67.8864 164.446 68.1818C164.233 68.4773 163.934 68.7102 163.551 68.8807C163.167 69.0511 162.721 69.1364 162.213 69.1364C161.545 69.1364 160.993 68.9915 160.555 68.7017C160.118 68.4119 159.841 67.9886 159.724 67.4318L160.679 67.1932C160.77 67.5455 160.942 67.8097 161.194 67.9858C161.45 68.1619 161.784 68.25 162.196 68.25C162.665 68.25 163.037 68.1506 163.312 67.9517C163.591 67.75 163.73 67.5085 163.73 67.2273C163.73 67 163.65 66.8097 163.491 66.6562C163.332 66.5 163.088 66.3835 162.758 66.3068L161.667 66.0511C161.068 65.9091 160.628 65.6889 160.346 65.3906C160.068 65.0895 159.929 64.7131 159.929 64.2614C159.929 63.892 160.032 63.5653 160.24 63.2812C160.45 62.9972 160.736 62.7741 161.096 62.6122C161.46 62.4503 161.872 62.3693 162.332 62.3693C162.98 62.3693 163.488 62.5114 163.858 62.7955C164.23 63.0795 164.494 63.4545 164.65 63.9205ZM170.938 63.9205L170.034 64.1761C169.978 64.0256 169.894 63.8793 169.783 63.7372C169.675 63.5923 169.527 63.473 169.34 63.3793C169.152 63.2855 168.912 63.2386 168.62 63.2386C168.219 63.2386 167.885 63.331 167.618 63.5156C167.354 63.6974 167.222 63.929 167.222 64.2102C167.222 64.4602 167.313 64.6577 167.495 64.8026C167.677 64.9474 167.961 65.0682 168.347 65.1648L169.319 65.4034C169.904 65.5455 170.34 65.7628 170.627 66.0554C170.914 66.3452 171.057 66.7187 171.057 67.1761C171.057 67.5511 170.949 67.8864 170.733 68.1818C170.52 68.4773 170.222 68.7102 169.838 68.8807C169.455 69.0511 169.009 69.1364 168.5 69.1364C167.833 69.1364 167.28 68.9915 166.843 68.7017C166.405 68.4119 166.128 67.9886 166.012 67.4318L166.966 67.1932C167.057 67.5455 167.229 67.8097 167.482 67.9858C167.738 68.1619 168.071 68.25 168.483 68.25C168.952 68.25 169.324 68.1506 169.6 67.9517C169.878 67.75 170.017 67.5085 170.017 67.2273C170.017 67 169.938 66.8097 169.779 66.6562C169.62 66.5 169.375 66.3835 169.046 66.3068L167.955 66.0511C167.355 65.9091 166.915 65.6889 166.634 65.3906C166.355 65.0895 166.216 64.7131 166.216 64.2614C166.216 63.892 166.32 63.5653 166.527 63.2812C166.738 62.9972 167.023 62.7741 167.384 62.6122C167.748 62.4503 168.159 62.3693 168.62 62.3693C169.267 62.3693 169.776 62.5114 170.145 62.7955C170.517 63.0795 170.782 63.4545 170.938 63.9205ZM176.988 60.2727V69H175.982V60.2727H176.988ZM181.507 69.1364C180.916 69.1364 180.397 68.9957 179.951 68.7145C179.508 68.4332 179.162 68.0398 178.912 67.5341C178.664 67.0284 178.541 66.4375 178.541 65.7614C178.541 65.0795 178.664 64.4844 178.912 63.9759C179.162 63.4673 179.508 63.0724 179.951 62.7912C180.397 62.5099 180.916 62.3693 181.507 62.3693C182.098 62.3693 182.615 62.5099 183.058 62.7912C183.504 63.0724 183.851 63.4673 184.098 63.9759C184.348 64.4844 184.473 65.0795 184.473 65.7614C184.473 66.4375 184.348 67.0284 184.098 67.5341C183.851 68.0398 183.504 68.4332 183.058 68.7145C182.615 68.9957 182.098 69.1364 181.507 69.1364ZM181.507 68.233C181.956 68.233 182.325 68.1179 182.615 67.8878C182.905 67.6577 183.119 67.3551 183.258 66.9801C183.397 66.6051 183.467 66.1989 183.467 65.7614C183.467 65.3239 183.397 64.9162 183.258 64.5384C183.119 64.1605 182.905 63.8551 182.615 63.6222C182.325 63.3892 181.956 63.2727 181.507 63.2727C181.058 63.2727 180.689 63.3892 180.399 63.6222C180.109 63.8551 179.895 64.1605 179.755 64.5384C179.616 64.9162 179.547 65.3239 179.547 65.7614C179.547 66.1989 179.616 66.6051 179.755 66.9801C179.895 67.3551 180.109 67.6577 180.399 67.8878C180.689 68.1179 181.058 68.233 181.507 68.233ZM188.668 71.5909C188.182 71.5909 187.764 71.5284 187.415 71.4034C187.066 71.2812 186.774 71.1193 186.541 70.9176C186.311 70.7188 186.128 70.5057 185.992 70.2784L186.793 69.7159C186.884 69.8352 186.999 69.9716 187.138 70.125C187.277 70.2812 187.468 70.4162 187.709 70.5298C187.953 70.6463 188.273 70.7045 188.668 70.7045C189.196 70.7045 189.632 70.5767 189.976 70.321C190.32 70.0653 190.492 69.6648 190.492 69.1193V67.7898H190.407C190.333 67.9091 190.228 68.0568 190.091 68.233C189.958 68.4062 189.764 68.5611 189.512 68.6974C189.262 68.831 188.924 68.8977 188.497 68.8977C187.969 68.8977 187.495 68.7727 187.074 68.5227C186.657 68.2727 186.326 67.9091 186.081 67.4318C185.84 66.9545 185.719 66.375 185.719 65.6932C185.719 65.0227 185.837 64.4389 186.073 63.9418C186.309 63.4418 186.637 63.0554 187.057 62.7827C187.478 62.5071 187.963 62.3693 188.514 62.3693C188.941 62.3693 189.279 62.4403 189.529 62.5824C189.782 62.7216 189.975 62.8807 190.108 63.0597C190.245 63.2358 190.35 63.3807 190.424 63.4943H190.526V62.4545H191.497V69.1875C191.497 69.75 191.37 70.2074 191.114 70.5597C190.861 70.9148 190.52 71.1747 190.091 71.3395C189.665 71.5071 189.191 71.5909 188.668 71.5909ZM188.634 67.9943C189.037 67.9943 189.378 67.902 189.657 67.7173C189.935 67.5327 190.147 67.267 190.291 66.9205C190.436 66.5739 190.509 66.1591 190.509 65.6761C190.509 65.2045 190.438 64.7884 190.296 64.4276C190.154 64.0668 189.943 63.7841 189.665 63.5795C189.387 63.375 189.043 63.2727 188.634 63.2727C188.208 63.2727 187.853 63.3807 187.568 63.5966C187.287 63.8125 187.076 64.1023 186.934 64.4659C186.794 64.8295 186.725 65.233 186.725 65.6761C186.725 66.1307 186.796 66.5327 186.938 66.8821C187.083 67.2287 187.296 67.5014 187.577 67.7003C187.861 67.8963 188.213 67.9943 188.634 67.9943ZM196.015 69.1364C195.425 69.1364 194.906 68.9957 194.46 68.7145C194.017 68.4332 193.67 68.0398 193.42 67.5341C193.173 67.0284 193.05 66.4375 193.05 65.7614C193.05 65.0795 193.173 64.4844 193.42 63.9759C193.67 63.4673 194.017 63.0724 194.46 62.7912C194.906 62.5099 195.425 62.3693 196.015 62.3693C196.606 62.3693 197.123 62.5099 197.567 62.7912C198.013 63.0724 198.359 63.4673 198.606 63.9759C198.856 64.4844 198.981 65.0795 198.981 65.7614C198.981 66.4375 198.856 67.0284 198.606 67.5341C198.359 68.0398 198.013 68.4332 197.567 68.7145C197.123 68.9957 196.606 69.1364 196.015 69.1364ZM196.015 68.233C196.464 68.233 196.834 68.1179 197.123 67.8878C197.413 67.6577 197.628 67.3551 197.767 66.9801C197.906 66.6051 197.976 66.1989 197.976 65.7614C197.976 65.3239 197.906 64.9162 197.767 64.5384C197.628 64.1605 197.413 63.8551 197.123 63.6222C196.834 63.3892 196.464 63.2727 196.015 63.2727C195.567 63.2727 195.197 63.3892 194.908 63.6222C194.618 63.8551 194.403 64.1605 194.264 64.5384C194.125 64.9162 194.055 65.3239 194.055 65.7614C194.055 66.1989 194.125 66.6051 194.264 66.9801C194.403 67.3551 194.618 67.6577 194.908 67.8878C195.197 68.1179 195.567 68.233 196.015 68.233ZM206.842 62.4545V63.3068H203.314V62.4545H206.842ZM204.371 69V61.5511C204.371 61.1761 204.459 60.8636 204.635 60.6136C204.811 60.3636 205.04 60.1761 205.321 60.0511C205.602 59.9261 205.899 59.8636 206.212 59.8636C206.459 59.8636 206.66 59.8835 206.817 59.9233C206.973 59.9631 207.089 60 207.166 60.0341L206.876 60.9034C206.825 60.8864 206.754 60.8651 206.663 60.8395C206.575 60.8139 206.459 60.8011 206.314 60.8011C205.981 60.8011 205.741 60.8849 205.594 61.0526C205.449 61.2202 205.376 61.4659 205.376 61.7898V69H204.371ZM208.27 69V62.4545H209.241V63.4432H209.31C209.429 63.1193 209.645 62.8565 209.957 62.6548C210.27 62.4531 210.622 62.3523 211.014 62.3523C211.088 62.3523 211.18 62.3537 211.291 62.3565C211.402 62.3594 211.486 62.3636 211.542 62.3693V63.392C211.508 63.3835 211.43 63.3707 211.308 63.3537C211.189 63.3338 211.062 63.3239 210.929 63.3239C210.611 63.3239 210.327 63.3906 210.077 63.5241C209.829 63.6548 209.633 63.8366 209.488 64.0696C209.346 64.2997 209.275 64.5625 209.275 64.858V69H208.27ZM215.212 69.1364C214.622 69.1364 214.103 68.9957 213.657 68.7145C213.214 68.4332 212.867 68.0398 212.617 67.5341C212.37 67.0284 212.247 66.4375 212.247 65.7614C212.247 65.0795 212.37 64.4844 212.617 63.9759C212.867 63.4673 213.214 63.0724 213.657 62.7912C214.103 62.5099 214.622 62.3693 215.212 62.3693C215.803 62.3693 216.32 62.5099 216.764 62.7912C217.21 63.0724 217.556 63.4673 217.803 63.9759C218.053 64.4844 218.178 65.0795 218.178 65.7614C218.178 66.4375 218.053 67.0284 217.803 67.5341C217.556 68.0398 217.21 68.4332 216.764 68.7145C216.32 68.9957 215.803 69.1364 215.212 69.1364ZM215.212 68.233C215.661 68.233 216.031 68.1179 216.32 67.8878C216.61 67.6577 216.825 67.3551 216.964 66.9801C217.103 66.6051 217.173 66.1989 217.173 65.7614C217.173 65.3239 217.103 64.9162 216.964 64.5384C216.825 64.1605 216.61 63.8551 216.32 63.6222C216.031 63.3892 215.661 63.2727 215.212 63.2727C214.764 63.2727 214.394 63.3892 214.104 63.6222C213.815 63.8551 213.6 64.1605 213.461 64.5384C213.322 64.9162 213.252 65.3239 213.252 65.7614C213.252 66.1989 213.322 66.6051 213.461 66.9801C213.6 67.3551 213.815 67.6577 214.104 67.8878C214.394 68.1179 214.764 68.233 215.212 68.233ZM219.732 69V62.4545H220.703V63.4773H220.788C220.925 63.1278 221.145 62.8565 221.449 62.6634C221.753 62.4673 222.118 62.3693 222.544 62.3693C222.976 62.3693 223.335 62.4673 223.622 62.6634C223.912 62.8565 224.138 63.1278 224.3 63.4773H224.368C224.535 63.1392 224.787 62.8707 225.122 62.6719C225.457 62.4702 225.859 62.3693 226.328 62.3693C226.913 62.3693 227.392 62.5526 227.764 62.919C228.136 63.2827 228.322 63.8494 228.322 64.6193V69H227.317V64.6193C227.317 64.1364 227.185 63.7912 226.92 63.5838C226.656 63.3764 226.345 63.2727 225.987 63.2727C225.527 63.2727 225.17 63.4119 224.918 63.6903C224.665 63.9659 224.538 64.3153 224.538 64.7386V69H223.516V64.517C223.516 64.1449 223.395 63.8452 223.153 63.6179C222.912 63.3878 222.601 63.2727 222.22 63.2727C221.959 63.2727 221.714 63.3423 221.487 63.4815C221.263 63.6207 221.081 63.8139 220.942 64.0611C220.805 64.3054 220.737 64.5881 220.737 64.9091V69H219.732ZM234.22 71.4545C234.049 71.4545 233.897 71.4403 233.764 71.4119C233.63 71.3864 233.538 71.3608 233.487 71.3352L233.743 70.4489C233.987 70.5114 234.203 70.5341 234.39 70.517C234.578 70.5 234.744 70.4162 234.889 70.2656C235.037 70.1179 235.172 69.8778 235.294 69.5455L235.481 69.0341L233.061 62.4545H234.152L235.959 67.6705H236.027L237.834 62.4545H238.924L236.146 69.9545C236.021 70.2926 235.866 70.5724 235.682 70.794C235.497 71.0185 235.282 71.1847 235.038 71.2926C234.797 71.4006 234.524 71.4545 234.22 71.4545ZM242.695 69.1364C242.104 69.1364 241.585 68.9957 241.139 68.7145C240.696 68.4332 240.349 68.0398 240.099 67.5341C239.852 67.0284 239.729 66.4375 239.729 65.7614C239.729 65.0795 239.852 64.4844 240.099 63.9759C240.349 63.4673 240.696 63.0724 241.139 62.7912C241.585 62.5099 242.104 62.3693 242.695 62.3693C243.286 62.3693 243.803 62.5099 244.246 62.7912C244.692 63.0724 245.038 63.4673 245.286 63.9759C245.536 64.4844 245.661 65.0795 245.661 65.7614C245.661 66.4375 245.536 67.0284 245.286 67.5341C245.038 68.0398 244.692 68.4332 244.246 68.7145C243.803 68.9957 243.286 69.1364 242.695 69.1364ZM242.695 68.233C243.143 68.233 243.513 68.1179 243.803 67.8878C244.092 67.6577 244.307 67.3551 244.446 66.9801C244.585 66.6051 244.655 66.1989 244.655 65.7614C244.655 65.3239 244.585 64.9162 244.446 64.5384C244.307 64.1605 244.092 63.8551 243.803 63.6222C243.513 63.3892 243.143 63.2727 242.695 63.2727C242.246 63.2727 241.876 63.3892 241.587 63.6222C241.297 63.8551 241.082 64.1605 240.943 64.5384C240.804 64.9162 240.734 65.3239 240.734 65.7614C240.734 66.1989 240.804 66.6051 240.943 66.9801C241.082 67.3551 241.297 67.6577 241.587 67.8878C241.876 68.1179 242.246 68.233 242.695 68.233ZM251.339 66.3239V62.4545H252.344V69H251.339V67.892H251.27C251.117 68.2244 250.878 68.5071 250.555 68.7401C250.231 68.9702 249.822 69.0852 249.327 69.0852C248.918 69.0852 248.555 68.9957 248.236 68.8168C247.918 68.6349 247.668 68.3622 247.486 67.9986C247.305 67.6321 247.214 67.1705 247.214 66.6136V62.4545H248.219V66.5455C248.219 67.0227 248.353 67.4034 248.62 67.6875C248.89 67.9716 249.234 68.1136 249.651 68.1136C249.901 68.1136 250.155 68.0497 250.414 67.9219C250.675 67.794 250.894 67.598 251.07 67.3338C251.249 67.0696 251.339 66.733 251.339 66.3239ZM254.204 69V62.4545H255.176V63.4432H255.244C255.363 63.1193 255.579 62.8565 255.892 62.6548C256.204 62.4531 256.557 62.3523 256.949 62.3523C257.023 62.3523 257.115 62.3537 257.226 62.3565C257.336 62.3594 257.42 62.3636 257.477 62.3693V63.392C257.443 63.3835 257.365 63.3707 257.243 63.3537C257.123 63.3338 256.997 63.3239 256.863 63.3239C256.545 63.3239 256.261 63.3906 256.011 63.5241C255.764 63.6548 255.568 63.8366 255.423 64.0696C255.281 64.2997 255.21 64.5625 255.21 64.858V69H254.204ZM264.552 69.1364C264.006 69.1364 263.525 68.9986 263.107 68.723C262.69 68.4446 262.363 68.0526 262.127 67.5469C261.891 67.0384 261.773 66.4375 261.773 65.7443C261.773 65.0568 261.891 64.4602 262.127 63.9545C262.363 63.4489 262.691 63.0582 263.111 62.7827C263.532 62.5071 264.018 62.3693 264.569 62.3693C264.995 62.3693 265.332 62.4403 265.579 62.5824C265.829 62.7216 266.019 62.8807 266.15 63.0597C266.283 63.2358 266.387 63.3807 266.461 63.4943H266.546V60.2727H267.552V69H266.58V67.9943H266.461C266.387 68.1136 266.282 68.2642 266.146 68.446C266.009 68.625 265.815 68.7855 265.562 68.9276C265.309 69.0668 264.972 69.1364 264.552 69.1364ZM264.688 68.233C265.092 68.233 265.432 68.1278 265.711 67.9176C265.989 67.7045 266.201 67.4105 266.346 67.0355C266.491 66.6577 266.563 66.2216 266.563 65.7273C266.563 65.2386 266.492 64.8111 266.35 64.4446C266.208 64.0753 265.998 63.7884 265.719 63.5838C265.441 63.3764 265.097 63.2727 264.688 63.2727C264.262 63.2727 263.907 63.3821 263.623 63.6009C263.342 63.8168 263.13 64.1108 262.988 64.483C262.849 64.8523 262.779 65.267 262.779 65.7273C262.779 66.1932 262.85 66.6165 262.992 66.9972C263.137 67.375 263.35 67.6761 263.631 67.9006C263.915 68.1222 264.268 68.233 264.688 68.233ZM272.296 69.1364C271.665 69.1364 271.121 68.9972 270.664 68.7188C270.209 68.4375 269.858 68.0455 269.611 67.5426C269.367 67.0369 269.244 66.4489 269.244 65.7784C269.244 65.108 269.367 64.517 269.611 64.0057C269.858 63.4915 270.202 63.0909 270.642 62.804C271.085 62.5142 271.602 62.3693 272.193 62.3693C272.534 62.3693 272.871 62.4261 273.203 62.5398C273.536 62.6534 273.838 62.8381 274.111 63.0938C274.384 63.3466 274.601 63.6818 274.763 64.0994C274.925 64.517 275.006 65.0312 275.006 65.642V66.0682H269.96V65.1989H273.983C273.983 64.8295 273.909 64.5 273.762 64.2102C273.617 63.9205 273.409 63.6918 273.139 63.5241C272.872 63.3565 272.557 63.2727 272.193 63.2727C271.793 63.2727 271.446 63.3722 271.154 63.571C270.864 63.767 270.641 64.0227 270.485 64.3381C270.328 64.6534 270.25 64.9915 270.25 65.3523V65.9318C270.25 66.4261 270.335 66.8452 270.506 67.1889C270.679 67.5298 270.919 67.7898 271.226 67.9688C271.533 68.1449 271.889 68.233 272.296 68.233C272.56 68.233 272.798 68.196 273.012 68.1222C273.227 68.0455 273.414 67.9318 273.57 67.7812C273.726 67.6278 273.847 67.4375 273.932 67.2102L274.904 67.483C274.801 67.8125 274.629 68.1023 274.388 68.3523C274.146 68.5994 273.848 68.7926 273.493 68.9318C273.138 69.0682 272.739 69.1364 272.296 69.1364ZM281.707 62.4545L279.286 69H278.264L275.843 62.4545H276.934L278.741 67.6705H278.809L280.616 62.4545H281.707ZM283.052 69V62.4545H284.058V69H283.052ZM283.564 61.3636C283.367 61.3636 283.198 61.2969 283.056 61.1634C282.917 61.0298 282.848 60.8693 282.848 60.6818C282.848 60.4943 282.917 60.3338 283.056 60.2003C283.198 60.0668 283.367 60 283.564 60C283.76 60 283.927 60.0668 284.066 60.2003C284.208 60.3338 284.279 60.4943 284.279 60.6818C284.279 60.8693 284.208 61.0298 284.066 61.1634C283.927 61.2969 283.76 61.3636 283.564 61.3636ZM288.577 69.1364C287.963 69.1364 287.435 68.9915 286.992 68.7017C286.548 68.4119 286.208 68.0128 285.969 67.5043C285.73 66.9957 285.611 66.4148 285.611 65.7614C285.611 65.0966 285.733 64.5099 285.977 64.0014C286.225 63.4901 286.568 63.0909 287.009 62.804C287.452 62.5142 287.969 62.3693 288.56 62.3693C289.02 62.3693 289.435 62.4545 289.804 62.625C290.173 62.7955 290.476 63.0341 290.712 63.3409C290.948 63.6477 291.094 64.0057 291.151 64.4148H290.145C290.068 64.1165 289.898 63.8523 289.634 63.6222C289.372 63.3892 289.02 63.2727 288.577 63.2727C288.185 63.2727 287.841 63.375 287.546 63.5795C287.253 63.7812 287.024 64.0668 286.86 64.4361C286.698 64.8026 286.617 65.233 286.617 65.7273C286.617 66.233 286.696 66.6733 286.855 67.0483C287.017 67.4233 287.245 67.7145 287.537 67.9219C287.833 68.1293 288.179 68.233 288.577 68.233C288.838 68.233 289.075 68.1875 289.289 68.0966C289.502 68.0057 289.682 67.875 289.83 67.7045C289.977 67.5341 290.083 67.3295 290.145 67.0909H291.151C291.094 67.4773 290.953 67.8253 290.729 68.1349C290.507 68.4418 290.213 68.6861 289.847 68.8679C289.483 69.0469 289.06 69.1364 288.577 69.1364ZM295.383 69.1364C294.753 69.1364 294.209 68.9972 293.751 68.7188C293.297 68.4375 292.946 68.0455 292.699 67.5426C292.454 67.0369 292.332 66.4489 292.332 65.7784C292.332 65.108 292.454 64.517 292.699 64.0057C292.946 63.4915 293.289 63.0909 293.73 62.804C294.173 62.5142 294.69 62.3693 295.281 62.3693C295.622 62.3693 295.959 62.4261 296.291 62.5398C296.623 62.6534 296.926 62.8381 297.199 63.0938C297.471 63.3466 297.689 63.6818 297.851 64.0994C298.013 64.517 298.093 65.0312 298.093 65.642V66.0682H293.048V65.1989H297.071C297.071 64.8295 296.997 64.5 296.849 64.2102C296.704 63.9205 296.497 63.6918 296.227 63.5241C295.96 63.3565 295.645 63.2727 295.281 63.2727C294.88 63.2727 294.534 63.3722 294.241 63.571C293.951 63.767 293.728 64.0227 293.572 64.3381C293.416 64.6534 293.338 64.9915 293.338 65.3523V65.9318C293.338 66.4261 293.423 66.8452 293.593 67.1889C293.767 67.5298 294.007 67.7898 294.314 67.9688C294.62 68.1449 294.977 68.233 295.383 68.233C295.647 68.233 295.886 68.196 296.099 68.1222C296.315 68.0455 296.501 67.9318 296.657 67.7812C296.814 67.6278 296.934 67.4375 297.02 67.2102L297.991 67.483C297.889 67.8125 297.717 68.1023 297.476 68.3523C297.234 68.5994 296.936 68.7926 296.581 68.9318C296.226 69.0682 295.826 69.1364 295.383 69.1364Z" fill="#1A1917"/>
<path d="M180.927 25.99C174.317 25.082 168.617 29.99 169 36.5M166.5 24C166.5 24.5304 166.711 25.0391 167.086 25.4142C167.461 25.7893 167.97 26 168.5 26C169.03 26 169.539 25.7893 169.914 25.4142C170.289 25.0391 170.5 24.5304 170.5 24C170.5 23.4696 170.289 22.9609 169.914 22.5858C169.539 22.2107 169.03 22 168.5 22C167.97 22 167.461 22.2107 167.086 22.5858C166.711 22.9609 166.5 23.4696 166.5 24Z" stroke="#999999" stroke-width="1.5" stroke-linecap="round" stroke-linejoin="round"/>
<path d="M163 29.066C165.78 28.681 168.275 30.024 169.624 32.166" stroke="#999999" stroke-width="1.5" stroke-linecap="round" stroke-linejoin="round"/>
<path d="M163 25.4C163 23.16 163 22.04 163.436 21.184C163.819 20.4314 164.431 19.8195 165.184 19.436C166.04 19 167.16 19 169.4 19H174.6C176.84 19 177.96 19 178.816 19.436C179.569 19.8195 180.181 20.4314 180.564 21.184C181 22.04 181 23.16 181 25.4V30.6C181 32.84 181 33.96 180.564 34.816C180.181 35.5686 179.569 36.1805 178.816 36.564C177.96 37 176.84 37 174.6 37H169.4C167.16 37 166.04 37 165.184 36.564C164.431 36.1805 163.819 35.5686 163.436 34.816C163 33.96 163 32.84 163 30.6V25.4Z" stroke="#999999" stroke-width="1.5" stroke-linecap="round" stroke-linejoin="round"/>
</svg>
