<svg width="344" height="89" viewBox="0 0 344 89" fill="none" xmlns="http://www.w3.org/2000/svg">
<rect x="0.5" y="0.5" width="343" height="88" rx="11.5" stroke="black" stroke-opacity="0.1" stroke-dasharray="2 2"/>
<path d="M55.7841 60.2727H56.8409V66.0511C56.8409 66.6477 56.7003 67.1804 56.419 67.6491C56.1406 68.1151 55.7472 68.483 55.2386 68.7528C54.7301 69.0199 54.1335 69.1534 53.4489 69.1534C52.7642 69.1534 52.1676 69.0199 51.6591 68.7528C51.1506 68.483 50.7557 68.1151 50.4744 67.6491C50.196 67.1804 50.0568 66.6477 50.0568 66.0511V60.2727H51.1136V65.9659C51.1136 66.392 51.2074 66.7713 51.3949 67.1037C51.5824 67.4332 51.8494 67.6932 52.196 67.8835C52.5455 68.071 52.9631 68.1648 53.4489 68.1648C53.9347 68.1648 54.3523 68.071 54.7017 67.8835C55.0511 67.6932 55.3182 67.4332 55.5028 67.1037C55.6903 66.7713 55.7841 66.392 55.7841 65.9659V60.2727ZM58.833 71.4545V62.4545H59.8046V63.4943H59.9239C59.9978 63.3807 60.1 63.2358 60.2307 63.0597C60.3642 62.8807 60.5546 62.7216 60.8017 62.5824C61.0517 62.4403 61.3898 62.3693 61.8159 62.3693C62.3671 62.3693 62.8529 62.5071 63.2733 62.7827C63.6938 63.0582 64.0219 63.4489 64.2577 63.9545C64.4935 64.4602 64.6114 65.0568 64.6114 65.7443C64.6114 66.4375 64.4935 67.0384 64.2577 67.5469C64.0219 68.0526 63.6952 68.4446 63.2776 68.723C62.86 68.9986 62.3784 69.1364 61.833 69.1364C61.4125 69.1364 61.0759 69.0668 60.823 68.9276C60.5702 68.7855 60.3756 68.625 60.2392 68.446C60.1029 68.2642 59.9978 68.1136 59.9239 67.9943H59.8387V71.4545H58.833ZM59.8216 65.7273C59.8216 66.2216 59.8941 66.6577 60.039 67.0355C60.1838 67.4105 60.3955 67.7045 60.6739 67.9176C60.9523 68.1278 61.2932 68.233 61.6966 68.233C62.1171 68.233 62.4679 68.1222 62.7492 67.9006C63.0333 67.6761 63.2463 67.375 63.3884 66.9972C63.5333 66.6165 63.6057 66.1932 63.6057 65.7273C63.6057 65.267 63.5347 64.8523 63.3926 64.483C63.2534 64.1108 63.0418 63.8168 62.7577 63.6009C62.4765 63.3821 62.1228 63.2727 61.6966 63.2727C61.2875 63.2727 60.9438 63.3764 60.6654 63.5838C60.387 63.7884 60.1767 64.0753 60.0347 64.4446C59.8926 64.8111 59.8216 65.2386 59.8216 65.7273ZM67.1692 60.2727V69H66.1635V60.2727H67.1692ZM71.6882 69.1364C71.0973 69.1364 70.5789 68.9957 70.1328 68.7145C69.6897 68.4332 69.3431 68.0398 69.0931 67.5341C68.8459 67.0284 68.7223 66.4375 68.7223 65.7614C68.7223 65.0795 68.8459 64.4844 69.0931 63.9759C69.3431 63.4673 69.6897 63.0724 70.1328 62.7912C70.5789 62.5099 71.0973 62.3693 71.6882 62.3693C72.2791 62.3693 72.7962 62.5099 73.2394 62.7912C73.6854 63.0724 74.032 63.4673 74.2791 63.9759C74.5291 64.4844 74.6541 65.0795 74.6541 65.7614C74.6541 66.4375 74.5291 67.0284 74.2791 67.5341C74.032 68.0398 73.6854 68.4332 73.2394 68.7145C72.7962 68.9957 72.2791 69.1364 71.6882 69.1364ZM71.6882 68.233C72.1371 68.233 72.5064 68.1179 72.7962 67.8878C73.086 67.6577 73.3004 67.3551 73.4397 66.9801C73.5789 66.6051 73.6485 66.1989 73.6485 65.7614C73.6485 65.3239 73.5789 64.9162 73.4397 64.5384C73.3004 64.1605 73.086 63.8551 72.7962 63.6222C72.5064 63.3892 72.1371 63.2727 71.6882 63.2727C71.2394 63.2727 70.8701 63.3892 70.5803 63.6222C70.2905 63.8551 70.076 64.1605 69.9368 64.5384C69.7976 64.9162 69.728 65.3239 69.728 65.7614C69.728 66.1989 69.7976 66.6051 69.9368 66.9801C70.076 67.3551 70.2905 67.6577 70.5803 67.8878C70.8701 68.1179 71.2394 68.233 71.6882 68.233ZM78.1334 69.1534C77.7187 69.1534 77.3422 69.0753 77.0042 68.919C76.6661 68.7599 76.3976 68.5312 76.1988 68.233C75.9999 67.9318 75.9005 67.5682 75.9005 67.142C75.9005 66.767 75.9743 66.4631 76.1221 66.2301C76.2698 65.9943 76.4672 65.8097 76.7144 65.6761C76.9616 65.5426 77.2343 65.4432 77.5326 65.3778C77.8337 65.3097 78.1363 65.2557 78.4403 65.2159C78.838 65.1648 79.1604 65.1264 79.4076 65.1009C79.6576 65.0724 79.8394 65.0256 79.953 64.9602C80.0695 64.8949 80.1278 64.7812 80.1278 64.6193V64.5852C80.1278 64.1648 80.0127 63.8381 79.7826 63.6051C79.5553 63.3722 79.2101 63.2557 78.7471 63.2557C78.267 63.2557 77.8905 63.3608 77.6178 63.571C77.3451 63.7812 77.1533 64.0057 77.0425 64.2443L76.088 63.9034C76.2584 63.5057 76.4857 63.196 76.7698 62.9744C77.0567 62.75 77.3692 62.5937 77.7073 62.5057C78.0482 62.4148 78.3834 62.3693 78.713 62.3693C78.9232 62.3693 79.1647 62.3949 79.4374 62.446C79.713 62.4943 79.9786 62.5952 80.2343 62.7486C80.4928 62.902 80.7073 63.1335 80.8778 63.4432C81.0482 63.7528 81.1334 64.1676 81.1334 64.6875V69H80.1278V68.1136H80.0766C80.0084 68.2557 79.8948 68.4077 79.7357 68.5696C79.5766 68.7315 79.365 68.8693 79.1008 68.983C78.8366 69.0966 78.5141 69.1534 78.1334 69.1534ZM78.2868 68.25C78.6846 68.25 79.0198 68.1719 79.2925 68.0156C79.5681 67.8594 79.7755 67.6577 79.9147 67.4105C80.0567 67.1634 80.1278 66.9034 80.1278 66.6307V65.7102C80.0851 65.7614 79.9914 65.8082 79.8465 65.8509C79.7045 65.8906 79.5397 65.9261 79.3522 65.9574C79.1675 65.9858 78.9871 66.0114 78.811 66.0341C78.6377 66.054 78.4971 66.071 78.3891 66.0852C78.1278 66.1193 77.8834 66.1747 77.6562 66.2514C77.4317 66.3253 77.2499 66.4375 77.1107 66.5881C76.9743 66.7358 76.9062 66.9375 76.9062 67.1932C76.9062 67.5426 77.0354 67.8068 77.2939 67.9858C77.5553 68.1619 77.8863 68.25 78.2868 68.25ZM85.4586 69.1364C84.9132 69.1364 84.4316 68.9986 84.014 68.723C83.5964 68.4446 83.2697 68.0526 83.0339 67.5469C82.7981 67.0384 82.6802 66.4375 82.6802 65.7443C82.6802 65.0568 82.7981 64.4602 83.0339 63.9545C83.2697 63.4489 83.5978 63.0582 84.0183 62.7827C84.4387 62.5071 84.9245 62.3693 85.4757 62.3693C85.9018 62.3693 86.2384 62.4403 86.4856 62.5824C86.7356 62.7216 86.9259 62.8807 87.0566 63.0597C87.1901 63.2358 87.2938 63.3807 87.3677 63.4943H87.4529V60.2727H88.4586V69H87.487V67.9943H87.3677C87.2938 68.1136 87.1887 68.2642 87.0524 68.446C86.916 68.625 86.7214 68.7855 86.4686 68.9276C86.2157 69.0668 85.8791 69.1364 85.4586 69.1364ZM85.595 68.233C85.9984 68.233 86.3393 68.1278 86.6177 67.9176C86.8961 67.7045 87.1078 67.4105 87.2526 67.0355C87.3975 66.6577 87.47 66.2216 87.47 65.7273C87.47 65.2386 87.3989 64.8111 87.2569 64.4446C87.1149 64.0753 86.9046 63.7884 86.6262 63.5838C86.3478 63.3764 86.0041 63.2727 85.595 63.2727C85.1688 63.2727 84.8137 63.3821 84.5296 63.6009C84.2484 63.8168 84.0367 64.1108 83.8947 64.483C83.7555 64.8523 83.6859 65.267 83.6859 65.7273C83.6859 66.1932 83.7569 66.6165 83.8989 66.9972C84.0438 67.375 84.2569 67.6761 84.5382 67.9006C84.8222 68.1222 85.1745 68.233 85.595 68.233ZM94.4989 71.4545C94.3284 71.4545 94.1764 71.4403 94.0429 71.4119C93.9094 71.3864 93.8171 71.3608 93.7659 71.3352L94.0216 70.4489C94.2659 70.5114 94.4818 70.5341 94.6693 70.517C94.8568 70.5 95.023 70.4162 95.1679 70.2656C95.3156 70.1179 95.4506 69.8778 95.5727 69.5455L95.7602 69.0341L93.3398 62.4545H94.4307L96.2375 67.6705H96.3057L98.1125 62.4545H99.2034L96.425 69.9545C96.3 70.2926 96.1452 70.5724 95.9605 70.794C95.7759 71.0185 95.5614 71.1847 95.3171 71.2926C95.0756 71.4006 94.8028 71.4545 94.4989 71.4545ZM102.974 69.1364C102.383 69.1364 101.864 68.9957 101.418 68.7145C100.975 68.4332 100.628 68.0398 100.378 67.5341C100.131 67.0284 100.008 66.4375 100.008 65.7614C100.008 65.0795 100.131 64.4844 100.378 63.9759C100.628 63.4673 100.975 63.0724 101.418 62.7912C101.864 62.5099 102.383 62.3693 102.974 62.3693C103.564 62.3693 104.082 62.5099 104.525 62.7912C104.971 63.0724 105.317 63.4673 105.564 63.9759C105.814 64.4844 105.939 65.0795 105.939 65.7614C105.939 66.4375 105.814 67.0284 105.564 67.5341C105.317 68.0398 104.971 68.4332 104.525 68.7145C104.082 68.9957 103.564 69.1364 102.974 69.1364ZM102.974 68.233C103.422 68.233 103.792 68.1179 104.082 67.8878C104.371 67.6577 104.586 67.3551 104.725 66.9801C104.864 66.6051 104.934 66.1989 104.934 65.7614C104.934 65.3239 104.864 64.9162 104.725 64.5384C104.586 64.1605 104.371 63.8551 104.082 63.6222C103.792 63.3892 103.422 63.2727 102.974 63.2727C102.525 63.2727 102.155 63.3892 101.866 63.6222C101.576 63.8551 101.361 64.1605 101.222 64.5384C101.083 64.9162 101.013 65.3239 101.013 65.7614C101.013 66.1989 101.083 66.6051 101.222 66.9801C101.361 67.3551 101.576 67.6577 101.866 67.8878C102.155 68.1179 102.525 68.233 102.974 68.233ZM111.618 66.3239V62.4545H112.623V69H111.618V67.892H111.549C111.396 68.2244 111.157 68.5071 110.834 68.7401C110.51 68.9702 110.101 69.0852 109.606 69.0852C109.197 69.0852 108.834 68.9957 108.515 68.8168C108.197 68.6349 107.947 68.3622 107.765 67.9986C107.584 67.6321 107.493 67.1705 107.493 66.6136V62.4545H108.498V66.5455C108.498 67.0227 108.632 67.4034 108.899 67.6875C109.169 67.9716 109.512 68.1136 109.93 68.1136C110.18 68.1136 110.434 68.0497 110.693 67.9219C110.954 67.794 111.173 67.598 111.349 67.3338C111.528 67.0696 111.618 66.733 111.618 66.3239ZM114.483 69V62.4545H115.455V63.4432H115.523C115.642 63.1193 115.858 62.8565 116.171 62.6548C116.483 62.4531 116.836 62.3523 117.228 62.3523C117.301 62.3523 117.394 62.3537 117.505 62.3565C117.615 62.3594 117.699 62.3636 117.756 62.3693V63.392C117.722 63.3835 117.644 63.3707 117.522 63.3537C117.402 63.3338 117.276 63.3239 117.142 63.3239C116.824 63.3239 116.54 63.3906 116.29 63.5241C116.043 63.6548 115.847 63.8366 115.702 64.0696C115.56 64.2997 115.489 64.5625 115.489 64.858V69H114.483ZM125.018 69.1364C124.405 69.1364 123.876 68.9915 123.433 68.7017C122.99 68.4119 122.649 68.0128 122.41 67.5043C122.172 66.9957 122.052 66.4148 122.052 65.7614C122.052 65.0966 122.174 64.5099 122.419 64.0014C122.666 63.4901 123.01 63.0909 123.45 62.804C123.893 62.5142 124.41 62.3693 125.001 62.3693C125.461 62.3693 125.876 62.4545 126.245 62.625C126.615 62.7955 126.917 63.0341 127.153 63.3409C127.389 63.6477 127.535 64.0057 127.592 64.4148H126.586C126.51 64.1165 126.339 63.8523 126.075 63.6222C125.814 63.3892 125.461 63.2727 125.018 63.2727C124.626 63.2727 124.282 63.375 123.987 63.5795C123.694 63.7812 123.466 64.0668 123.301 64.4361C123.139 64.8026 123.058 65.233 123.058 65.7273C123.058 66.233 123.138 66.6733 123.297 67.0483C123.459 67.4233 123.686 67.7145 123.978 67.9219C124.274 68.1293 124.62 68.233 125.018 68.233C125.28 68.233 125.517 68.1875 125.73 68.0966C125.943 68.0057 126.123 67.875 126.271 67.7045C126.419 67.5341 126.524 67.3295 126.586 67.0909H127.592C127.535 67.4773 127.395 67.8253 127.17 68.1349C126.949 68.4418 126.655 68.6861 126.288 68.8679C125.924 69.0469 125.501 69.1364 125.018 69.1364ZM131.739 69.1364C131.148 69.1364 130.63 68.9957 130.184 68.7145C129.741 68.4332 129.394 68.0398 129.144 67.5341C128.897 67.0284 128.773 66.4375 128.773 65.7614C128.773 65.0795 128.897 64.4844 129.144 63.9759C129.394 63.4673 129.741 63.0724 130.184 62.7912C130.63 62.5099 131.148 62.3693 131.739 62.3693C132.33 62.3693 132.847 62.5099 133.29 62.7912C133.736 63.0724 134.083 63.4673 134.33 63.9759C134.58 64.4844 134.705 65.0795 134.705 65.7614C134.705 66.4375 134.58 67.0284 134.33 67.5341C134.083 68.0398 133.736 68.4332 133.29 68.7145C132.847 68.9957 132.33 69.1364 131.739 69.1364ZM131.739 68.233C132.188 68.233 132.558 68.1179 132.847 67.8878C133.137 67.6577 133.352 67.3551 133.491 66.9801C133.63 66.6051 133.7 66.1989 133.7 65.7614C133.7 65.3239 133.63 64.9162 133.491 64.5384C133.352 64.1605 133.137 63.8551 132.847 63.6222C132.558 63.3892 132.188 63.2727 131.739 63.2727C131.29 63.2727 130.921 63.3892 130.631 63.6222C130.342 63.8551 130.127 64.1605 129.988 64.5384C129.849 64.9162 129.779 65.3239 129.779 65.7614C129.779 66.1989 129.849 66.6051 129.988 66.9801C130.127 67.3551 130.342 67.6577 130.631 67.8878C130.921 68.1179 131.29 68.233 131.739 68.233ZM141.376 62.4545L138.956 69H137.933L135.513 62.4545H136.604L138.41 67.6705H138.479L140.285 62.4545H141.376ZM145.232 69.1364C144.601 69.1364 144.057 68.9972 143.6 68.7188C143.145 68.4375 142.794 68.0455 142.547 67.5426C142.303 67.0369 142.181 66.4489 142.181 65.7784C142.181 65.108 142.303 64.517 142.547 64.0057C142.794 63.4915 143.138 63.0909 143.578 62.804C144.021 62.5142 144.538 62.3693 145.129 62.3693C145.47 62.3693 145.807 62.4261 146.139 62.5398C146.472 62.6534 146.774 62.8381 147.047 63.0938C147.32 63.3466 147.537 63.6818 147.699 64.0994C147.861 64.517 147.942 65.0312 147.942 65.642V66.0682H142.896V65.1989H146.919C146.919 64.8295 146.845 64.5 146.698 64.2102C146.553 63.9205 146.345 63.6918 146.075 63.5241C145.808 63.3565 145.493 63.2727 145.129 63.2727C144.729 63.2727 144.382 63.3722 144.09 63.571C143.8 63.767 143.577 64.0227 143.421 64.3381C143.264 64.6534 143.186 64.9915 143.186 65.3523V65.9318C143.186 66.4261 143.271 66.8452 143.442 67.1889C143.615 67.5298 143.855 67.7898 144.162 67.9688C144.469 68.1449 144.825 68.233 145.232 68.233C145.496 68.233 145.734 68.196 145.948 68.1222C146.163 68.0455 146.35 67.9318 146.506 67.7812C146.662 67.6278 146.783 67.4375 146.868 67.2102L147.84 67.483C147.737 67.8125 147.565 68.1023 147.324 68.3523C147.082 68.5994 146.784 68.7926 146.429 68.9318C146.074 69.0682 145.675 69.1364 145.232 69.1364ZM149.49 69V62.4545H150.461V63.4432H150.529C150.649 63.1193 150.865 62.8565 151.177 62.6548C151.49 62.4531 151.842 62.3523 152.234 62.3523C152.308 62.3523 152.4 62.3537 152.511 62.3565C152.622 62.3594 152.706 62.3636 152.762 62.3693V63.392C152.728 63.3835 152.65 63.3707 152.528 63.3537C152.409 63.3338 152.282 63.3239 152.149 63.3239C151.831 63.3239 151.547 63.3906 151.297 63.5241C151.049 63.6548 150.853 63.8366 150.708 64.0696C150.566 64.2997 150.495 64.5625 150.495 64.858V69H149.49ZM157.366 71.4545V62.4545H158.337V63.4943H158.456C158.53 63.3807 158.633 63.2358 158.763 63.0597C158.897 62.8807 159.087 62.7216 159.334 62.5824C159.584 62.4403 159.922 62.3693 160.349 62.3693C160.9 62.3693 161.385 62.5071 161.806 62.7827C162.226 63.0582 162.554 63.4489 162.79 63.9545C163.026 64.4602 163.144 65.0568 163.144 65.7443C163.144 66.4375 163.026 67.0384 162.79 67.5469C162.554 68.0526 162.228 68.4446 161.81 68.723C161.393 68.9986 160.911 69.1364 160.366 69.1364C159.945 69.1364 159.608 69.0668 159.356 68.9276C159.103 68.7855 158.908 68.625 158.772 68.446C158.635 68.2642 158.53 68.1136 158.456 67.9943H158.371V71.4545H157.366ZM158.354 65.7273C158.354 66.2216 158.427 66.6577 158.572 67.0355C158.716 67.4105 158.928 67.7045 159.206 67.9176C159.485 68.1278 159.826 68.233 160.229 68.233C160.65 68.233 161 68.1222 161.282 67.9006C161.566 67.6761 161.779 67.375 161.921 66.9972C162.066 66.6165 162.138 66.1932 162.138 65.7273C162.138 65.267 162.067 64.8523 161.925 64.483C161.786 64.1108 161.574 63.8168 161.29 63.6009C161.009 63.3821 160.655 63.2727 160.229 63.2727C159.82 63.2727 159.476 63.3764 159.198 63.5838C158.92 63.7884 158.709 64.0753 158.567 64.4446C158.425 64.8111 158.354 65.2386 158.354 65.7273ZM165.702 65.0625V69H164.696V60.2727H165.702V63.4773H165.787C165.94 63.1392 166.17 62.8707 166.477 62.6719C166.787 62.4702 167.199 62.3693 167.713 62.3693C168.159 62.3693 168.55 62.4588 168.885 62.6378C169.22 62.8139 169.48 63.0852 169.665 63.4517C169.852 63.8153 169.946 64.2784 169.946 64.8409V69H168.94V64.9091C168.94 64.3892 168.805 63.9872 168.536 63.7031C168.268 63.4162 167.898 63.2727 167.423 63.2727C167.094 63.2727 166.798 63.3423 166.537 63.4815C166.278 63.6207 166.074 63.8239 165.923 64.0909C165.776 64.358 165.702 64.6818 165.702 65.0625ZM174.463 69.1364C173.872 69.1364 173.354 68.9957 172.908 68.7145C172.464 68.4332 172.118 68.0398 171.868 67.5341C171.621 67.0284 171.497 66.4375 171.497 65.7614C171.497 65.0795 171.621 64.4844 171.868 63.9759C172.118 63.4673 172.464 63.0724 172.908 62.7912C173.354 62.5099 173.872 62.3693 174.463 62.3693C175.054 62.3693 175.571 62.5099 176.014 62.7912C176.46 63.0724 176.807 63.4673 177.054 63.9759C177.304 64.4844 177.429 65.0795 177.429 65.7614C177.429 66.4375 177.304 67.0284 177.054 67.5341C176.807 68.0398 176.46 68.4332 176.014 68.7145C175.571 68.9957 175.054 69.1364 174.463 69.1364ZM174.463 68.233C174.912 68.233 175.281 68.1179 175.571 67.8878C175.861 67.6577 176.075 67.3551 176.214 66.9801C176.354 66.6051 176.423 66.1989 176.423 65.7614C176.423 65.3239 176.354 64.9162 176.214 64.5384C176.075 64.1605 175.861 63.8551 175.571 63.6222C175.281 63.3892 174.912 63.2727 174.463 63.2727C174.014 63.2727 173.645 63.3892 173.355 63.6222C173.065 63.8551 172.851 64.1605 172.712 64.5384C172.572 64.9162 172.503 65.3239 172.503 65.7614C172.503 66.1989 172.572 66.6051 172.712 66.9801C172.851 67.3551 173.065 67.6577 173.355 67.8878C173.645 68.1179 174.014 68.233 174.463 68.233ZM181.829 62.4545V63.3068H178.437V62.4545H181.829ZM179.425 60.8864H180.431V67.125C180.431 67.4091 180.472 67.6222 180.554 67.7642C180.64 67.9034 180.748 67.9972 180.878 68.0455C181.012 68.0909 181.153 68.1136 181.3 68.1136C181.411 68.1136 181.502 68.108 181.573 68.0966C181.644 68.0824 181.701 68.071 181.743 68.0625L181.948 68.9659C181.88 68.9915 181.785 69.017 181.662 69.0426C181.54 69.071 181.385 69.0852 181.198 69.0852C180.914 69.0852 180.635 69.0241 180.363 68.902C180.093 68.7798 179.868 68.5938 179.689 68.3438C179.513 68.0938 179.425 67.7784 179.425 67.3977V60.8864ZM185.948 69.1364C185.357 69.1364 184.839 68.9957 184.393 68.7145C183.95 68.4332 183.603 68.0398 183.353 67.5341C183.106 67.0284 182.982 66.4375 182.982 65.7614C182.982 65.0795 183.106 64.4844 183.353 63.9759C183.603 63.4673 183.95 63.0724 184.393 62.7912C184.839 62.5099 185.357 62.3693 185.948 62.3693C186.539 62.3693 187.056 62.5099 187.499 62.7912C187.945 63.0724 188.292 63.4673 188.539 63.9759C188.789 64.4844 188.914 65.0795 188.914 65.7614C188.914 66.4375 188.789 67.0284 188.539 67.5341C188.292 68.0398 187.945 68.4332 187.499 68.7145C187.056 68.9957 186.539 69.1364 185.948 69.1364ZM185.948 68.233C186.397 68.233 186.766 68.1179 187.056 67.8878C187.346 67.6577 187.56 67.3551 187.7 66.9801C187.839 66.6051 187.908 66.1989 187.908 65.7614C187.908 65.3239 187.839 64.9162 187.7 64.5384C187.56 64.1605 187.346 63.8551 187.056 63.6222C186.766 63.3892 186.397 63.2727 185.948 63.2727C185.499 63.2727 185.13 63.3892 184.84 63.6222C184.55 63.8551 184.336 64.1605 184.197 64.5384C184.058 64.9162 183.988 65.3239 183.988 65.7614C183.988 66.1989 184.058 66.6051 184.197 66.9801C184.336 67.3551 184.55 67.6577 184.84 67.8878C185.13 68.1179 185.499 68.233 185.948 68.233ZM196.775 62.4545V63.3068H193.247V62.4545H196.775ZM194.303 69V61.5511C194.303 61.1761 194.392 60.8636 194.568 60.6136C194.744 60.3636 194.972 60.1761 195.254 60.0511C195.535 59.9261 195.832 59.8636 196.144 59.8636C196.392 59.8636 196.593 59.8835 196.749 59.9233C196.906 59.9631 197.022 60 197.099 60.0341L196.809 60.9034C196.758 60.8864 196.687 60.8651 196.596 60.8395C196.508 60.8139 196.392 60.8011 196.247 60.8011C195.914 60.8011 195.674 60.8849 195.526 61.0526C195.382 61.2202 195.309 61.4659 195.309 61.7898V69H194.303ZM198.202 69V62.4545H199.174V63.4432H199.242C199.362 63.1193 199.577 62.8565 199.89 62.6548C200.202 62.4531 200.555 62.3523 200.947 62.3523C201.021 62.3523 201.113 62.3537 201.224 62.3565C201.335 62.3594 201.418 62.3636 201.475 62.3693V63.392C201.441 63.3835 201.363 63.3707 201.241 63.3537C201.122 63.3338 200.995 63.3239 200.862 63.3239C200.543 63.3239 200.259 63.3906 200.009 63.5241C199.762 63.6548 199.566 63.8366 199.421 64.0696C199.279 64.2997 199.208 64.5625 199.208 64.858V69H198.202ZM205.145 69.1364C204.554 69.1364 204.036 68.9957 203.59 68.7145C203.147 68.4332 202.8 68.0398 202.55 67.5341C202.303 67.0284 202.179 66.4375 202.179 65.7614C202.179 65.0795 202.303 64.4844 202.55 63.9759C202.8 63.4673 203.147 63.0724 203.59 62.7912C204.036 62.5099 204.554 62.3693 205.145 62.3693C205.736 62.3693 206.253 62.5099 206.696 62.7912C207.142 63.0724 207.489 63.4673 207.736 63.9759C207.986 64.4844 208.111 65.0795 208.111 65.7614C208.111 66.4375 207.986 67.0284 207.736 67.5341C207.489 68.0398 207.142 68.4332 206.696 68.7145C206.253 68.9957 205.736 69.1364 205.145 69.1364ZM205.145 68.233C205.594 68.233 205.963 68.1179 206.253 67.8878C206.543 67.6577 206.757 67.3551 206.897 66.9801C207.036 66.6051 207.105 66.1989 207.105 65.7614C207.105 65.3239 207.036 64.9162 206.897 64.5384C206.757 64.1605 206.543 63.8551 206.253 63.6222C205.963 63.3892 205.594 63.2727 205.145 63.2727C204.696 63.2727 204.327 63.3892 204.037 63.6222C203.747 63.8551 203.533 64.1605 203.394 64.5384C203.255 64.9162 203.185 65.3239 203.185 65.7614C203.185 66.1989 203.255 66.6051 203.394 66.9801C203.533 67.3551 203.747 67.6577 204.037 67.8878C204.327 68.1179 204.696 68.233 205.145 68.233ZM209.664 69V62.4545H210.636V63.4773H210.721C210.857 63.1278 211.078 62.8565 211.382 62.6634C211.686 62.4673 212.051 62.3693 212.477 62.3693C212.909 62.3693 213.268 62.4673 213.555 62.6634C213.845 62.8565 214.071 63.1278 214.232 63.4773H214.301C214.468 63.1392 214.72 62.8707 215.055 62.6719C215.39 62.4702 215.792 62.3693 216.261 62.3693C216.846 62.3693 217.325 62.5526 217.697 62.919C218.069 63.2827 218.255 63.8494 218.255 64.6193V69H217.249V64.6193C217.249 64.1364 217.117 63.7912 216.853 63.5838C216.589 63.3764 216.278 63.2727 215.92 63.2727C215.46 63.2727 215.103 63.4119 214.85 63.6903C214.597 63.9659 214.471 64.3153 214.471 64.7386V69H213.448V64.517C213.448 64.1449 213.328 63.8452 213.086 63.6179C212.845 63.3878 212.534 63.2727 212.153 63.2727C211.892 63.2727 211.647 63.3423 211.42 63.4815C211.196 63.6207 211.014 63.8139 210.874 64.0611C210.738 64.3054 210.67 64.5881 210.67 64.9091V69H209.664ZM224.153 71.4545C223.982 71.4545 223.83 71.4403 223.697 71.4119C223.563 71.3864 223.471 71.3608 223.42 71.3352L223.675 70.4489C223.92 70.5114 224.136 70.5341 224.323 70.517C224.511 70.5 224.677 70.4162 224.822 70.2656C224.969 70.1179 225.104 69.8778 225.227 69.5455L225.414 69.0341L222.994 62.4545H224.085L225.891 67.6705H225.96L227.766 62.4545H228.857L226.079 69.9545C225.954 70.2926 225.799 70.5724 225.614 70.794C225.43 71.0185 225.215 71.1847 224.971 71.2926C224.729 71.4006 224.457 71.4545 224.153 71.4545ZM232.627 69.1364C232.036 69.1364 231.518 68.9957 231.072 68.7145C230.629 68.4332 230.282 68.0398 230.032 67.5341C229.785 67.0284 229.661 66.4375 229.661 65.7614C229.661 65.0795 229.785 64.4844 230.032 63.9759C230.282 63.4673 230.629 63.0724 231.072 62.7912C231.518 62.5099 232.036 62.3693 232.627 62.3693C233.218 62.3693 233.735 62.5099 234.178 62.7912C234.625 63.0724 234.971 63.4673 235.218 63.9759C235.468 64.4844 235.593 65.0795 235.593 65.7614C235.593 66.4375 235.468 67.0284 235.218 67.5341C234.971 68.0398 234.625 68.4332 234.178 68.7145C233.735 68.9957 233.218 69.1364 232.627 69.1364ZM232.627 68.233C233.076 68.233 233.446 68.1179 233.735 67.8878C234.025 67.6577 234.24 67.3551 234.379 66.9801C234.518 66.6051 234.588 66.1989 234.588 65.7614C234.588 65.3239 234.518 64.9162 234.379 64.5384C234.24 64.1605 234.025 63.8551 233.735 63.6222C233.446 63.3892 233.076 63.2727 232.627 63.2727C232.178 63.2727 231.809 63.3892 231.519 63.6222C231.23 63.8551 231.015 64.1605 230.876 64.5384C230.737 64.9162 230.667 65.3239 230.667 65.7614C230.667 66.1989 230.737 66.6051 230.876 66.9801C231.015 67.3551 231.23 67.6577 231.519 67.8878C231.809 68.1179 232.178 68.233 232.627 68.233ZM241.271 66.3239V62.4545H242.277V69H241.271V67.892H241.203C241.05 68.2244 240.811 68.5071 240.487 68.7401C240.163 68.9702 239.754 69.0852 239.26 69.0852C238.851 69.0852 238.487 68.9957 238.169 68.8168C237.851 68.6349 237.601 68.3622 237.419 67.9986C237.237 67.6321 237.146 67.1705 237.146 66.6136V62.4545H238.152V66.5455C238.152 67.0227 238.286 67.4034 238.553 67.6875C238.823 67.9716 239.166 68.1136 239.584 68.1136C239.834 68.1136 240.088 68.0497 240.347 67.9219C240.608 67.794 240.827 67.598 241.003 67.3338C241.182 67.0696 241.271 66.733 241.271 66.3239ZM244.137 69V62.4545H245.109V63.4432H245.177C245.296 63.1193 245.512 62.8565 245.825 62.6548C246.137 62.4531 246.489 62.3523 246.881 62.3523C246.955 62.3523 247.048 62.3537 247.158 62.3565C247.269 62.3594 247.353 62.3636 247.41 62.3693V63.392C247.376 63.3835 247.298 63.3707 247.175 63.3537C247.056 63.3338 246.93 63.3239 246.796 63.3239C246.478 63.3239 246.194 63.3906 245.944 63.5241C245.697 63.6548 245.501 63.8366 245.356 64.0696C245.214 64.2997 245.143 64.5625 245.143 64.858V69H244.137ZM254.485 69.1364C253.939 69.1364 253.458 68.9986 253.04 68.723C252.622 68.4446 252.296 68.0526 252.06 67.5469C251.824 67.0384 251.706 66.4375 251.706 65.7443C251.706 65.0568 251.824 64.4602 252.06 63.9545C252.296 63.4489 252.624 63.0582 253.044 62.7827C253.465 62.5071 253.95 62.3693 254.502 62.3693C254.928 62.3693 255.264 62.4403 255.512 62.5824C255.762 62.7216 255.952 62.8807 256.083 63.0597C256.216 63.2358 256.32 63.3807 256.394 63.4943H256.479V60.2727H257.485V69H256.513V67.9943H256.394C256.32 68.1136 256.215 68.2642 256.078 68.446C255.942 68.625 255.747 68.7855 255.494 68.9276C255.242 69.0668 254.905 69.1364 254.485 69.1364ZM254.621 68.233C255.024 68.233 255.365 68.1278 255.644 67.9176C255.922 67.7045 256.134 67.4105 256.279 67.0355C256.423 66.6577 256.496 66.2216 256.496 65.7273C256.496 65.2386 256.425 64.8111 256.283 64.4446C256.141 64.0753 255.931 63.7884 255.652 63.5838C255.374 63.3764 255.03 63.2727 254.621 63.2727C254.195 63.2727 253.84 63.3821 253.556 63.6009C253.274 63.8168 253.063 64.1108 252.921 64.483C252.781 64.8523 252.712 65.267 252.712 65.7273C252.712 66.1932 252.783 66.6165 252.925 66.9972C253.07 67.375 253.283 67.6761 253.564 67.9006C253.848 68.1222 254.2 68.233 254.621 68.233ZM262.228 69.1364C261.598 69.1364 261.054 68.9972 260.596 68.7188C260.142 68.4375 259.791 68.0455 259.544 67.5426C259.299 67.0369 259.177 66.4489 259.177 65.7784C259.177 65.108 259.299 64.517 259.544 64.0057C259.791 63.4915 260.135 63.0909 260.575 62.804C261.018 62.5142 261.535 62.3693 262.126 62.3693C262.467 62.3693 262.804 62.4261 263.136 62.5398C263.468 62.6534 263.771 62.8381 264.044 63.0938C264.316 63.3466 264.534 63.6818 264.696 64.0994C264.858 64.517 264.939 65.0312 264.939 65.642V66.0682H259.893V65.1989H263.916C263.916 64.8295 263.842 64.5 263.694 64.2102C263.549 63.9205 263.342 63.6918 263.072 63.5241C262.805 63.3565 262.49 63.2727 262.126 63.2727C261.726 63.2727 261.379 63.3722 261.086 63.571C260.797 63.767 260.574 64.0227 260.417 64.3381C260.261 64.6534 260.183 64.9915 260.183 65.3523V65.9318C260.183 66.4261 260.268 66.8452 260.439 67.1889C260.612 67.5298 260.852 67.7898 261.159 67.9688C261.466 68.1449 261.822 68.233 262.228 68.233C262.493 68.233 262.731 68.196 262.944 68.1222C263.16 68.0455 263.346 67.9318 263.503 67.7812C263.659 67.6278 263.78 67.4375 263.865 67.2102L264.836 67.483C264.734 67.8125 264.562 68.1023 264.321 68.3523C264.079 68.5994 263.781 68.7926 263.426 68.9318C263.071 69.0682 262.672 69.1364 262.228 69.1364ZM271.639 62.4545L269.219 69H268.196L265.776 62.4545H266.867L268.674 67.6705H268.742L270.549 62.4545H271.639ZM272.985 69V62.4545H273.991V69H272.985ZM273.496 61.3636C273.3 61.3636 273.131 61.2969 272.989 61.1634C272.85 61.0298 272.78 60.8693 272.78 60.6818C272.78 60.4943 272.85 60.3338 272.989 60.2003C273.131 60.0668 273.3 60 273.496 60C273.692 60 273.86 60.0668 273.999 60.2003C274.141 60.3338 274.212 60.4943 274.212 60.6818C274.212 60.8693 274.141 61.0298 273.999 61.1634C273.86 61.2969 273.692 61.3636 273.496 61.3636ZM278.51 69.1364C277.896 69.1364 277.368 68.9915 276.924 68.7017C276.481 68.4119 276.14 68.0128 275.902 67.5043C275.663 66.9957 275.544 66.4148 275.544 65.7614C275.544 65.0966 275.666 64.5099 275.91 64.0014C276.157 63.4901 276.501 63.0909 276.941 62.804C277.385 62.5142 277.902 62.3693 278.493 62.3693C278.953 62.3693 279.368 62.4545 279.737 62.625C280.106 62.7955 280.409 63.0341 280.645 63.3409C280.88 63.6477 281.027 64.0057 281.084 64.4148H280.078C280.001 64.1165 279.831 63.8523 279.566 63.6222C279.305 63.3892 278.953 63.2727 278.51 63.2727C278.118 63.2727 277.774 63.375 277.478 63.5795C277.186 63.7812 276.957 64.0668 276.792 64.4361C276.63 64.8026 276.549 65.233 276.549 65.7273C276.549 66.233 276.629 66.6733 276.788 67.0483C276.95 67.4233 277.177 67.7145 277.47 67.9219C277.765 68.1293 278.112 68.233 278.51 68.233C278.771 68.233 279.008 68.1875 279.221 68.0966C279.434 68.0057 279.615 67.875 279.762 67.7045C279.91 67.5341 280.015 67.3295 280.078 67.0909H281.084C281.027 67.4773 280.886 67.8253 280.662 68.1349C280.44 68.4418 280.146 68.6861 279.78 68.8679C279.416 69.0469 278.993 69.1364 278.51 69.1364ZM285.316 69.1364C284.685 69.1364 284.141 68.9972 283.684 68.7188C283.229 68.4375 282.878 68.0455 282.631 67.5426C282.387 67.0369 282.265 66.4489 282.265 65.7784C282.265 65.108 282.387 64.517 282.631 64.0057C282.878 63.4915 283.222 63.0909 283.663 62.804C284.106 62.5142 284.623 62.3693 285.214 62.3693C285.555 62.3693 285.891 62.4261 286.224 62.5398C286.556 62.6534 286.859 62.8381 287.131 63.0938C287.404 63.3466 287.621 63.6818 287.783 64.0994C287.945 64.517 288.026 65.0312 288.026 65.642V66.0682H282.981V65.1989H287.003C287.003 64.8295 286.93 64.5 286.782 64.2102C286.637 63.9205 286.43 63.6918 286.16 63.5241C285.893 63.3565 285.577 63.2727 285.214 63.2727C284.813 63.2727 284.467 63.3722 284.174 63.571C283.884 63.767 283.661 64.0227 283.505 64.3381C283.349 64.6534 283.271 64.9915 283.271 65.3523V65.9318C283.271 66.4261 283.356 66.8452 283.526 67.1889C283.7 67.5298 283.94 67.7898 284.246 67.9688C284.553 68.1449 284.91 68.233 285.316 68.233C285.58 68.233 285.819 68.196 286.032 68.1222C286.248 68.0455 286.434 67.9318 286.59 67.7812C286.746 67.6278 286.867 67.4375 286.952 67.2102L287.924 67.483C287.822 67.8125 287.65 68.1023 287.408 68.3523C287.167 68.5994 286.869 68.7926 286.513 68.9318C286.158 69.0682 285.759 69.1364 285.316 69.1364Z" fill="#1A1917"/>
<path d="M180.927 25.99C174.317 25.082 168.617 29.99 169 36.5M166.5 24C166.5 24.5304 166.711 25.0391 167.086 25.4142C167.461 25.7893 167.97 26 168.5 26C169.03 26 169.539 25.7893 169.914 25.4142C170.289 25.0391 170.5 24.5304 170.5 24C170.5 23.4696 170.289 22.9609 169.914 22.5858C169.539 22.2107 169.03 22 168.5 22C167.97 22 167.461 22.2107 167.086 22.5858C166.711 22.9609 166.5 23.4696 166.5 24Z" stroke="#999999" stroke-width="1.5" stroke-linecap="round" stroke-linejoin="round"/>
<path d="M163 29.066C165.78 28.681 168.275 30.024 169.624 32.166" stroke="#999999" stroke-width="1.5" stroke-linecap="round" stroke-linejoin="round"/>
<path d="M163 25.4C163 23.16 163 22.04 163.436 21.184C163.819 20.4314 164.431 19.8195 165.184 19.436C166.04 19 167.16 19 169.4 19H174.6C176.84 19 177.96 19 178.816 19.436C179.569 19.8195 180.181 20.4314 180.564 21.184C181 22.04 181 23.16 181 25.4V30.6C181 32.84 181 33.96 180.564 34.816C180.181 35.5686 179.569 36.1805 178.816 36.564C177.96 37 176.84 37 174.6 37H169.4C167.16 37 166.04 37 165.184 36.564C164.431 36.1805 163.819 35.5686 163.436 34.816C163 33.96 163 32.84 163 30.6V25.4Z" stroke="#999999" stroke-width="1.5" stroke-linecap="round" stroke-linejoin="round"/>
</svg>
