<svg width="55" height="55" viewBox="0 0 55 55" fill="none" xmlns="http://www.w3.org/2000/svg">
<rect width="55" height="55" rx="27.5" fill="#EDF0F1"/>
<g clip-path="url(#clip0_4093_19453)">
<path d="M27.0391 35.552C27.9198 35.8282 28.492 36.5088 28.317 37.0721C28.1421 37.6355 27.2863 37.8681 26.4053 37.5918C26.0518 37.4862 25.7287 37.2971 25.4628 37.0403L21.7456 35.8228L22.3512 34.0818L25.9515 35.4669C26.3156 35.4075 26.6885 35.4367 27.0391 35.552Z" fill="#FFB6B6"/>
<path d="M19.0755 22.7774C18.1892 22.6719 17.3731 23.2739 17.2079 24.1555C16.619 27.2999 15.3682 34.0995 15.5329 34.265C15.7473 34.4806 23.7535 36.8514 23.7535 36.8514L24.6828 34.8398L19.393 32.2534L20.5531 24.7327C20.7004 23.778 20.0301 22.891 19.0755 22.7774Z" fill="#E6E6E6"/>
<path d="M28.721 38.8224C27.8615 39.1598 26.9917 38.9876 26.7782 38.4379C26.5646 37.8882 27.0882 37.1692 27.948 36.8318C28.2896 36.6923 28.6595 36.637 29.0267 36.6706L32.686 35.2874L33.2953 37.0271L29.6231 38.2061C29.3757 38.481 29.0663 38.6924 28.721 38.8224Z" fill="#A0616A"/>
<path d="M33.9981 23.8903C34.8753 23.7251 35.7299 24.2707 35.9535 25.1391C36.7514 28.2366 38.4541 34.9364 38.3008 35.1127C38.1012 35.3422 30.2717 38.2485 30.2717 38.2485L29.21 36.3041L34.3149 33.3663L32.6545 25.941C32.4437 24.9984 33.0532 24.0681 33.9981 23.8903Z" fill="#E6E6E6"/>
<path d="M18.4479 23.229L18.8839 20.4902L15.9409 19.2852L15.5049 23.4481L18.4479 23.229Z" fill="#FFB6B6"/>
<path d="M35.6362 23.6601L35.2002 20.9214L38.1432 19.7163L38.5792 23.8792L35.6362 23.6601Z" fill="#A0616A"/>
<path d="M17.7038 21.3707C19.3612 21.3707 20.7049 20.0203 20.7049 18.3544C20.7049 16.6886 19.3612 15.3381 17.7038 15.3381C16.0463 15.3381 14.7026 16.6886 14.7026 18.3544C14.7026 20.0203 16.0463 21.3707 17.7038 21.3707Z" fill="#FFB6B6"/>
<path d="M17.4644 14.2992C17.5512 14.3501 17.6676 14.273 17.6954 14.1759C17.7233 14.0788 17.6908 13.9757 17.6587 13.88L17.4967 13.3979C17.3819 13.0561 17.26 12.7023 17.0113 12.4421C16.6359 12.0493 16.0393 11.9494 15.5022 12.0218C14.8125 12.1147 14.132 12.4901 13.8114 13.1108C13.4907 13.7315 13.6272 14.5976 14.2067 14.9848C13.3808 15.9361 13.0929 16.9964 13.1384 18.2581C13.1838 19.5198 14.5519 20.681 15.444 21.5699C15.6433 21.4485 15.8244 20.8796 15.7148 20.673C15.6053 20.4663 15.7622 20.2269 15.6266 20.0366C15.4909 19.8462 15.3774 20.1493 15.5145 19.96C15.6011 19.8406 15.2632 19.5658 15.3919 19.4944C16.0143 19.1486 16.2212 18.369 16.6121 17.7719C17.0836 17.0518 17.8905 16.5641 18.7444 16.4832C19.2148 16.4387 19.7116 16.5194 20.0972 16.7939C20.4827 17.0683 20.7324 17.5588 20.6429 18.0251C20.8745 17.7888 20.9898 17.4425 20.9463 17.1137C20.9028 16.785 20.7016 16.4809 20.4166 16.3136C20.5899 15.7378 20.4415 15.0755 20.0394 14.6299C19.6372 14.1843 18.0061 14.2602 17.419 14.3775" fill="#2F2E41"/>
<path d="M17.3732 16.5007C16.5956 16.5851 16.0342 17.262 15.5602 17.8871C15.2869 18.2475 15.0007 18.6454 15.0076 19.0984C15.0145 19.5563 15.3192 19.9491 15.4648 20.3832C15.7028 21.0926 15.4708 21.9366 14.9043 22.4227C15.4641 22.5295 16.0693 22.1076 16.1659 21.5433C16.2784 20.8863 15.7829 20.2522 15.8415 19.5881C15.8933 19.0031 16.352 18.5529 16.7419 18.1154C17.1319 17.678 17.4982 17.0976 17.3187 16.5386" fill="#2F2E41"/>
<path d="M18.7878 22.7697L15.3901 21.8357L11.8874 23.2726L10.3862 35.1989L18.9643 35.4863V33.5626C18.9643 33.5626 20.4654 31.6785 20.1795 28.9484L19.8936 26.2182L18.7878 22.7697Z" fill="#E6E6E6"/>
<path d="M20.3582 27.6192L13.6388 27.26L11.8159 32.4688C11.8159 32.4688 9.56419 35.594 9.20677 37.8931C8.84935 40.1921 9.0638 43.4252 9.0638 43.4252H19.8213L18.9643 33.5626C18.9643 33.5626 20.965 29.1998 20.7331 28.4455C20.5012 27.6911 20.3582 27.6192 20.3582 27.6192Z" fill="#3F3D56"/>
<path d="M15.2115 21.8718H13.5674V27.9787H15.2115V21.8718Z" fill="#3F3D56"/>
<path d="M20.2867 23.2368H18.6426V28.266H20.2867V23.2368Z" fill="#3F3D56"/>
<path d="M35.1531 23.3446L38.5508 22.4106L42.0535 23.8475L43.5547 35.7738L34.9767 36.0612V34.1375C34.9767 34.1375 34.0992 32.1708 34.9409 29.5592C35.763 27.0087 34.0474 26.7932 34.0474 26.7932L35.1531 23.3446Z" fill="#E6E6E6"/>
<path d="M33.5825 28.1942L40.302 27.835L42.1248 33.0437C42.1248 33.0437 43.2328 36.6001 43.5903 38.8991C43.9477 41.1982 44.877 44.0001 44.877 44.0001H34.1195L33.797 34.5166L33.5825 28.1942Z" fill="#3F3D56"/>
<path d="M40.3736 22.4465H38.7295V28.5534H40.3736V22.4465Z" fill="#3F3D56"/>
<path d="M35.2984 23.8115H33.6543V28.8407H35.2984V23.8115Z" fill="#3F3D56"/>
<path d="M36.3008 21.7897C38.3767 21.7897 40.0596 20.0984 40.0596 18.0119C40.0596 15.9255 38.3767 14.2341 36.3008 14.2341C34.2249 14.2341 32.542 15.9255 32.542 18.0119C32.542 20.0984 34.2249 21.7897 36.3008 21.7897Z" fill="#A0616A"/>
<path d="M39.998 20.0614C39.998 20.0614 38.1794 17.8681 37.452 18.0509C36.7246 18.2337 37.1792 18.5078 37.1792 18.5078L35.3607 16.4973C35.3607 16.4973 33.9058 15.949 32.5419 17.6854C32.5419 17.6854 31.7236 16.2232 32.5419 15.4007C33.3603 14.5782 33.6331 14.6696 33.8149 14.2126C33.9968 13.7557 35.2698 13.3902 35.2698 13.3902C35.2698 13.3902 35.1967 12.7325 35.5969 13.0613C35.9972 13.3902 36.9967 13.3902 36.9967 13.3902C36.9967 13.3902 37.0024 13.0246 37.4091 13.3902C37.8157 13.7557 38.2704 13.5729 38.2704 13.5729C38.2704 13.5729 38.2704 14.2055 38.5886 14.209C38.9068 14.2126 39.4524 13.7557 39.5433 14.1213C39.6343 14.4868 40.2708 14.6696 40.3617 15.7662C40.4526 16.8629 39.998 20.0614 39.998 20.0614Z" fill="#2F2E41"/>
<path d="M26.0576 25.6999L28.9678 31.2293L28.5688 31.4414L25.6587 25.912C25.6164 25.8317 25.647 25.7321 25.7268 25.6896L25.8363 25.6314C25.9162 25.589 26.0153 25.6196 26.0576 25.6999Z" fill="#3F3D56"/>
<path d="M30.9062 33.3189C30.1658 33.127 29.3912 33.4668 29.0196 34.1384C28.5544 34.9794 28.0229 35.6694 28.2009 34.025C28.3968 32.2147 27.3402 30.7526 28.1706 30.3111C29.001 29.8696 29.8585 31.2114 31.2082 32.4262C32.459 33.5521 31.7377 33.5344 30.9062 33.3189Z" fill="#3F3D56"/>
<path d="M26.6201 26.8184C27.4594 26.4332 28.3375 26.5562 28.5813 27.0931C28.8251 27.63 28.3423 28.3773 27.5026 28.7624C27.1693 28.9209 26.8031 28.9969 26.4346 28.984L22.8579 30.5708L22.1528 28.868L25.7536 27.4845C25.9854 27.1961 26.2825 26.9677 26.6201 26.8184Z" fill="#FFB6B6"/>
<path d="M12.2072 22.647C11.477 23.163 11.2691 24.1588 11.7316 24.9261C13.381 27.6627 16.9648 33.5653 17.1974 33.5781C17.5002 33.5948 25.0368 29.99 25.0368 29.99L24.393 27.8685L18.7362 29.4908L14.606 23.112C14.0817 22.3023 12.9935 22.0913 12.2072 22.647Z" fill="#E6E6E6"/>
<path d="M26.978 35.3105L36.6458 30.1707L37.8326 32.4255C38.8563 34.3706 38.1162 36.7852 36.1809 37.8141L33.5262 39.2254C31.5909 40.2543 29.1885 39.5105 28.1648 37.5654L26.978 35.3105Z" fill="#FF5F1F"/>
<path d="M35.1685 38.7654C34.3293 39.1507 33.4512 39.0278 33.2073 38.4909C32.9634 37.9541 33.4461 37.2068 34.2857 36.8215C34.619 36.6629 34.9852 36.5869 35.3537 36.5998L38.9301 35.0125L39.6355 36.7151L36.0349 38.0992C35.8032 38.3876 35.5061 38.6161 35.1685 38.7654Z" fill="#A0616A"/>
<path d="M42.4427 23.5676C43.3291 23.4621 44.1452 24.0642 44.3103 24.9458C44.8992 28.0902 46.1501 34.8897 45.9854 35.0553C45.7709 35.2708 37.7647 37.6417 37.7647 37.6417L36.8354 35.6301L42.1253 33.0436L40.9651 25.523C40.8179 24.5683 41.4881 23.6813 42.4427 23.5676Z" fill="#E6E6E6"/>
</g>
<defs>
<clipPath id="clip0_4093_19453">
<rect width="37" height="32" fill="white" transform="translate(9 12)"/>
</clipPath>
</defs>
</svg>
