<svg width="15" height="15" viewBox="0 0 15 15" fill="none" xmlns="http://www.w3.org/2000/svg">
<path d="M6.71855 1.53145C7.1498 1.1627 7.85605 1.1627 8.29355 1.53145L9.28105 2.38145C9.46855 2.54395 9.81855 2.6752 10.0686 2.6752H11.1311C11.7936 2.6752 12.3373 3.21895 12.3373 3.88144V4.94394C12.3373 5.18769 12.4686 5.54394 12.6311 5.73144L13.4811 6.71895C13.8498 7.1502 13.8498 7.85645 13.4811 8.29395L12.6311 9.28144C12.4686 9.46894 12.3373 9.81894 12.3373 10.0689V11.1314C12.3373 11.7939 11.7936 12.3377 11.1311 12.3377H10.0686C9.82481 12.3377 9.46855 12.4689 9.28105 12.6314L8.29355 13.4814C7.8623 13.8502 7.15605 13.8502 6.71855 13.4814L5.73105 12.6314C5.54355 12.4689 5.19355 12.3377 4.94355 12.3377H3.8623C3.1998 12.3377 2.65605 11.7939 2.65605 11.1314V10.0627C2.65605 9.81894 2.5248 9.46894 2.36855 9.28144L1.5248 8.28769C1.1623 7.85644 1.1623 7.15645 1.5248 6.72519L2.36855 5.73144C2.5248 5.54394 2.65605 5.19394 2.65605 4.95019V3.87519C2.65605 3.21269 3.1998 2.66895 3.8623 2.66895H4.94355C5.1873 2.66895 5.54355 2.5377 5.73105 2.3752L6.71855 1.53145Z" fill="#0078FF"/>
<path d="M5.2373 7.4998L6.74355 9.01231L9.7623 5.9873" stroke="white" stroke-linecap="round" stroke-linejoin="round"/>
</svg>
