<svg width="40" height="40" viewBox="0 0 40 40" fill="none" xmlns="http://www.w3.org/2000/svg">
<path d="M0 14C0 6.26802 6.26801 0 14 0H25.9971C33.7291 0 39.9971 6.26801 39.9971 14V25.9971C39.9971 33.7291 33.7291 39.9971 25.9971 39.9971H14C6.26802 39.9971 0 33.7291 0 25.9971V14Z" fill="#F3F4F6"/>
<path d="M16.0672 19.3652H15.4133V20.6319H16.0672V19.3652ZM23.9133 20.6319H24.5672V19.3652H23.9133V20.6319ZM16.0672 15.5652H15.4133V16.8319H16.0672V15.5652ZM18.6825 16.8319H19.3364V15.5652H18.6825V16.8319ZM23.9133 11.1319L24.3762 10.6835L24.184 10.4985H23.9133V11.1319ZM27.8364 14.9319H28.4902V14.6697L28.2993 14.4835L27.8364 14.9319ZM19.9902 25.0652L20.2832 25.6314L20.3355 25.6061L20.3825 25.5719L19.9902 25.0652ZM16.0672 20.6319H23.9133V19.3652H16.0672V20.6319ZM16.0672 16.8319H18.6825V15.5652H16.0672V16.8319ZM26.5287 28.2319H13.4518V29.4985H26.5287V28.2319ZM12.7979 27.5985V12.3985H11.4902V27.5985H12.7979ZM13.4518 11.7652H23.9133V10.4985H13.4518V11.7652ZM27.1825 14.9319V27.5985H28.4902V14.9319H27.1825ZM23.4504 11.5803L27.3735 15.3803L28.2993 14.4835L24.3762 10.6835L23.4504 11.5803ZM13.4518 28.2319C13.2784 28.2319 13.1121 28.1651 12.9894 28.0464C12.8668 27.9276 12.7979 27.7665 12.7979 27.5985H11.4902C11.4902 28.1024 11.6969 28.5857 12.0648 28.942C12.4326 29.2984 12.9315 29.4985 13.4518 29.4985V28.2319ZM26.5287 29.4985C27.0489 29.4985 27.5479 29.2984 27.9157 28.942C28.2836 28.5857 28.4902 28.1024 28.4902 27.5985H27.1825C27.1825 27.7665 27.1137 27.9276 26.991 28.0464C26.8684 28.1651 26.7021 28.2319 26.5287 28.2319V29.4985ZM12.7979 12.3985C12.7979 12.2306 12.8668 12.0695 12.9894 11.9507C13.1121 11.8319 13.2784 11.7652 13.4518 11.7652V10.4985C12.9315 10.4985 12.4326 10.6987 12.0648 11.055C11.6969 11.4114 11.4902 11.8946 11.4902 12.3985H12.7979ZM17.3408 25.2653C17.486 24.8435 17.8992 24.4521 18.4262 24.3153C18.9192 24.1874 19.5535 24.271 20.1812 24.8803L21.107 23.9835C20.1655 23.0715 19.0552 22.8397 18.0875 23.0917C17.1552 23.3349 16.3915 24.0202 16.0998 24.8651L17.3408 25.2653ZM20.1812 24.8803C20.2178 24.915 20.2523 24.9518 20.2845 24.9905L21.3175 24.2127C21.2522 24.1327 21.1819 24.0566 21.107 23.9847L20.1812 24.8803ZM20.2845 24.9905C20.3865 25.1171 20.3629 25.1577 20.3668 25.1298C20.3695 25.1121 20.3747 25.1412 20.2962 25.2096C20.1832 25.3011 20.055 25.3735 19.917 25.4237C19.7512 25.4881 19.5783 25.534 19.4018 25.5605C19.2938 25.5779 19.1839 25.5822 19.0749 25.5731C19.0526 25.5681 19.0984 25.5731 19.1664 25.62C19.2495 25.6826 19.3105 25.7685 19.3412 25.866C19.3719 25.9635 19.3706 26.0679 19.3377 26.1647C19.3304 26.1857 19.3203 26.2057 19.3076 26.2242C19.305 26.2267 19.3272 26.1989 19.4018 26.1393C19.5508 26.0228 19.8255 25.8531 20.2832 25.6327L19.6973 24.499C19.2056 24.7371 18.8334 24.9554 18.5805 25.1539C18.4522 25.2514 18.3378 25.3652 18.2405 25.4921C18.1168 25.6518 18.0523 25.8472 18.0575 26.0469C18.0631 26.1637 18.0961 26.2777 18.1538 26.3804C18.2116 26.4831 18.2927 26.5717 18.3909 26.6397C18.5387 26.7461 18.7022 26.7917 18.8225 26.8157C19.067 26.8626 19.3455 26.8499 19.5979 26.8132C20.0948 26.7397 20.7382 26.532 21.1763 26.1469C21.4038 25.9455 21.6196 25.6567 21.6654 25.278C21.7125 24.8904 21.5686 24.5269 21.3162 24.214L20.2845 24.9905ZM20.3825 25.5719C20.592 25.4173 20.8193 25.2868 21.0599 25.183L20.5408 24.0202C20.2269 24.1511 19.9126 24.3305 19.5979 24.5585L20.3825 25.5719ZM21.0599 25.183C21.9099 24.8271 22.6697 25.0145 23.4478 25.373C23.6422 25.465 23.8357 25.5622 24.0284 25.6643C24.2167 25.7631 24.4155 25.8683 24.6038 25.962C24.9647 26.1381 25.4119 26.3319 25.8748 26.3319V25.0652C25.7519 25.0652 25.5505 25.0057 25.1948 24.8321C25.0275 24.7485 24.8522 24.6548 24.6508 24.5497C24.4547 24.4471 24.2376 24.3343 24.0101 24.2305C23.0973 23.8087 21.9034 23.4502 20.5408 24.0202L21.0599 25.183Z" fill="#4B5563"/>
</svg>
