<svg width="16" height="16" viewBox="0 0 16 16" fill="none" xmlns="http://www.w3.org/2000/svg">
<g clip-path="url(#clip0_4077_17450)">
<path d="M14.1033 4.53743C14.4554 4.18536 14.6533 3.70781 14.6534 3.20985C14.6534 2.71188 14.4557 2.23429 14.1036 1.88213C13.7515 1.52997 13.274 1.33209 12.776 1.33203C12.2781 1.33197 11.8005 1.52972 11.4483 1.8818L2.55889 10.7732C2.40424 10.9274 2.28988 11.1172 2.22586 11.326L1.34598 14.2248C1.32876 14.2824 1.32746 14.3436 1.34221 14.4019C1.35696 14.4601 1.38722 14.5133 1.42976 14.5558C1.47231 14.5983 1.52556 14.6285 1.58387 14.6431C1.64218 14.6578 1.70336 14.6564 1.76094 14.6391L4.66035 13.7599C4.86895 13.6964 5.05878 13.5828 5.21319 13.4288L14.1033 4.53743Z" stroke="white" stroke-width="1.33215" stroke-linecap="round" stroke-linejoin="round"/>
</g>
<defs>
<clipPath id="clip0_4077_17450">
<rect width="15.9857" height="15.9857" fill="white"/>
</clipPath>
</defs>
</svg>
